%FSLAX46Y46*%
%MOMM*%
%AMPS18*
1,1,1.326200,0.000000,0.000000*
%
%ADD18PS18*%
%AMPS22*
1,1,2.276200,0.000000,0.000000*
%
%ADD22PS22*%
%AMPS35*
1,1,1.776200,0.000000,0.000000*
%
%ADD35PS35*%
%AMPS33*
1,1,1.776200,0.000000,0.000000*
%
%ADD33PS33*%
%AMPS14*
1,1,2.276200,0.000000,0.000000*
%
%ADD14PS14*%
%AMPS34*
1,1,1.776200,0.000000,0.000000*
%
%ADD34PS34*%
%AMPS19*
1,1,1.326200,0.000000,0.000000*
%
%ADD19PS19*%
%AMPS31*
1,1,1.776200,0.000000,0.000000*
%
%ADD31PS31*%
%AMPS17*
1,1,1.326200,0.000000,0.000000*
%
%ADD17PS17*%
%AMPS32*
1,1,1.776200,0.000000,0.000000*
%
%ADD32PS32*%
%AMPS13*
21,1,0.876200,0.826200,0.000000,0.000000,0.000000*
%
%ADD13PS13*%
%AMPS24*
21,1,0.876200,0.826200,0.000000,0.000000,270.000000*
%
%ADD24PS24*%
%AMPS26*
21,1,0.876200,0.826200,0.000000,0.000000,180.000000*
%
%ADD26PS26*%
%AMPS23*
21,1,0.876200,0.826200,0.000000,0.000000,90.000000*
%
%ADD23PS23*%
%AMPS28*
21,1,0.576200,0.976200,0.000000,0.000000,0.000000*
%
%ADD28PS28*%
%AMPS25*
21,1,0.576200,0.976200,0.000000,0.000000,270.000000*
%
%ADD25PS25*%
%AMPS20*
21,1,0.576200,0.976200,0.000000,0.000000,180.000000*
%
%ADD20PS20*%
%AMPS15*
21,1,0.576200,0.976200,0.000000,0.000000,90.000000*
%
%ADD15PS15*%
%AMPS21*
21,1,0.676200,0.576200,0.000000,0.000000,0.000000*
%
%ADD21PS21*%
%AMPS16*
21,1,0.676200,0.576200,0.000000,0.000000,270.000000*
%
%ADD16PS16*%
%AMPS27*
21,1,0.676200,0.576200,0.000000,0.000000,180.000000*
%
%ADD27PS27*%
%AMPS29*
21,1,0.676200,0.576200,0.000000,0.000000,90.000000*
%
%ADD29PS29*%
%AMPS40*
1,1,0.480000,0.000000,0.000000*
%
%ADD40PS40*%
%AMPS48*
1,1,0.434000,0.000000,0.000000*
%
%ADD48PS48*%
%AMPS44*
1,1,0.434000,0.000000,0.000000*
%
%ADD44PS44*%
%AMPS39*
1,1,0.480000,0.000000,0.000000*
%
%ADD39PS39*%
%AMPS46*
1,1,0.434000,0.000000,0.000000*
%
%ADD46PS46*%
%AMPS45*
1,1,0.440000,0.000000,0.000000*
%
%ADD45PS45*%
%AMPS36*
1,1,0.434000,0.000000,0.000000*
%
%ADD36PS36*%
%AMPS41*
1,1,0.480000,0.000000,0.000000*
%
%ADD41PS41*%
%AMPS43*
1,1,0.434000,0.000000,0.000000*
%
%ADD43PS43*%
%AMPS37*
1,1,0.480000,0.000000,0.000000*
%
%ADD37PS37*%
%AMPS42*
1,1,0.480000,0.000000,0.000000*
%
%ADD42PS42*%
%AMPS47*
1,1,0.434000,0.000000,0.000000*
%
%ADD47PS47*%
%AMPS38*
1,1,0.480000,0.000000,0.000000*
%
%ADD38PS38*%
%AMPS30*
1,1,1.100000,0.000000,0.000000*
%
%ADD30PS30*%
%AMPS12*
1,1,6.600000,0.000000,0.000000*
%
%ADD12PS12*%
%AMPS10*
1,1,6.600000,0.000000,0.000000*
%
%ADD10PS10*%
%AMPS11*
1,1,6.600000,0.000000,0.000000*
%
%ADD11PS11*%
G01*
%LPD*%
G36*
X80460000Y23890000D02*
X80460000Y31610000D01*
X86000000Y31610000D01*
X86000000Y23890000D01*
X80460000Y23890000D01*
D02*
G37*
G01*
%LPD*%
D10*
X82000000Y53000000D03*
D11*
X82000000Y4000000D03*
D11*
X2000000Y4000000D03*
D12*
X2000000Y53000000D03*
D13*
X50800000Y36750000D03*
D13*
X52300000Y36750000D03*
D13*
X11750000Y36500000D03*
D13*
X13250000Y36500000D03*
D14*
X82750000Y11500000D03*
D15*
X24500000Y25250000D03*
D15*
X24500000Y23750000D03*
D16*
X47250000Y36300000D03*
D16*
X47250000Y35200000D03*
D17*
X84520000Y18230000D03*
D17*
X81980000Y18230000D03*
D18*
X81980000Y20770000D03*
D19*
X83250000Y19500000D03*
D18*
X84520000Y20770000D03*
D20*
X-500000Y10500000D03*
D20*
X1000000Y10500000D03*
D21*
X50700000Y43250000D03*
D21*
X51800000Y43250000D03*
D22*
X40000000Y2750000D03*
D23*
X14750000Y27000000D03*
D23*
X14750000Y28500000D03*
D16*
X48250000Y36300000D03*
D16*
X48250000Y35200000D03*
D24*
X72225000Y14500000D03*
D24*
X72225000Y13000000D03*
D13*
X50500000Y45500000D03*
D13*
X52000000Y45500000D03*
D24*
X73475000Y14500000D03*
D24*
X73475000Y13000000D03*
D13*
X11750000Y45500000D03*
D13*
X13250000Y45500000D03*
D24*
X34250000Y36250000D03*
D24*
X34250000Y34750000D03*
D25*
X26000000Y23750000D03*
D25*
X26000000Y25250000D03*
D26*
X35750000Y30000000D03*
D26*
X34250000Y30000000D03*
D23*
X70500000Y19500000D03*
D23*
X70500000Y21000000D03*
D16*
X72500000Y24800000D03*
D16*
X72500000Y23700000D03*
D27*
X44300000Y39500000D03*
D27*
X43200000Y39500000D03*
D13*
X11750000Y32750000D03*
D13*
X13250000Y32750000D03*
D13*
X11750000Y49750000D03*
D13*
X13250000Y49750000D03*
D14*
X33000000Y2750000D03*
D20*
X-500000Y13500000D03*
D20*
X1000000Y13500000D03*
D28*
X20500000Y51250000D03*
D28*
X19000000Y51250000D03*
D24*
X44500000Y36250000D03*
D24*
X44500000Y34750000D03*
D23*
X73750000Y21000000D03*
D23*
X73750000Y22500000D03*
D23*
X31500000Y32750000D03*
D23*
X31500000Y34250000D03*
D26*
X76500000Y19500000D03*
D26*
X75000000Y19500000D03*
D20*
X-500000Y16500000D03*
D20*
X1000000Y16500000D03*
D29*
X75750000Y28950000D03*
D29*
X75750000Y30050000D03*
D13*
X41500000Y35000000D03*
D13*
X43000000Y35000000D03*
D20*
X-500000Y18000000D03*
D20*
X1000000Y18000000D03*
D23*
X71750000Y19500000D03*
D23*
X71750000Y21000000D03*
D27*
X44300000Y38000000D03*
D27*
X43200000Y38000000D03*
D24*
X70975000Y14500000D03*
D24*
X70975000Y13000000D03*
D23*
X74500000Y29000000D03*
D23*
X74500000Y30500000D03*
D20*
X78750000Y23000000D03*
D20*
X80250000Y23000000D03*
D20*
X-500000Y9000000D03*
D20*
X1000000Y9000000D03*
D13*
X74750000Y14750000D03*
D13*
X76250000Y14750000D03*
D13*
X77500000Y18500000D03*
D13*
X79000000Y18500000D03*
D20*
X55000000Y40000000D03*
D20*
X56500000Y40000000D03*
D29*
X72000000Y28950000D03*
D29*
X72000000Y30050000D03*
D26*
X44500000Y40750000D03*
D26*
X43000000Y40750000D03*
D29*
X45250000Y42450000D03*
D29*
X45250000Y43550000D03*
D21*
X50700000Y35250000D03*
D21*
X51800000Y35250000D03*
D15*
X21750000Y28250000D03*
D15*
X21750000Y26750000D03*
D24*
X76250000Y24850000D03*
D24*
X76250000Y23350000D03*
D23*
X48000000Y42750000D03*
D23*
X48000000Y44250000D03*
D20*
X22750000Y53000000D03*
D20*
X24250000Y53000000D03*
D16*
X75000000Y24800000D03*
D16*
X75000000Y23700000D03*
D13*
X50800000Y40750000D03*
D13*
X52300000Y40750000D03*
D27*
X71550000Y26250000D03*
D27*
X70450000Y26250000D03*
D23*
X26500000Y27000000D03*
D23*
X26500000Y28500000D03*
D27*
X79150000Y19650000D03*
D27*
X78050000Y19650000D03*
D30*
X25950000Y5250000D03*
D30*
X21550000Y5250000D03*
D24*
X33250000Y49000000D03*
D24*
X33250000Y47500000D03*
D16*
X49650000Y36300000D03*
D16*
X49650000Y35200000D03*
D16*
X45750000Y36300000D03*
D16*
X45750000Y35200000D03*
D13*
X11750000Y28250000D03*
D13*
X13250000Y28250000D03*
D13*
X11750000Y29500000D03*
D13*
X13250000Y29500000D03*
D21*
X50700000Y44250000D03*
D21*
X51800000Y44250000D03*
D24*
X18000000Y51000000D03*
D24*
X18000000Y49500000D03*
D13*
X31000000Y44250000D03*
D13*
X32500000Y44250000D03*
D23*
X33250000Y27000000D03*
D23*
X33250000Y28500000D03*
D21*
X50700000Y38250000D03*
D21*
X51800000Y38250000D03*
D21*
X75700000Y26000000D03*
D21*
X76800000Y26000000D03*
D26*
X69750000Y15000000D03*
D26*
X68250000Y15000000D03*
D26*
X31500000Y31250000D03*
D26*
X30000000Y31250000D03*
D24*
X71250000Y24850000D03*
D24*
X71250000Y23350000D03*
D16*
X78500000Y25800000D03*
D16*
X78500000Y24700000D03*
D13*
X74750000Y17000000D03*
D13*
X76250000Y17000000D03*
D29*
X44250000Y42450000D03*
D29*
X44250000Y43550000D03*
D20*
X-500000Y12000000D03*
D20*
X1000000Y12000000D03*
D26*
X71500000Y27500000D03*
D26*
X70000000Y27500000D03*
D26*
X69750000Y16250000D03*
D26*
X68250000Y16250000D03*
D13*
X11750000Y40750000D03*
D13*
X13250000Y40750000D03*
D21*
X76300000Y21900000D03*
D21*
X77400000Y21900000D03*
D25*
X23000000Y23250000D03*
D25*
X23000000Y24750000D03*
D21*
X50700000Y39250000D03*
D21*
X51800000Y39250000D03*
D15*
X49250000Y45500000D03*
D15*
X49250000Y44000000D03*
D31*
X12020000Y14040000D03*
D32*
X9480000Y8960000D03*
D33*
X12020000Y6420000D03*
D33*
X9480000Y16580000D03*
D34*
X12020000Y16580000D03*
D32*
X9480000Y11500000D03*
D33*
X9480000Y6420000D03*
D35*
X12020000Y8960000D03*
D32*
X9480000Y14040000D03*
D34*
X12020000Y11500000D03*
D20*
X-500000Y15000000D03*
D20*
X1000000Y15000000D03*
D26*
X56500000Y38500000D03*
D26*
X55000000Y38500000D03*
D23*
X73250000Y29000000D03*
D23*
X73250000Y30500000D03*
D21*
X50700000Y42250000D03*
D21*
X51800000Y42250000D03*
D13*
X41500000Y43500000D03*
D13*
X43000000Y43500000D03*
D13*
X31000000Y37750000D03*
D13*
X32500000Y37750000D03*
D36*
X83425000Y27025000D03*
D37*
X70750000Y8375000D03*
D38*
X17000000Y48000000D03*
D38*
X53500000Y35750000D03*
D38*
X56750000Y7000000D03*
D38*
X74750000Y25750000D03*
D39*
X73000000Y26500000D03*
D39*
X63250000Y19750000D03*
D38*
X74000000Y15250000D03*
D40*
X46738827Y28494557D03*
D38*
X65250000Y9250000D03*
D41*
X1750000Y10500000D03*
D38*
X81500000Y40750000D03*
D37*
X54744557Y17578873D03*
D40*
X69750000Y12750000D03*
D37*
X22500000Y15250000D03*
D41*
X24000000Y51250000D03*
D37*
X9000000Y48000000D03*
D39*
X56750000Y12250000D03*
D38*
X47500000Y40250000D03*
D42*
X81500000Y39750000D03*
D38*
X71000000Y31500000D03*
D42*
X32822488Y39750000D03*
D37*
X50500000Y20275000D03*
D37*
X34500000Y23000000D03*
D39*
X75500000Y9000000D03*
D40*
X35750000Y18250000D03*
D40*
X70000000Y26850000D03*
D38*
X63500000Y41750000D03*
D39*
X27375000Y6125000D03*
D38*
X57500000Y23000000D03*
D40*
X71100000Y32500000D03*
D37*
X63250000Y19000000D03*
D37*
X43000000Y21750000D03*
D38*
X26530000Y26000000D03*
D38*
X60000000Y23500000D03*
D38*
X71750000Y30500000D03*
D42*
X77250000Y15500000D03*
D38*
X1750000Y14250000D03*
D38*
X71500000Y12000000D03*
D40*
X70500000Y18750000D03*
D38*
X36250000Y22250000D03*
D38*
X63000000Y11750000D03*
D42*
X55000000Y23000000D03*
D39*
X40750000Y53750000D03*
D38*
X37750000Y28250000D03*
D39*
X56250000Y11500000D03*
D40*
X21500000Y39750000D03*
D38*
X46750000Y33550000D03*
D38*
X34500000Y21750000D03*
D38*
X68500000Y6750000D03*
D38*
X73250000Y5500000D03*
D38*
X28250000Y35250000D03*
D38*
X32750000Y30000000D03*
D36*
X85175000Y28475000D03*
D38*
X60000000Y32000000D03*
D38*
X84500000Y22500000D03*
D39*
X46500000Y37250000D03*
D38*
X60000000Y15000000D03*
D37*
X48125000Y28494557D03*
D42*
X84250000Y45000000D03*
D38*
X72750000Y16500000D03*
D38*
X52536657Y12768328D03*
D38*
X58750000Y7000000D03*
D38*
X73750000Y6000000D03*
D42*
X49500000Y40250000D03*
D39*
X54250000Y34500000D03*
D40*
X77500000Y2500000D03*
D37*
X22500000Y51750000D03*
D38*
X30500000Y41250000D03*
D39*
X55000000Y11500000D03*
D39*
X28875000Y3875000D03*
D38*
X57500000Y12750000D03*
D38*
X29000000Y29750000D03*
D38*
X49500000Y41250000D03*
D37*
X71000000Y17000000D03*
D37*
X52500000Y44250000D03*
D40*
X68500000Y20250000D03*
D39*
X55494557Y8578873D03*
D41*
X32822488Y41250000D03*
D38*
X73000000Y15250000D03*
D38*
X55000000Y20500000D03*
D38*
X15250000Y33750000D03*
D37*
X53250000Y38250000D03*
D37*
X60000000Y14000000D03*
D40*
X52499129Y13517391D03*
D39*
X49500000Y37250000D03*
D38*
X21935000Y51000000D03*
D38*
X11000000Y43750000D03*
D40*
X34500000Y20500000D03*
D40*
X35250000Y22250000D03*
D40*
X35750000Y20500000D03*
D37*
X9109418Y3000000D03*
D39*
X70500000Y17750000D03*
D41*
X71750000Y17500000D03*
D38*
X26500000Y30000000D03*
D43*
X79750000Y27025000D03*
D39*
X52250000Y31250000D03*
D38*
X6250000Y25000000D03*
D38*
X76250000Y20500000D03*
D38*
X82049265Y43700735D03*
D38*
X25250000Y9750000D03*
D37*
X83250000Y39000000D03*
D38*
X77828873Y38005443D03*
D38*
X11000000Y46000000D03*
D37*
X67750000Y17750000D03*
D37*
X45500000Y40250000D03*
D38*
X29500000Y48000000D03*
D38*
X66750000Y13250000D03*
D38*
X75250000Y23350000D03*
D37*
X36750000Y28250000D03*
D37*
X43750000Y22250000D03*
D39*
X78578873Y39880443D03*
D37*
X57750000Y4250000D03*
D40*
X5000056Y42250056D03*
D38*
X56250000Y25250000D03*
D38*
X40000000Y21750000D03*
D38*
X56250000Y42250000D03*
D38*
X72250000Y28250000D03*
D44*
X78000000Y28500000D03*
D40*
X55750000Y12250000D03*
D38*
X71000000Y15750000D03*
D38*
X47500000Y37250000D03*
D38*
X3750000Y22024999D03*
D40*
X34000000Y49000000D03*
D40*
X26625000Y6125000D03*
D38*
X-250000Y47000000D03*
D39*
X24500000Y36750000D03*
D41*
X70500000Y12000000D03*
D37*
X43000000Y20500000D03*
D37*
X77504056Y25762304D03*
D40*
X48875000Y28494557D03*
D40*
X27000000Y23750000D03*
D38*
X48421127Y20244557D03*
D40*
X7250000Y45238045D03*
D38*
X1750000Y12000000D03*
D36*
X82925000Y27025000D03*
D38*
X74000000Y17750000D03*
D37*
X66750000Y44000000D03*
D38*
X73500000Y25750000D03*
D37*
X1750000Y15000000D03*
D39*
X72750000Y6000000D03*
D38*
X18625000Y3875000D03*
D38*
X56750000Y4250000D03*
D37*
X64500000Y20500000D03*
D37*
X76500000Y32000000D03*
D39*
X71500000Y15250000D03*
D38*
X37900000Y16000000D03*
D37*
X53500000Y39000000D03*
D40*
X37300000Y16000000D03*
D39*
X60500000Y6750000D03*
D38*
X37000000Y20500000D03*
D36*
X81175000Y27025000D03*
D37*
X46500000Y35250000D03*
D42*
X53250000Y17578873D03*
D38*
X48500000Y38250000D03*
D38*
X63198531Y17244041D03*
D41*
X21250000Y12750000D03*
D37*
X56619557Y9328873D03*
D38*
X43000000Y23000000D03*
D38*
X74000000Y16250000D03*
D40*
X63250000Y9250000D03*
D42*
X70750000Y6500000D03*
D39*
X47500000Y53750000D03*
D38*
X46313827Y15994557D03*
D38*
X56250000Y23000000D03*
D39*
X9750000Y48000000D03*
D39*
X54250000Y33500000D03*
D38*
X52750000Y22500000D03*
D39*
X3500000Y27500000D03*
D38*
X63000000Y26750000D03*
D38*
X50250000Y23000000D03*
D37*
X82000000Y39000000D03*
D37*
X35000000Y18250000D03*
D40*
X77828873Y37255443D03*
D37*
X82000000Y41500000D03*
D38*
X45500000Y38250000D03*
D38*
X26000000Y39750000D03*
D38*
X77850000Y22650000D03*
D40*
X54250000Y34000000D03*
D37*
X27375000Y3875000D03*
D38*
X76250000Y30500000D03*
D38*
X57500000Y11500000D03*
D42*
X72250000Y27000000D03*
D38*
X25500000Y11000000D03*
D38*
X71750000Y16500000D03*
D38*
X23500000Y26000000D03*
D37*
X51500000Y24000000D03*
D38*
X35750000Y25250000D03*
D38*
X53250000Y8578873D03*
D41*
X55000000Y21750000D03*
D38*
X29750000Y44000000D03*
D38*
X63198531Y17819041D03*
D38*
X56994557Y8578873D03*
D38*
X19500000Y52500000D03*
D39*
X60250000Y21500000D03*
D37*
X51750000Y46250000D03*
D41*
X60250000Y4625000D03*
D40*
X80750000Y41500000D03*
D38*
X26625000Y3875000D03*
D38*
X46500000Y40250000D03*
D38*
X67500000Y6750000D03*
D40*
X67250000Y6000000D03*
D38*
X78578873Y40630443D03*
D37*
X5250000Y41238045D03*
D40*
X51500000Y40000000D03*
D37*
X77828873Y38755443D03*
D38*
X85250000Y38250000D03*
D38*
X45500000Y21750000D03*
D38*
X51500000Y36000000D03*
D40*
X76250000Y9000000D03*
D41*
X3500000Y41250000D03*
D38*
X49000000Y42750000D03*
D39*
X21000000Y53000000D03*
D39*
X73500000Y18250000D03*
D38*
X1750000Y18750000D03*
D38*
X16500000Y52500000D03*
D38*
X45738827Y15994557D03*
D41*
X68250000Y14500000D03*
D38*
X1750000Y17250000D03*
D37*
X43750000Y21250000D03*
D39*
X35750000Y23000000D03*
D41*
X2500000Y41250000D03*
D38*
X80750000Y39000000D03*
D39*
X66750000Y33500000D03*
D40*
X49750000Y43250000D03*
D39*
X38500000Y16000000D03*
D41*
X72250000Y22550000D03*
D42*
X31000000Y51750000D03*
D39*
X55750000Y13250000D03*
D38*
X49500000Y39250000D03*
D37*
X51000000Y48000000D03*
D37*
X40000000Y18750000D03*
D40*
X64500000Y16750000D03*
D37*
X57500000Y21750000D03*
D39*
X73000000Y18750000D03*
D37*
X81500000Y23250000D03*
D39*
X9000000Y47000000D03*
D38*
X9500000Y40000000D03*
D38*
X50475000Y10700000D03*
D40*
X6500000Y24000000D03*
D37*
X26000000Y41250000D03*
D38*
X69775000Y5125000D03*
D39*
X73500000Y28250000D03*
D40*
X72125000Y40900000D03*
D42*
X28875000Y6125000D03*
D38*
X20000000Y15250000D03*
D39*
X48421127Y21744557D03*
D38*
X20750000Y13500000D03*
D40*
X8250000Y50000000D03*
D38*
X77269235Y25050011D03*
D38*
X63500000Y35750000D03*
D38*
X60000000Y45250000D03*
D38*
X7469668Y50530332D03*
D38*
X57383184Y46125000D03*
D38*
X74449990Y2750000D03*
D37*
X19000000Y53000000D03*
D38*
X13500000Y52750000D03*
D38*
X1750000Y15750000D03*
D40*
X72000000Y9250000D03*
D37*
X79750000Y18500000D03*
D38*
X63000000Y10250000D03*
D37*
X53994557Y8578873D03*
D37*
X73750000Y5000000D03*
D37*
X28125000Y6125000D03*
D37*
X48500000Y41250000D03*
D38*
X14750000Y45500000D03*
D40*
X53994557Y17578873D03*
D42*
X62480000Y6770000D03*
D38*
X2500000Y42250000D03*
D39*
X21750000Y24350030D03*
D38*
X54744557Y8578873D03*
D38*
X61051469Y12750000D03*
D37*
X77828873Y41755443D03*
D39*
X26000000Y36750000D03*
D38*
X52250000Y32000000D03*
D39*
X75500000Y12250000D03*
D41*
X45500000Y48000000D03*
D42*
X40000000Y21000000D03*
D41*
X21750000Y13500000D03*
D38*
X32500000Y47750000D03*
D41*
X18500000Y52500000D03*
D38*
X72250000Y18250000D03*
D37*
X55000000Y25500000D03*
D38*
X51500000Y41500000D03*
D40*
X56994557Y17578873D03*
D38*
X55494557Y17578873D03*
D37*
X69250000Y20000000D03*
D37*
X56250000Y31500000D03*
D38*
X37000000Y23000000D03*
D45*
X78025000Y27750000D03*
D38*
X11250000Y47750000D03*
D38*
X74750000Y28250000D03*
D42*
X56750000Y21250000D03*
D38*
X45238827Y28494557D03*
D38*
X56619557Y18328873D03*
D41*
X6250000Y40488045D03*
D41*
X70750000Y22000000D03*
D38*
X50475000Y10125000D03*
D38*
X61250000Y29250000D03*
D37*
X36500000Y52500000D03*
D38*
X45500000Y41250000D03*
D38*
X77050000Y22725000D03*
D42*
X44250000Y20500000D03*
D37*
X57000000Y26000000D03*
D40*
X23000000Y51250000D03*
D39*
X60000000Y38750000D03*
D41*
X21750000Y14500000D03*
D37*
X24500000Y38250000D03*
D40*
X44250000Y25301469D03*
D37*
X11000000Y44750000D03*
D38*
X57500000Y14000000D03*
D37*
X20125000Y3875000D03*
D38*
X80149999Y21000000D03*
D38*
X45500000Y39250000D03*
D40*
X52500000Y46250000D03*
D37*
X30000000Y29750000D03*
D38*
X32822488Y38750000D03*
D38*
X44250000Y23000000D03*
D39*
X50500000Y19125000D03*
D40*
X46000000Y43250000D03*
D37*
X82500000Y39750000D03*
D38*
X32500000Y33000000D03*
D37*
X12500000Y25750000D03*
D38*
X52750000Y21750000D03*
D38*
X-250000Y32250000D03*
D37*
X56250000Y35250000D03*
D38*
X9500000Y39250000D03*
D37*
X66750000Y28850000D03*
D38*
X72250000Y47500000D03*
D37*
X77828873Y41005443D03*
D41*
X39250000Y22125000D03*
D37*
X44750000Y21250000D03*
D38*
X24750000Y16750000D03*
D40*
X3500000Y26500000D03*
D43*
X82925000Y28475000D03*
D38*
X16250000Y27000000D03*
D41*
X32500000Y31250000D03*
D42*
X19375000Y6125000D03*
D38*
X72750000Y5000000D03*
D42*
X71500000Y18750000D03*
D41*
X77828873Y39505443D03*
D37*
X75750000Y46000000D03*
D37*
X71750000Y21621350D03*
D37*
X3750000Y36750000D03*
D40*
X72750000Y42500000D03*
D38*
X37500000Y49000000D03*
D37*
X39250000Y48500000D03*
D40*
X50250000Y22250000D03*
D38*
X1000000Y32250000D03*
D38*
X74000000Y18750000D03*
D37*
X59500000Y46500000D03*
D39*
X72250000Y23350000D03*
D38*
X55000000Y14000000D03*
D42*
X1750000Y11250000D03*
D40*
X56750000Y37500000D03*
D39*
X11000000Y3000000D03*
D38*
X1750000Y16500000D03*
D37*
X3000000Y41750000D03*
D42*
X28250000Y18500000D03*
D39*
X11000000Y49750000D03*
D38*
X48421127Y20994557D03*
D40*
X41500000Y50000000D03*
D38*
X47000000Y43250000D03*
D38*
X34000000Y26750000D03*
D38*
X42488827Y18244557D03*
D43*
X79750000Y28475000D03*
D38*
X12500000Y51250000D03*
D38*
X2500000Y27500000D03*
D38*
X45500000Y20500000D03*
D39*
X32822488Y34250000D03*
D38*
X66750000Y25850000D03*
D38*
X74000000Y26500000D03*
D42*
X11750000Y43250000D03*
D37*
X50475000Y11275000D03*
D38*
X75705546Y13668043D03*
D41*
X1750000Y12750000D03*
D37*
X28250000Y45500000D03*
D46*
X80425000Y27025000D03*
D38*
X15250000Y32750000D03*
D38*
X56244557Y17578873D03*
D40*
X45500000Y23000000D03*
D40*
X23000000Y41250000D03*
D38*
X32000000Y51750000D03*
D40*
X6250000Y25750000D03*
D38*
X70500000Y15250000D03*
D37*
X47671127Y22119557D03*
D38*
X20000000Y12750000D03*
D37*
X21500000Y41250000D03*
D38*
X74750000Y27000000D03*
D38*
X63000000Y11000000D03*
D41*
X17250000Y51000000D03*
D38*
X64500000Y19250000D03*
D38*
X11500000Y41500000D03*
D38*
X60900000Y25000000D03*
D38*
X44250000Y48250000D03*
D38*
X9750000Y47000000D03*
D42*
X67750000Y25000000D03*
D37*
X750000Y47500000D03*
D39*
X48421127Y22494557D03*
D38*
X9750000Y34250000D03*
D40*
X41750000Y38250000D03*
D38*
X29750000Y51250000D03*
D38*
X75250000Y22550000D03*
D39*
X30500000Y52500000D03*
D38*
X70000000Y24510022D03*
D38*
X67250000Y2570011D03*
D38*
X75607112Y6250000D03*
D38*
X52250000Y33500000D03*
D37*
X10000000Y3000000D03*
D38*
X55869557Y9328873D03*
D38*
X49000000Y35250000D03*
D37*
X23000000Y26500000D03*
D47*
X78000000Y27000000D03*
D37*
X46500000Y38250000D03*
D40*
X48421127Y19494557D03*
D39*
X28500000Y52250000D03*
D37*
X44750000Y22250000D03*
D38*
X75750000Y42500000D03*
D39*
X28250000Y32500000D03*
D41*
X50250000Y21500000D03*
D38*
X5000000Y27500000D03*
D38*
X29500000Y10000000D03*
D37*
X27750000Y29750000D03*
D38*
X48500000Y37250000D03*
D41*
X60000000Y28000000D03*
D37*
X70750000Y7625000D03*
D37*
X37000000Y21750000D03*
D38*
X72250000Y25750000D03*
D39*
X48500000Y39250000D03*
D38*
X64250000Y15500000D03*
D36*
X80425000Y28475000D03*
D39*
X56750000Y22250000D03*
D37*
X56250000Y16000000D03*
D40*
X23000000Y39750000D03*
D38*
X72350000Y12000000D03*
D38*
X76750000Y14250000D03*
D38*
X56250000Y14000000D03*
D40*
X40000000Y22500000D03*
D41*
X60000000Y31000000D03*
D37*
X11000000Y28750000D03*
D38*
X49500000Y38250000D03*
D38*
X57744557Y8578873D03*
D39*
X23000000Y36750000D03*
D39*
X20000000Y14000000D03*
D39*
X8250000Y35250000D03*
D39*
X6250000Y41238045D03*
D38*
X34000000Y17500000D03*
D40*
X52500000Y14250000D03*
D38*
X69250000Y24600000D03*
D38*
X1750000Y13500000D03*
D39*
X77780986Y23720777D03*
D39*
X72750000Y17500000D03*
D37*
X54000000Y37750000D03*
D38*
X70000008Y31250000D03*
D38*
X48500000Y40250000D03*
D38*
X36250000Y21250000D03*
D38*
X45988827Y28494557D03*
D38*
X28125000Y3875000D03*
D38*
X72782418Y20853148D03*
D38*
X56750000Y13250000D03*
D40*
X47671127Y21369557D03*
D38*
X60000000Y16000000D03*
D42*
X5250000Y26500000D03*
D47*
X81175000Y28475000D03*
D37*
X64500000Y18000000D03*
D38*
X73500000Y17000000D03*
D41*
X55000000Y12750000D03*
D37*
X11750000Y44250000D03*
D39*
X40000000Y24000000D03*
D38*
X28500000Y54000000D03*
D38*
X29000000Y51750000D03*
D40*
X55750000Y21250000D03*
D38*
X67679991Y16000000D03*
D41*
X60000000Y33000000D03*
D37*
X31500000Y52500000D03*
D38*
X20500000Y52500000D03*
D42*
X15000000Y41250000D03*
D40*
X66750000Y38000000D03*
D38*
X8500000Y30250000D03*
D38*
X77828873Y40255443D03*
D40*
X3500000Y42250000D03*
D38*
X6750000Y50000000D03*
D40*
X57383184Y45375000D03*
D38*
X85250000Y42250000D03*
D38*
X40000000Y19500000D03*
D37*
X32250000Y21000000D03*
D40*
X23500000Y27000000D03*
D38*
X51500000Y37500000D03*
D40*
X24500000Y39750000D03*
D37*
X48421127Y23994557D03*
D37*
X8500000Y29500000D03*
D40*
X1750000Y9000000D03*
D37*
X45500000Y37250000D03*
D38*
X52250000Y32750000D03*
D37*
X70750000Y9250000D03*
D37*
X46500000Y41250000D03*
D42*
X46500000Y39250000D03*
D38*
X22000000Y10250000D03*
D37*
X43500000Y38750000D03*
D37*
X51500000Y15000000D03*
D40*
X72250000Y15750000D03*
D40*
X57750000Y7000000D03*
D38*
X68750000Y9250000D03*
D38*
X53500000Y39750000D03*
D41*
X52750000Y23250000D03*
D39*
X47500000Y38250000D03*
D37*
X23000000Y25500000D03*
D37*
X46888827Y15994557D03*
D38*
X24500000Y41250000D03*
D40*
X39250000Y21375000D03*
D38*
X60250000Y5375000D03*
D37*
X80750000Y40250000D03*
D38*
X60000000Y30000000D03*
D37*
X73250000Y47500000D03*
D38*
X14500000Y29750000D03*
D38*
X19000000Y29750000D03*
D38*
X21500000Y38250000D03*
D41*
X32280001Y35000000D03*
D37*
X21250000Y15250000D03*
D40*
X13500000Y53750000D03*
D38*
X20875000Y3875000D03*
D40*
X50500000Y19700000D03*
D41*
X24500000Y51750000D03*
D38*
X66750000Y39500000D03*
D38*
X57500000Y38750000D03*
D37*
X56244557Y8578873D03*
D38*
X22500000Y14000000D03*
D37*
X1750000Y9750000D03*
D38*
X26000000Y38250000D03*
D38*
X34250000Y18250000D03*
D38*
X20875000Y6125000D03*
D40*
X74250000Y47500000D03*
D48*
X83425000Y28475000D03*
D38*
X32822488Y35750000D03*
D38*
X73000000Y27500000D03*
D38*
X6500000Y38738045D03*
D38*
X23500000Y51750000D03*
D37*
X2500000Y26500000D03*
D39*
X30750000Y39999989D03*
D38*
X11750000Y42250000D03*
D38*
X55500000Y28750000D03*
D38*
X3000000Y27000000D03*
D38*
X20125000Y6125000D03*
D37*
X17750000Y52500000D03*
D38*
X56250000Y20500000D03*
D38*
X52250000Y30500000D03*
D38*
X73500000Y15750000D03*
D38*
X70500000Y16250000D03*
D40*
X40000000Y23250000D03*
D40*
X48000000Y48500000D03*
D38*
X57250000Y44250000D03*
D38*
X60000000Y22500000D03*
D38*
X1750000Y18000000D03*
D38*
X22500000Y48000000D03*
D37*
X56250000Y26000000D03*
D37*
X-1000031Y19000000D03*
D38*
X25000000Y51250000D03*
D38*
X7250000Y30500000D03*
D39*
X22500000Y12750000D03*
D38*
X57500000Y20500000D03*
D38*
X9500000Y40750000D03*
D40*
X11250000Y46750000D03*
D37*
X35250000Y21250000D03*
D38*
X57250000Y43000000D03*
D41*
X11750000Y34500000D03*
D37*
X47500000Y39250000D03*
D39*
X6250000Y39738045D03*
D38*
X6250000Y26500000D03*
D38*
X19375000Y3875000D03*
D37*
X34869654Y52500000D03*
D39*
X80000000Y46000000D03*
D39*
X67750000Y9250000D03*
D38*
X26000000Y14750000D03*
D38*
X83250000Y41500000D03*
D38*
X60000000Y24500000D03*
D38*
X32822488Y46250000D03*
D38*
X28000000Y51750000D03*
D41*
X68750000Y21850000D03*
D39*
X43963343Y18268328D03*
D38*
X48421127Y23244557D03*
D38*
X55750000Y22250000D03*
D37*
X11000000Y42750000D03*
D37*
X57000000Y40000000D03*
D37*
X74000000Y27500000D03*
D41*
X72250000Y17000000D03*
D43*
X85175000Y27025000D03*
D38*
X69750000Y9250000D03*
D38*
X68469668Y24380332D03*
D38*
X18625000Y6125000D03*
D38*
X82500000Y40750000D03*
D41*
X79350000Y21150000D03*
D37*
X76250000Y15850000D03*
D38*
X32822488Y45250000D03*
D42*
X21500000Y36750000D03*
D38*
X69775000Y5875000D03*
D37*
X71000000Y18250000D03*
D37*
X74750000Y20750000D03*
D40*
X77235358Y24235358D03*
D37*
X56750000Y34750000D03*
D38*
X26000000Y22750000D03*
D38*
X64250000Y9250000D03*
D38*
X55869557Y18328873D03*
D37*
X47500000Y41250000D03*
D37*
X20750000Y14500000D03*
D37*
X23000000Y38250000D03*
D38*
X15000000Y47750000D03*
D40*
X68932925Y2570009D03*
D37*
X58750000Y4250000D03*
D38*
X78500000Y14750000D03*
D38*
X10500000Y31250000D03*
D37*
X40000000Y20250000D03*
D37*
X57000000Y31000000D03*
D38*
X83250000Y40250000D03*
D37*
X63250000Y20500000D03*
D38*
X20000000Y53000000D03*
M02*
