%FSLAX46Y46*%
%MOMM*%
%ADD13C,0.200000*%
%AMPS21*
1,1,1.326200,0.000000,0.000000*
%
%ADD21PS21*%
%AMPS25*
1,1,2.276200,0.000000,0.000000*
%
%ADD25PS25*%
%AMPS103*
1,1,1.776200,0.000000,0.000000*
%
%ADD103PS103*%
%AMPS101*
1,1,1.776200,0.000000,0.000000*
%
%ADD101PS101*%
%AMPS14*
1,1,2.276200,0.000000,0.000000*
%
%ADD14PS14*%
%AMPS102*
1,1,1.776200,0.000000,0.000000*
%
%ADD102PS102*%
%AMPS22*
1,1,1.326200,0.000000,0.000000*
%
%ADD22PS22*%
%AMPS99*
1,1,1.776200,0.000000,0.000000*
%
%ADD99PS99*%
%AMPS20*
1,1,1.326200,0.000000,0.000000*
%
%ADD20PS20*%
%AMPS100*
1,1,1.776200,0.000000,0.000000*
%
%ADD100PS100*%
%AMPS84*
21,1,1.476200,1.276200,0.000000,0.000000,270.000000*
%
%ADD84PS84*%
%AMPS31*
21,1,1.076200,2.576200,0.000000,0.000000,0.000000*
%
%ADD31PS31*%
%AMPS73*
21,1,1.076200,2.576200,0.000000,0.000000,180.000000*
%
%ADD73PS73*%
%AMPS67*
21,1,1.076200,2.576200,0.000000,0.000000,270.000000*
%
%ADD67PS67*%
%AMPS47*
21,1,1.056200,3.476200,0.000000,0.000000,0.000000*
%
%ADD47PS47*%
%AMPS69*
21,1,2.576200,1.876200,0.000000,0.000000,180.000000*
%
%ADD69PS69*%
%AMPS83*
21,1,0.586200,0.476200,0.000000,0.000000,180.000000*
%
%ADD83PS83*%
%AMPS72*
21,1,0.966200,1.676200,0.000000,0.000000,0.000000*
%
%ADD72PS72*%
%AMPS71*
21,1,0.966200,1.676200,0.000000,0.000000,180.000000*
%
%ADD71PS71*%
%AMPS86*
21,1,0.326200,1.526200,0.000000,0.000000,0.000000*
%
%ADD86PS86*%
%AMPS87*
21,1,0.326200,1.526200,0.000000,0.000000,90.000000*
%
%ADD87PS87*%
%AMPS89*
21,1,0.326200,1.526200,0.000000,0.000000,180.000000*
%
%ADD89PS89*%
%AMPS88*
21,1,0.326200,1.526200,0.000000,0.000000,270.000000*
%
%ADD88PS88*%
%AMPS74*
21,1,0.701200,0.926200,0.000000,0.000000,0.000000*
%
%ADD74PS74*%
%AMPS85*
21,1,0.701200,0.926200,0.000000,0.000000,180.000000*
%
%ADD85PS85*%
%AMPS95*
21,1,0.356200,0.762200,0.000000,0.000000,0.000000*
%
%ADD95PS95*%
%AMPS92*
21,1,0.356200,0.762200,0.000000,0.000000,90.000000*
%
%ADD92PS92*%
%AMPS94*
21,1,0.356200,0.762200,0.000000,0.000000,180.000000*
%
%ADD94PS94*%
%AMPS93*
21,1,0.356200,0.762200,0.000000,0.000000,270.000000*
%
%ADD93PS93*%
%AMPS65*
21,1,0.436200,0.786200,0.000000,0.000000,270.000000*
%
%ADD65PS65*%
%AMPS91*
21,1,0.676200,0.576200,0.000000,0.000000,45.000000*
%
%ADD91PS91*%
%AMPS56*
21,1,0.676200,0.576200,0.000000,0.000000,90.000000*
%
%ADD56PS56*%
%AMPS68*
21,1,0.676200,0.576200,0.000000,0.000000,180.000000*
%
%ADD68PS68*%
%AMPS82*
21,1,0.676200,0.576200,0.000000,0.000000,225.000000*
%
%ADD82PS82*%
%AMPS78*
21,1,0.676200,0.576200,0.000000,0.000000,270.000000*
%
%ADD78PS78*%
%AMPS32*
21,1,0.576200,0.976200,0.000000,0.000000,0.000000*
%
%ADD32PS32*%
%AMPS24*
21,1,0.576200,0.976200,0.000000,0.000000,90.000000*
%
%ADD24PS24*%
%AMPS23*
21,1,0.576200,0.976200,0.000000,0.000000,180.000000*
%
%ADD23PS23*%
%AMPS30*
21,1,0.576200,0.976200,0.000000,0.000000,270.000000*
%
%ADD30PS30*%
%AMPS81*
21,1,2.376200,0.576200,0.000000,0.000000,90.000000*
%
%ADD81PS81*%
%AMPS62*
21,1,0.436200,1.076200,0.000000,0.000000,270.000000*
%
%ADD62PS62*%
%AMPS52*
21,1,1.826200,1.826200,0.000000,0.000000,90.000000*
%
%ADD52PS52*%
%AMPS26*
21,1,0.876200,0.826200,0.000000,0.000000,0.000000*
%
%ADD26PS26*%
%AMPS40*
21,1,0.876200,0.826200,0.000000,0.000000,90.000000*
%
%ADD40PS40*%
%AMPS33*
21,1,0.876200,0.826200,0.000000,0.000000,180.000000*
%
%ADD33PS33*%
%AMPS39*
21,1,0.876200,0.826200,0.000000,0.000000,270.000000*
%
%ADD39PS39*%
%AMPS63*
21,1,0.436200,1.141200,0.000000,0.000000,270.000000*
%
%ADD63PS63*%
%AMPS64*
21,1,1.856200,0.486200,0.000000,0.000000,270.000000*
%
%ADD64PS64*%
%AMPS76*
21,1,0.676200,1.176200,0.000000,0.000000,0.000000*
%
%ADD76PS76*%
%AMPS75*
21,1,0.676200,1.176200,0.000000,0.000000,180.000000*
%
%ADD75PS75*%
%AMPS34*
21,1,1.076200,1.326200,0.000000,0.000000,0.000000*
%
%ADD34PS34*%
%AMPS98*
21,1,1.076200,1.326200,0.000000,0.000000,180.000000*
%
%ADD98PS98*%
%AMPS46*
21,1,1.076200,1.326200,0.000000,0.000000,270.000000*
%
%ADD46PS46*%
%AMPS27*
21,1,0.876200,0.876200,0.000000,0.000000,0.000000*
%
%ADD27PS27*%
%AMPS53*
21,1,0.876200,0.876200,0.000000,0.000000,180.000000*
%
%ADD53PS53*%
%AMPS70*
21,1,0.876200,0.876200,0.000000,0.000000,270.000000*
%
%ADD70PS70*%
%AMPS80*
21,1,2.576200,2.076200,0.000000,0.000000,90.000000*
%
%ADD80PS80*%
%AMPS35*
21,1,0.836200,1.476200,0.000000,0.000000,90.000000*
%
%ADD35PS35*%
%AMPS36*
21,1,0.836200,1.476200,0.000000,0.000000,270.000000*
%
%ADD36PS36*%
%AMPS29*
21,1,0.476200,0.676200,0.000000,0.000000,0.000000*
%
%ADD29PS29*%
%AMPS97*
21,1,0.476200,0.676200,0.000000,0.000000,135.000000*
%
%ADD97PS97*%
%AMPS28*
21,1,0.476200,0.676200,0.000000,0.000000,180.000000*
%
%ADD28PS28*%
%AMPS113*
1,1,0.480000,0.000000,0.000000*
%
%ADD113PS113*%
%AMPS121*
1,1,0.434000,0.000000,0.000000*
%
%ADD121PS121*%
%AMPS117*
1,1,0.434000,0.000000,0.000000*
%
%ADD117PS117*%
%AMPS112*
1,1,0.480000,0.000000,0.000000*
%
%ADD112PS112*%
%AMPS119*
1,1,0.434000,0.000000,0.000000*
%
%ADD119PS119*%
%AMPS118*
1,1,0.440000,0.000000,0.000000*
%
%ADD118PS118*%
%AMPS109*
1,1,0.434000,0.000000,0.000000*
%
%ADD109PS109*%
%AMPS114*
1,1,0.480000,0.000000,0.000000*
%
%ADD114PS114*%
%AMPS116*
1,1,0.434000,0.000000,0.000000*
%
%ADD116PS116*%
%AMPS110*
1,1,0.480000,0.000000,0.000000*
%
%ADD110PS110*%
%AMPS115*
1,1,0.480000,0.000000,0.000000*
%
%ADD115PS115*%
%AMPS120*
1,1,0.434000,0.000000,0.000000*
%
%ADD120PS120*%
%AMPS111*
1,1,0.480000,0.000000,0.000000*
%
%ADD111PS111*%
%AMPS61*
21,1,4.576200,4.576200,0.000000,0.000000,90.000000*
%
%ADD61PS61*%
%AMPS79*
1,1,1.100000,0.000000,0.000000*
%
%ADD79PS79*%
%AMPS45*
1,1,0.176200,0.800000,0.800000*
1,1,0.176200,-0.800000,-0.800000*
1,1,0.176200,0.800000,-0.800000*
1,1,0.176200,-0.800000,0.800000*
21,1,1.776200,1.600000,0.000000,0.000000,270.000000*
21,1,1.600000,1.776200,0.000000,0.000000,270.000000*
%
%ADD45PS45*%
%AMPS43*
1,1,0.176200,-0.075000,0.250000*
1,1,0.176200,0.075000,-0.250000*
1,1,0.176200,0.075000,0.250000*
1,1,0.176200,-0.075000,-0.250000*
21,1,0.326200,0.500000,0.000000,0.000000,0.000000*
21,1,0.150000,0.676200,0.000000,0.000000,0.000000*
%
%ADD43PS43*%
%AMPS42*
1,1,0.176200,-0.250000,-0.075000*
1,1,0.176200,0.250000,0.075000*
1,1,0.176200,-0.250000,0.075000*
1,1,0.176200,0.250000,-0.075000*
21,1,0.326200,0.500000,0.000000,0.000000,90.000000*
21,1,0.150000,0.676200,0.000000,0.000000,90.000000*
%
%ADD42PS42*%
%AMPS41*
1,1,0.176200,0.075000,-0.250000*
1,1,0.176200,-0.075000,0.250000*
1,1,0.176200,-0.075000,-0.250000*
1,1,0.176200,0.075000,0.250000*
21,1,0.326200,0.500000,0.000000,0.000000,180.000000*
21,1,0.150000,0.676200,0.000000,0.000000,180.000000*
%
%ADD41PS41*%
%AMPS44*
1,1,0.176200,0.250000,0.075000*
1,1,0.176200,-0.250000,-0.075000*
1,1,0.176200,0.250000,-0.075000*
1,1,0.176200,-0.250000,0.075000*
21,1,0.326200,0.500000,0.000000,0.000000,270.000000*
21,1,0.150000,0.676200,0.000000,0.000000,270.000000*
%
%ADD44PS44*%
%AMPS55*
1,1,0.176200,-0.250000,0.500000*
1,1,0.176200,0.250000,-0.500000*
1,1,0.176200,0.250000,0.500000*
1,1,0.176200,-0.250000,-0.500000*
21,1,0.676200,1.000000,0.000000,0.000000,0.000000*
21,1,0.500000,1.176200,0.000000,0.000000,0.000000*
%
%ADD55PS55*%
%AMPS38*
1,1,0.176200,-0.500000,-0.250000*
1,1,0.176200,0.500000,0.250000*
1,1,0.176200,-0.500000,0.250000*
1,1,0.176200,0.500000,-0.250000*
21,1,0.676200,1.000000,0.000000,0.000000,90.000000*
21,1,0.500000,1.176200,0.000000,0.000000,90.000000*
%
%ADD38PS38*%
%AMPS54*
1,1,0.176200,0.250000,-0.500000*
1,1,0.176200,-0.250000,0.500000*
1,1,0.176200,-0.250000,-0.500000*
1,1,0.176200,0.250000,0.500000*
21,1,0.676200,1.000000,0.000000,0.000000,180.000000*
21,1,0.500000,1.176200,0.000000,0.000000,180.000000*
%
%ADD54PS54*%
%AMPS37*
1,1,0.176200,0.500000,0.250000*
1,1,0.176200,-0.500000,-0.250000*
1,1,0.176200,0.500000,-0.250000*
1,1,0.176200,-0.500000,0.250000*
21,1,0.676200,1.000000,0.000000,0.000000,270.000000*
21,1,0.500000,1.176200,0.000000,0.000000,270.000000*
%
%ADD37PS37*%
%AMPS12*
1,1,6.600000,0.000000,0.000000*
%
%ADD12PS12*%
%AMPS10*
1,1,6.600000,0.000000,0.000000*
%
%ADD10PS10*%
%AMPS11*
1,1,6.600000,0.000000,0.000000*
%
%ADD11PS11*%
%AMPS90*
21,1,5.776200,5.776200,0.000000,0.000000,90.000000*
%
%ADD90PS90*%
%AMPS108*
21,1,3.300000,3.300000,0.000000,0.000000,180.000000*
%
%ADD108PS108*%
%AMPS96*
21,1,6.076200,6.076200,0.000000,0.000000,270.000000*
%
%ADD96PS96*%
%AMPS104*
1,1,0.356200,0.000000,0.210000*
21,1,0.356200,0.598100,0.000000,-0.089050,0.000000*
%
%ADD104PS104*%
%AMPS106*
1,1,0.356200,-0.210000,0.000000*
21,1,0.356200,0.598100,0.000000,-0.089050,90.000000*
%
%ADD106PS106*%
%AMPS105*
1,1,0.356200,0.000000,-0.210000*
21,1,0.356200,0.598100,0.000000,-0.089050,180.000000*
%
%ADD105PS105*%
%AMPS107*
1,1,0.356200,0.210000,0.000000*
21,1,0.356200,0.598100,0.000000,-0.089050,270.000000*
%
%ADD107PS107*%
%AMPS48*
1,1,0.376200,0.000000,0.250000*
21,1,0.376200,0.688100,0.000000,-0.094050,0.000000*
%
%ADD48PS48*%
%AMPS51*
1,1,0.376200,-0.250000,0.000000*
21,1,0.376200,0.688100,0.000000,-0.094050,90.000000*
%
%ADD51PS51*%
%AMPS50*
1,1,0.376200,0.000000,-0.250000*
21,1,0.376200,0.688100,0.000000,-0.094050,180.000000*
%
%ADD50PS50*%
%AMPS49*
1,1,0.376200,0.250000,0.000000*
21,1,0.376200,0.688100,0.000000,-0.094050,270.000000*
%
%ADD49PS49*%
%AMPS17*
1,1,0.426200,0.000000,0.325000*
21,1,0.426200,0.863100,0.000000,-0.106550,0.000000*
%
%ADD17PS17*%
%AMPS18*
1,1,0.426200,-0.325000,0.000000*
21,1,0.426200,0.863100,0.000000,-0.106550,90.000000*
%
%ADD18PS18*%
%AMPS16*
1,1,0.426200,0.000000,-0.325000*
21,1,0.426200,0.863100,0.000000,-0.106550,180.000000*
%
%ADD16PS16*%
%AMPS15*
1,1,0.426200,0.325000,0.000000*
21,1,0.426200,0.863100,0.000000,-0.106550,270.000000*
%
%ADD15PS15*%
%AMPS57*
1,1,0.356200,0.000000,0.285000*
21,1,0.356200,0.748100,0.000000,-0.089050,0.000000*
%
%ADD57PS57*%
%AMPS58*
1,1,0.356200,-0.285000,0.000000*
21,1,0.356200,0.748100,0.000000,-0.089050,90.000000*
%
%ADD58PS58*%
%AMPS59*
1,1,0.356200,0.000000,-0.285000*
21,1,0.356200,0.748100,0.000000,-0.089050,180.000000*
%
%ADD59PS59*%
%AMPS60*
1,1,0.356200,0.285000,0.000000*
21,1,0.356200,0.748100,0.000000,-0.089050,270.000000*
%
%ADD60PS60*%
%AMPS19*
21,1,3.226200,3.226200,0.000000,0.000000,90.000000*
%
%ADD19PS19*%
%AMPS77*
21,1,3.226200,3.226200,0.000000,0.000000,180.000000*
%
%ADD77PS77*%
%AMPS66*
21,1,3.226200,3.226200,0.000000,0.000000,270.000000*
%
%ADD66PS66*%
G01*
%LPD*%
G36*
X52157925Y532815D02*
X52134016Y568443D01*
X52125110Y612510D01*
X52125110Y3575301D01*
X52134016Y3618899D01*
X52157925Y3654996D01*
X52193554Y3678905D01*
X52237620Y3687812D01*
X52950190Y3687812D01*
X52994257Y3678905D01*
X53029886Y3654996D01*
X53053795Y3618899D01*
X53062701Y3575301D01*
X53062701Y1550102D01*
X53071609Y1506036D01*
X53095518Y1470407D01*
X53131146Y1446498D01*
X53175213Y1437591D01*
X53700264Y1437591D01*
X53744331Y1428684D01*
X53779959Y1404775D01*
X53803868Y1368678D01*
X53812775Y1325080D01*
X53812775Y612510D01*
X53803868Y568443D01*
X53779959Y532815D01*
X53744331Y508906D01*
X53700264Y500000D01*
X52237620Y500000D01*
X52193554Y508906D01*
X52157925Y532815D01*
D02*
G37*
%LPD*%
G36*
X62370000Y50749000D02*
X62172000Y50778000D01*
X62000000Y50841000D01*
X61896000Y50915000D01*
X61804000Y51014000D01*
X61745000Y51114000D01*
X61704000Y51235000D01*
X61669000Y51439000D01*
X61674000Y51700000D01*
X61713000Y51906000D01*
X61782000Y52120000D01*
X61871000Y52283000D01*
X61978000Y52431000D01*
X62169000Y52596000D01*
X62328000Y52675000D01*
X62491000Y52724000D01*
X62675000Y52744000D01*
X63527000Y52744000D01*
X64380000Y52744000D01*
X64310000Y52389000D01*
X64241000Y52034000D01*
X63574000Y52034000D01*
X62907000Y52034000D01*
X62780000Y52033000D01*
X62668000Y52018000D01*
X62592000Y51977000D01*
X62538000Y51918000D01*
X62504000Y51847000D01*
X62493000Y51757000D01*
X62517000Y51631000D01*
X62572000Y51556000D01*
X62643000Y51516000D01*
X62756000Y51496000D01*
X62986000Y51489000D01*
X63215000Y51482000D01*
X63360000Y51472000D01*
X63516000Y51438000D01*
X63671000Y51375000D01*
X63810000Y51273000D01*
X63902000Y51165000D01*
X63976000Y51024000D01*
X64029000Y50837000D01*
X64049000Y50591000D01*
X64034000Y50379000D01*
X63988000Y50191000D01*
X63915000Y50017000D01*
X63819000Y49872000D01*
X63707000Y49749000D01*
X63585000Y49647000D01*
X63306000Y49509000D01*
X63000000Y49465000D01*
X61553000Y49465000D01*
X60105000Y49465000D01*
X59879000Y50322000D01*
X59653000Y51180000D01*
X59673000Y51251000D01*
X59693000Y51323000D01*
X60020000Y51323000D01*
X60348000Y51323000D01*
X60571000Y51341000D01*
X60688000Y51384000D01*
X60734000Y51424000D01*
X60783000Y51497000D01*
X60823000Y51592000D01*
X60850000Y51691000D01*
X60863000Y51780000D01*
X60861000Y51860000D01*
X60837000Y51933000D01*
X60798000Y51982000D01*
X60752000Y52015000D01*
X60671000Y52034000D01*
X60254000Y52034000D01*
X59836000Y52034000D01*
X59498000Y50750000D01*
X59159000Y49465000D01*
X58303000Y49465000D01*
X58637000Y50750000D01*
X58972000Y52034000D01*
X58780000Y52034000D01*
X58588000Y52034000D01*
X58250000Y50750000D01*
X57911000Y49465000D01*
X56973000Y49465000D01*
X57409000Y51105000D01*
X57846000Y52744000D01*
X57870000Y52744000D01*
X57895000Y52744000D01*
X57895000Y51949000D01*
X57895000Y51153000D01*
X58290000Y51949000D01*
X58686000Y52744000D01*
X59763000Y52744000D01*
X60841000Y52744000D01*
X61123000Y52710000D01*
X61354000Y52601000D01*
X61470000Y52490000D01*
X61563000Y52311000D01*
X61615000Y52105000D01*
X61623000Y51897000D01*
X61597000Y51640000D01*
X61544000Y51414000D01*
X61449000Y51201000D01*
X61351000Y51058000D01*
X61202000Y50921000D01*
X61037000Y50823000D01*
X60706000Y50711000D01*
X60546000Y50680000D01*
X60611000Y50456000D01*
X60676000Y50232000D01*
X61797000Y50232000D01*
X62917000Y50232000D01*
X62989000Y50233000D01*
X63068000Y50248000D01*
X63116000Y50279000D01*
X63156000Y50325000D01*
X63182000Y50401000D01*
X63190000Y50493000D01*
X63181000Y50564000D01*
X63154000Y50637000D01*
X63094000Y50697000D01*
X63031000Y50722000D01*
X62969000Y50734000D01*
X62883000Y50741000D01*
X62711000Y50741000D01*
X62370000Y50749000D01*
D02*
G37*
%LPD*%
G36*
X59430000Y53480000D02*
X59271000Y53901000D01*
X59112000Y54322000D01*
X59234000Y54831000D01*
X59304000Y55229000D01*
X59315000Y55401000D01*
X59300000Y55531000D01*
X59161000Y55495000D01*
X59014000Y55433000D01*
X58828000Y55306000D01*
X58679000Y55139000D01*
X58509000Y54744000D01*
X58376000Y54322000D01*
X57960000Y53930000D01*
X57543000Y53538000D01*
X57468000Y53443000D01*
X57414000Y53314000D01*
X57378000Y53192000D01*
X57354000Y53116000D01*
X57356000Y53078000D01*
X57387000Y53056000D01*
X57735000Y53056000D01*
X58082000Y53056000D01*
X58082000Y52467000D01*
X58082000Y51879000D01*
X58372000Y52468000D01*
X58662000Y53056000D01*
X59005000Y53056000D01*
X59348000Y53056000D01*
X59389000Y53268000D01*
X59430000Y53480000D01*
D02*
G37*
%LPD*%
G36*
X51904775Y532815D02*
X51869147Y508906D01*
X51825080Y500000D01*
X51112510Y500000D01*
X51068443Y508906D01*
X51032815Y532815D01*
X51008906Y568443D01*
X51000000Y612510D01*
X51000000Y2450190D01*
X51008906Y2493788D01*
X51032815Y2529886D01*
X51068443Y2553795D01*
X51112510Y2562701D01*
X51290653Y2562701D01*
X51468795Y2562701D01*
X51646938Y2562701D01*
X51825080Y2562701D01*
X51869147Y2553795D01*
X51904775Y2529886D01*
X51928684Y2493788D01*
X51937591Y2450190D01*
X51937591Y612510D01*
X51928684Y568443D01*
X51904775Y532815D01*
D02*
G37*
%LPD*%
G36*
X80500000Y26750000D02*
X79500000Y26750000D01*
X79500000Y28750000D01*
X80500000Y28750000D01*
X80500000Y26750000D01*
D02*
G37*
%LPD*%
G36*
X51645063Y3516233D02*
X51558335Y3542016D01*
X51468795Y3550455D01*
X51379255Y3542016D01*
X51292528Y3516233D01*
X51210957Y3473104D01*
X51137356Y3413098D01*
X51077351Y3339496D01*
X51034221Y3257926D01*
X51008437Y3171199D01*
X51000000Y3081658D01*
X51008437Y2992119D01*
X51034221Y2905392D01*
X51077351Y2823821D01*
X51137356Y2750220D01*
X51800234Y2750220D01*
X51860239Y2823821D01*
X51903369Y2905392D01*
X51929153Y2992119D01*
X51937591Y3081658D01*
X51929153Y3171199D01*
X51903369Y3257926D01*
X51860239Y3339496D01*
X51800234Y3413098D01*
X51726633Y3473104D01*
X51645063Y3516233D01*
D02*
G37*
%LPD*%
G36*
X74325000Y20575000D02*
X73175000Y20575000D01*
X73175000Y21100000D01*
X74325000Y21100000D01*
X74325000Y20575000D01*
D02*
G37*
%LPD*%
G36*
X54928978Y568443D02*
X54937886Y612510D01*
X54937886Y3575301D01*
X54928978Y3618899D01*
X54905070Y3654996D01*
X54869441Y3678905D01*
X54825374Y3687812D01*
X54112804Y3687812D01*
X54068738Y3678905D01*
X54033109Y3654996D01*
X54009201Y3618899D01*
X54000293Y3575301D01*
X54000293Y2675213D01*
X53991386Y2631146D01*
X53967478Y2595518D01*
X53931849Y2571609D01*
X53887783Y2562701D01*
X53362731Y2562701D01*
X53318664Y2553795D01*
X53283036Y2529886D01*
X53259127Y2493788D01*
X53250220Y2450190D01*
X53250220Y1737620D01*
X53259127Y1693554D01*
X53283036Y1657925D01*
X53318664Y1634016D01*
X53362731Y1625110D01*
X53493994Y1625110D01*
X53625256Y1625110D01*
X53756520Y1625110D01*
X53887783Y1625110D01*
X53931849Y1616202D01*
X53967478Y1592294D01*
X53991386Y1556196D01*
X54000293Y1512598D01*
X54000293Y612510D01*
X54009201Y568443D01*
X54033109Y532815D01*
X54068738Y508906D01*
X54112804Y500000D01*
X54825374Y500000D01*
X54869441Y508906D01*
X54905070Y532815D01*
X54928978Y568443D01*
D02*
G37*
%LPD*%
G36*
X80460000Y23890000D02*
X80460000Y31610000D01*
X86000000Y31610000D01*
X86000000Y27950000D01*
X84900000Y27950000D01*
X84900000Y28150000D01*
X84600000Y28150000D01*
X84600000Y27350000D01*
X84900000Y27350000D01*
X84900000Y27550000D01*
X86000000Y27550000D01*
X86000000Y23890000D01*
X80460000Y23890000D01*
D02*
G37*
%LPD*%
G36*
X76655000Y26760000D02*
X76655000Y28740000D01*
X79395000Y28740000D01*
X79395000Y26760000D01*
X76655000Y26760000D01*
D02*
G37*
G01*
%LPD*%
D13*
X65571428Y49535716D02*
X65571428Y51035716D01*
D13*
X66071428Y51035716D02*
X65071428Y51035716D01*
D13*
X66428572Y49535716D02*
X66428572Y50535716D01*
D13*
X66500000Y50321428D02*
X66428572Y50107144D01*
D13*
X66642856Y50464284D02*
X66500000Y50321428D01*
D13*
X66785716Y50535716D02*
X66642856Y50464284D01*
D13*
X67000000Y50535716D02*
X66785716Y50535716D01*
D13*
X68142856Y49535716D02*
X68142856Y50535716D01*
D13*
X68000000Y50464284D02*
X68142856Y50321428D01*
D13*
X67857144Y50535716D02*
X68000000Y50464284D01*
D13*
X67642856Y50535716D02*
X67857144Y50535716D01*
D13*
X67500000Y50464284D02*
X67642856Y50535716D01*
D13*
X67357144Y50321428D02*
X67500000Y50464284D01*
D13*
X67285712Y50107144D02*
X67357144Y50321428D01*
D13*
X67285712Y49964284D02*
X67285712Y50107144D01*
D13*
X67357144Y49750000D02*
X67285712Y49964284D01*
D13*
X67500000Y49607144D02*
X67357144Y49750000D01*
D13*
X67642856Y49535716D02*
X67500000Y49607144D01*
D13*
X67857144Y49535716D02*
X67642856Y49535716D01*
D13*
X68000000Y49607144D02*
X67857144Y49535716D01*
D13*
X68142856Y49750000D02*
X68000000Y49607144D01*
D13*
X68714288Y49535716D02*
X68714288Y50535716D01*
D13*
X68928568Y50464284D02*
X68714288Y50250000D01*
D13*
X69071432Y50535716D02*
X68928568Y50464284D01*
D13*
X69285712Y50535716D02*
X69071432Y50535716D01*
D13*
X69428568Y50464284D02*
X69285712Y50535716D01*
D13*
X69500000Y50250000D02*
X69428568Y50464284D01*
D13*
X69500000Y49535716D02*
X69500000Y50250000D01*
D13*
X70714288Y50464284D02*
X70785712Y50321428D01*
D13*
X70500000Y50535716D02*
X70714288Y50464284D01*
D13*
X70285712Y50535716D02*
X70500000Y50535716D01*
D13*
X70071432Y50464284D02*
X70285712Y50535716D01*
D13*
X70000000Y50321428D02*
X70071432Y50464284D01*
D13*
X70071432Y50178572D02*
X70000000Y50321428D01*
D13*
X70214288Y50107144D02*
X70071432Y50178572D01*
D13*
X70571432Y50035716D02*
X70214288Y50107144D01*
D13*
X70714288Y49964284D02*
X70571432Y50035716D01*
D13*
X70785712Y49821428D02*
X70714288Y49964284D01*
D13*
X70785712Y49750000D02*
X70785712Y49821428D01*
D13*
X70714288Y49607144D02*
X70785712Y49750000D01*
D13*
X70500000Y49535716D02*
X70714288Y49607144D01*
D13*
X70285712Y49535716D02*
X70500000Y49535716D01*
D13*
X70071432Y49607144D02*
X70285712Y49535716D01*
D13*
X70000000Y49750000D02*
X70071432Y49607144D01*
D13*
X71285712Y49535716D02*
X71285712Y50535716D01*
D13*
X71500000Y50464284D02*
X71285712Y50250000D01*
D13*
X71642856Y50535716D02*
X71500000Y50464284D01*
D13*
X71857144Y50535716D02*
X71642856Y50535716D01*
D13*
X72000000Y50464284D02*
X71857144Y50535716D01*
D13*
X72071432Y50250000D02*
X72000000Y50464284D01*
D13*
X72071432Y49535716D02*
X72071432Y50250000D01*
D13*
X72285712Y50464284D02*
X72071432Y50250000D01*
D13*
X72428568Y50535716D02*
X72285712Y50464284D01*
D13*
X72642856Y50535716D02*
X72428568Y50535716D01*
D13*
X72785712Y50464284D02*
X72642856Y50535716D01*
D13*
X72857144Y50250000D02*
X72785712Y50464284D01*
D13*
X72857144Y49535716D02*
X72857144Y50250000D01*
D13*
X73428568Y50964284D02*
X73357144Y51035716D01*
D13*
X73500000Y51035716D02*
X73428568Y50964284D01*
D13*
X73428568Y51107144D02*
X73500000Y51035716D01*
D13*
X73357144Y51035716D02*
X73428568Y51107144D01*
D13*
X73428568Y49535716D02*
X73428568Y50535716D01*
D13*
X74071424Y49821428D02*
X74071424Y51035716D01*
D13*
X74142856Y49607144D02*
X74071424Y49821428D01*
D13*
X74285712Y49535716D02*
X74142856Y49607144D01*
D13*
X74428568Y49535716D02*
X74285712Y49535716D01*
D13*
X74357144Y50535716D02*
X73857144Y50535716D01*
D13*
X74928568Y49821428D02*
X74928568Y51035716D01*
D13*
X75000000Y49607144D02*
X74928568Y49821428D01*
D13*
X75142856Y49535716D02*
X75000000Y49607144D01*
D13*
X75285712Y49535716D02*
X75142856Y49535716D01*
D13*
X75214288Y50535716D02*
X74714288Y50535716D01*
D13*
X76500000Y50107144D02*
X75642856Y50107144D01*
D13*
X76500000Y50250000D02*
X76500000Y50107144D01*
D13*
X76428568Y50392856D02*
X76500000Y50250000D01*
D13*
X76357144Y50464284D02*
X76428568Y50392856D01*
D13*
X76214288Y50535716D02*
X76357144Y50464284D01*
D13*
X76000000Y50535716D02*
X76214288Y50535716D01*
D13*
X75857144Y50464284D02*
X76000000Y50535716D01*
D13*
X75714288Y50321428D02*
X75857144Y50464284D01*
D13*
X75642856Y50107144D02*
X75714288Y50321428D01*
D13*
X75642856Y49964284D02*
X75642856Y50107144D01*
D13*
X75714288Y49750000D02*
X75642856Y49964284D01*
D13*
X75857144Y49607144D02*
X75714288Y49750000D01*
D13*
X76000000Y49535716D02*
X75857144Y49607144D01*
D13*
X76214288Y49535716D02*
X76000000Y49535716D01*
D13*
X76357144Y49607144D02*
X76214288Y49535716D01*
D13*
X76500000Y49750000D02*
X76357144Y49607144D01*
D13*
X77000000Y49535716D02*
X77000000Y50535716D01*
D13*
X77071424Y50321428D02*
X77000000Y50107144D01*
D13*
X77214288Y50464284D02*
X77071424Y50321428D01*
D13*
X77357144Y50535716D02*
X77214288Y50464284D01*
D13*
X77571424Y50535716D02*
X77357144Y50535716D01*
D13*
X66214284Y51535716D02*
X65214284Y53035716D01*
D13*
X65214284Y51535716D02*
X66214284Y53035716D01*
D13*
X67285712Y51535716D02*
X67285712Y53035716D01*
D13*
X67928568Y53035716D02*
X67285712Y53035716D01*
D13*
X68142856Y52964284D02*
X67928568Y53035716D01*
D13*
X68214288Y52892856D02*
X68142856Y52964284D01*
D13*
X68285712Y52750000D02*
X68214288Y52892856D01*
D13*
X68285712Y52607144D02*
X68285712Y52750000D01*
D13*
X68214288Y52464284D02*
X68285712Y52607144D01*
D13*
X68142856Y52392856D02*
X68214288Y52464284D01*
D13*
X67928568Y52321428D02*
X68142856Y52392856D01*
D13*
X67928568Y52321428D02*
X67285712Y52321428D01*
D13*
X68142856Y52250000D02*
X67928568Y52321428D01*
D13*
X68214288Y52178572D02*
X68142856Y52250000D01*
D13*
X68285712Y52035716D02*
X68214288Y52178572D01*
D13*
X68285712Y51821428D02*
X68285712Y52035716D01*
D13*
X68214288Y51678572D02*
X68285712Y51821428D01*
D13*
X68142856Y51607144D02*
X68214288Y51678572D01*
D13*
X67928568Y51535716D02*
X68142856Y51607144D01*
D13*
X67285712Y51535716D02*
X67928568Y51535716D01*
D13*
X69571432Y51535716D02*
X69571432Y52535716D01*
D13*
X69428568Y52464284D02*
X69571432Y52321428D01*
D13*
X69285712Y52535716D02*
X69428568Y52464284D01*
D13*
X69071432Y52535716D02*
X69285712Y52535716D01*
D13*
X68928568Y52464284D02*
X69071432Y52535716D01*
D13*
X68785712Y52321428D02*
X68928568Y52464284D01*
D13*
X68714288Y52107144D02*
X68785712Y52321428D01*
D13*
X68714288Y51964284D02*
X68714288Y52107144D01*
D13*
X68785712Y51750000D02*
X68714288Y51964284D01*
D13*
X68928568Y51607144D02*
X68785712Y51750000D01*
D13*
X69071432Y51535716D02*
X68928568Y51607144D01*
D13*
X69285712Y51535716D02*
X69071432Y51535716D01*
D13*
X69428568Y51607144D02*
X69285712Y51535716D01*
D13*
X69571432Y51750000D02*
X69428568Y51607144D01*
D13*
X70142856Y51535716D02*
X70142856Y52535716D01*
D13*
X70357144Y52464284D02*
X70142856Y52250000D01*
D13*
X70500000Y52535716D02*
X70357144Y52464284D01*
D13*
X70714288Y52535716D02*
X70500000Y52535716D01*
D13*
X70857144Y52464284D02*
X70714288Y52535716D01*
D13*
X70928568Y52250000D02*
X70857144Y52464284D01*
D13*
X70928568Y51535716D02*
X70928568Y52250000D01*
D13*
X72285712Y51535716D02*
X72285712Y53035716D01*
D13*
X72142856Y52464284D02*
X72285712Y52321428D01*
D13*
X72000000Y52535716D02*
X72142856Y52464284D01*
D13*
X71785712Y52535716D02*
X72000000Y52535716D01*
D13*
X71642856Y52464284D02*
X71785712Y52535716D01*
D13*
X71500000Y52321428D02*
X71642856Y52464284D01*
D13*
X71428568Y52107144D02*
X71500000Y52321428D01*
D13*
X71428568Y51964284D02*
X71428568Y52107144D01*
D13*
X71500000Y51750000D02*
X71428568Y51964284D01*
D13*
X71642856Y51607144D02*
X71500000Y51750000D01*
D13*
X71785712Y51535716D02*
X71642856Y51607144D01*
D13*
X72000000Y51535716D02*
X71785712Y51535716D01*
D13*
X72142856Y51607144D02*
X72000000Y51535716D01*
D13*
X72285712Y51750000D02*
X72142856Y51607144D01*
D10*
X82000000Y53000000D03*
D11*
X82000000Y4000000D03*
D11*
X2000000Y4000000D03*
D12*
X2000000Y53000000D03*
D14*
X82750000Y11500000D03*
D15*
X79600000Y40900000D03*
D16*
X83300000Y42650000D03*
D16*
X80700000Y42650000D03*
D17*
X83300000Y37850000D03*
D15*
X79600000Y39600000D03*
D16*
X81350000Y42650000D03*
D18*
X84400000Y38950000D03*
D18*
X84400000Y40900000D03*
D17*
X81350000Y37850000D03*
D18*
X84400000Y39600000D03*
D18*
X84400000Y41550000D03*
D15*
X79600000Y40250000D03*
D18*
X84400000Y40250000D03*
D17*
X82650000Y37850000D03*
D15*
X79600000Y41550000D03*
D17*
X80700000Y37850000D03*
D19*
X82000000Y40250000D03*
D17*
X82000000Y37850000D03*
D15*
X79600000Y38950000D03*
D16*
X82650000Y42650000D03*
D16*
X82000000Y42650000D03*
D20*
X84520000Y18230000D03*
D20*
X81980000Y18230000D03*
D21*
X81980000Y20770000D03*
D22*
X83250000Y19500000D03*
D21*
X84520000Y20770000D03*
D23*
X15750000Y54250000D03*
D23*
X14250000Y54250000D03*
D24*
X75750000Y35250000D03*
D24*
X75750000Y36750000D03*
D25*
X40000000Y2750000D03*
D26*
X33250000Y26750000D03*
D26*
X31750000Y26750000D03*
D27*
X-550000Y10500000D03*
D27*
X1050000Y10500000D03*
D28*
X73050000Y31250000D03*
D28*
X72150000Y31250000D03*
D26*
X83250000Y45000000D03*
D26*
X81750000Y45000000D03*
D26*
X49000000Y52249960D03*
D26*
X47500000Y52249960D03*
D29*
X73300000Y10000000D03*
D29*
X74200000Y10000000D03*
D30*
X8250000Y37500000D03*
D30*
X8250000Y36000000D03*
D31*
X37250000Y26500000D03*
D31*
X40250000Y26500000D03*
D32*
X74250000Y38000000D03*
D32*
X75750000Y38000000D03*
D27*
X-550000Y18000000D03*
D27*
X1050000Y18000000D03*
D33*
X64500000Y33500000D03*
D33*
X66000000Y33500000D03*
D23*
X66500000Y7600000D03*
D23*
X65000000Y7600000D03*
D30*
X75500000Y11250000D03*
D30*
X75500000Y9750000D03*
D34*
X3500056Y38499992D03*
D34*
X5500056Y38499992D03*
D35*
X62465000Y41750000D03*
D36*
X59035000Y43020000D03*
D35*
X62465000Y40480000D03*
D35*
X62465000Y43020000D03*
D36*
X59035000Y40480000D03*
D34*
X38000056Y17499992D03*
D34*
X40000056Y17499992D03*
D37*
X35200000Y51550000D03*
D37*
X35200000Y53450000D03*
D38*
X37800000Y53450000D03*
D38*
X37800000Y51550000D03*
D38*
X37800000Y52500000D03*
D26*
X70250000Y3750000D03*
D26*
X68750000Y3750000D03*
D33*
X77000000Y13000000D03*
D33*
X78500000Y13000000D03*
D33*
X70000000Y2500000D03*
D33*
X71500000Y2500000D03*
D32*
X77000000Y9000000D03*
D32*
X78500000Y9000000D03*
D39*
X51000000Y48999960D03*
D39*
X51000000Y50499960D03*
D40*
X51250000Y14000000D03*
D40*
X51250000Y12500000D03*
D29*
X55050000Y36000000D03*
D29*
X55950000Y36000000D03*
D41*
X2750000Y28400000D03*
D42*
X4400000Y26750000D03*
D41*
X2250000Y28400000D03*
D43*
X2750000Y25600000D03*
D43*
X2250000Y25600000D03*
D44*
X1600000Y26250000D03*
D42*
X4400000Y27750000D03*
D44*
X1600000Y27750000D03*
D42*
X4400000Y26250000D03*
D44*
X1600000Y26750000D03*
D41*
X3750000Y28400000D03*
D45*
X3000000Y27000000D03*
D42*
X4400000Y27250000D03*
D41*
X3250000Y28400000D03*
D43*
X3750000Y25600000D03*
D44*
X1600000Y27250000D03*
D43*
X3250000Y25600000D03*
D46*
X5999992Y29499944D03*
D46*
X5999992Y27499944D03*
D33*
X65250000Y19250000D03*
D33*
X66750000Y19250000D03*
D47*
X3065000Y32500000D03*
D47*
X5435000Y32500000D03*
D26*
X66000000Y44000000D03*
D26*
X64500000Y44000000D03*
D29*
X55050000Y40000000D03*
D29*
X55950000Y40000000D03*
D33*
X77000000Y11750000D03*
D33*
X78500000Y11750000D03*
D48*
X73500000Y4000000D03*
D48*
X74000000Y4000000D03*
D49*
X71750000Y6250000D03*
D50*
X73500000Y7000000D03*
D51*
X74750000Y6250000D03*
D50*
X74000000Y7000000D03*
D49*
X71750000Y5250000D03*
D48*
X72500000Y4000000D03*
D51*
X74750000Y5250000D03*
D51*
X74750000Y5750000D03*
D50*
X72500000Y7000000D03*
D49*
X71750000Y4750000D03*
D48*
X73000000Y4000000D03*
D49*
X71750000Y5750000D03*
D51*
X74750000Y4750000D03*
D50*
X73000000Y7000000D03*
D52*
X73250000Y5500000D03*
D53*
X32050000Y10000000D03*
D53*
X30450000Y10000000D03*
D24*
X71250000Y35250000D03*
D24*
X71250000Y36750000D03*
D29*
X55050000Y41500000D03*
D29*
X55950000Y41500000D03*
D54*
X55050000Y32550000D03*
D54*
X56950000Y32550000D03*
D55*
X56950000Y29950000D03*
D55*
X55050000Y29950000D03*
D55*
X56000000Y29950000D03*
D26*
X28750000Y17500000D03*
D26*
X27250000Y17500000D03*
D56*
X74250000Y12300000D03*
D56*
X74250000Y11200000D03*
D29*
X26800000Y27000000D03*
D29*
X27700000Y27000000D03*
D26*
X69000000Y33500000D03*
D26*
X67500000Y33500000D03*
D26*
X66750000Y14250000D03*
D26*
X65250000Y14250000D03*
D26*
X63750000Y29250000D03*
D26*
X62250000Y29250000D03*
D57*
X72500000Y14025000D03*
D58*
X75225000Y18250000D03*
D59*
X70500000Y19975000D03*
D58*
X75225000Y15750000D03*
D60*
X69275000Y18250000D03*
D60*
X69275000Y19250000D03*
D57*
X74500000Y14025000D03*
D60*
X69275000Y15250000D03*
D58*
X75225000Y19250000D03*
D61*
X72250000Y17000000D03*
D60*
X69275000Y16750000D03*
D60*
X69275000Y18750000D03*
D60*
X69275000Y15750000D03*
D60*
X69275000Y14750000D03*
D58*
X75225000Y17750000D03*
D57*
X72000000Y14025000D03*
D58*
X75225000Y17250000D03*
D59*
X74500000Y19975000D03*
D60*
X69275000Y16250000D03*
D60*
X69275000Y17250000D03*
D59*
X73500000Y19975000D03*
D59*
X72500000Y19975000D03*
D58*
X75225000Y16250000D03*
D59*
X73000000Y19975000D03*
D59*
X71500000Y19975000D03*
D59*
X72000000Y19975000D03*
D58*
X75225000Y18750000D03*
D60*
X69275000Y17750000D03*
D59*
X71000000Y19975000D03*
D58*
X75225000Y16750000D03*
D58*
X75225000Y15250000D03*
D57*
X70000000Y14025000D03*
D59*
X70000000Y19975000D03*
D58*
X75225000Y14750000D03*
D57*
X73000000Y14025000D03*
D59*
X74000000Y19975000D03*
D57*
X71500000Y14025000D03*
D57*
X74000000Y14025000D03*
D57*
X73500000Y14025000D03*
D57*
X70500000Y14025000D03*
D57*
X71000000Y14025000D03*
D62*
X85500000Y27750000D03*
D24*
X80000000Y10375000D03*
D24*
X80000000Y11875000D03*
D23*
X23500000Y53000000D03*
D23*
X22000000Y53000000D03*
D29*
X81550000Y16750000D03*
D29*
X82450000Y16750000D03*
D63*
X78762500Y27040000D03*
D63*
X78762500Y28460000D03*
D64*
X78025000Y27750000D03*
D65*
X77110000Y27040000D03*
D65*
X78940000Y27750000D03*
D65*
X77110000Y28460000D03*
D63*
X77287500Y27750000D03*
D39*
X64500000Y35000000D03*
D39*
X64500000Y36500000D03*
D33*
X64500000Y39500000D03*
D33*
X66000000Y39500000D03*
D33*
X65250000Y18000000D03*
D33*
X66750000Y18000000D03*
D18*
X23650000Y13350000D03*
D17*
X19950000Y11600000D03*
D17*
X22550000Y11600000D03*
D16*
X19950000Y16400000D03*
D18*
X23650000Y14650000D03*
D17*
X21900000Y11600000D03*
D15*
X18850000Y15300000D03*
D15*
X18850000Y13350000D03*
D16*
X21900000Y16400000D03*
D15*
X18850000Y14650000D03*
D15*
X18850000Y12700000D03*
D18*
X23650000Y14000000D03*
D15*
X18850000Y14000000D03*
D16*
X20600000Y16400000D03*
D18*
X23650000Y12700000D03*
D16*
X22550000Y16400000D03*
D66*
X21250000Y14000000D03*
D16*
X21250000Y16400000D03*
D18*
X23650000Y15300000D03*
D17*
X20600000Y11600000D03*
D17*
X21250000Y11600000D03*
D28*
X73700000Y2750000D03*
D28*
X72800000Y2750000D03*
D14*
X33000000Y2750000D03*
D67*
X61000000Y11250000D03*
D67*
X61000000Y8250000D03*
D40*
X33750000Y53250000D03*
D40*
X33750000Y51750000D03*
D68*
X67450000Y26000000D03*
D68*
X68550000Y26000000D03*
D24*
X10500000Y32750000D03*
D24*
X10500000Y34250000D03*
D28*
X77850000Y17950000D03*
D28*
X76950000Y17950000D03*
D69*
X34250000Y6250000D03*
D69*
X38250000Y6250000D03*
D70*
X9250000Y53300000D03*
D70*
X9250000Y51700000D03*
D39*
X25500000Y12000000D03*
D39*
X25500000Y13500000D03*
D33*
X250000Y37750000D03*
D33*
X1750000Y37750000D03*
D29*
X72525000Y21575000D03*
D29*
X73425000Y21575000D03*
D18*
X46650000Y21100000D03*
D17*
X42950000Y19350000D03*
D17*
X45550000Y19350000D03*
D16*
X42950000Y24150000D03*
D18*
X46650000Y22400000D03*
D17*
X44900000Y19350000D03*
D15*
X41850000Y23050000D03*
D15*
X41850000Y21100000D03*
D16*
X44900000Y24150000D03*
D15*
X41850000Y22400000D03*
D15*
X41850000Y20450000D03*
D18*
X46650000Y21750000D03*
D15*
X41850000Y21750000D03*
D16*
X43600000Y24150000D03*
D18*
X46650000Y20450000D03*
D16*
X45550000Y24150000D03*
D66*
X44250000Y21750000D03*
D16*
X44250000Y24150000D03*
D18*
X46650000Y23050000D03*
D17*
X43600000Y19350000D03*
D17*
X44250000Y19350000D03*
D24*
X9250000Y49000000D03*
D24*
X9250000Y50500000D03*
D71*
X63750000Y5550000D03*
D72*
X62480000Y2950000D03*
D72*
X63750000Y2950000D03*
D71*
X65020000Y5550000D03*
D71*
X62480000Y5550000D03*
D72*
X65020000Y2950000D03*
D73*
X80500000Y35500000D03*
D73*
X77500000Y35500000D03*
D67*
X61000000Y20250000D03*
D67*
X61000000Y17250000D03*
D39*
X69000000Y35000000D03*
D39*
X69000000Y36500000D03*
D28*
X74975000Y21575000D03*
D28*
X74075000Y21575000D03*
D74*
X67412500Y42500000D03*
D74*
X66087500Y42500000D03*
D26*
X66750000Y15500000D03*
D26*
X65250000Y15500000D03*
D39*
X69000000Y41000000D03*
D39*
X69000000Y42500000D03*
D38*
X64300000Y27700000D03*
D38*
X64300000Y25800000D03*
D37*
X61700000Y25800000D03*
D37*
X61700000Y27700000D03*
D37*
X61700000Y26750000D03*
D39*
X44250000Y49000000D03*
D39*
X44250000Y50500000D03*
D29*
X73950000Y31250000D03*
D29*
X74850000Y31250000D03*
D27*
X-550000Y15000000D03*
D27*
X1050000Y15000000D03*
D75*
X73250000Y46350000D03*
D76*
X72300000Y43650000D03*
D75*
X72300000Y46350000D03*
D76*
X73250000Y43650000D03*
D75*
X74200000Y46350000D03*
D76*
X74200000Y43650000D03*
D17*
X55600000Y10350000D03*
D15*
X53850000Y14050000D03*
D15*
X53850000Y11450000D03*
D18*
X58650000Y14050000D03*
D17*
X56900000Y10350000D03*
D15*
X53850000Y12100000D03*
D16*
X57550000Y15150000D03*
D16*
X55600000Y15150000D03*
D18*
X58650000Y12100000D03*
D16*
X56900000Y15150000D03*
D16*
X54950000Y15150000D03*
D17*
X56250000Y10350000D03*
D16*
X56250000Y15150000D03*
D18*
X58650000Y13400000D03*
D17*
X54950000Y10350000D03*
D18*
X58650000Y11450000D03*
D77*
X56250000Y12750000D03*
D18*
X58650000Y12750000D03*
D17*
X57550000Y10350000D03*
D15*
X53850000Y13400000D03*
D15*
X53850000Y12750000D03*
D24*
X74250000Y35250000D03*
D24*
X74250000Y36750000D03*
D33*
X27250000Y12000000D03*
D33*
X28750000Y12000000D03*
D33*
X67500000Y44000000D03*
D33*
X69000000Y44000000D03*
D78*
X74250000Y22525000D03*
D78*
X74250000Y23625000D03*
D28*
X77850000Y19050000D03*
D28*
X76950000Y19050000D03*
D33*
X78850000Y22150000D03*
D33*
X80350000Y22150000D03*
D33*
X34750000Y17250000D03*
D33*
X36250000Y17250000D03*
D46*
X51999992Y10749944D03*
D46*
X51999992Y8749944D03*
D18*
X38150000Y21100000D03*
D17*
X34450000Y19350000D03*
D17*
X37050000Y19350000D03*
D16*
X34450000Y24150000D03*
D18*
X38150000Y22400000D03*
D17*
X36400000Y19350000D03*
D15*
X33350000Y23050000D03*
D15*
X33350000Y21100000D03*
D16*
X36400000Y24150000D03*
D15*
X33350000Y22400000D03*
D15*
X33350000Y20450000D03*
D18*
X38150000Y21750000D03*
D15*
X33350000Y21750000D03*
D16*
X35100000Y24150000D03*
D18*
X38150000Y20450000D03*
D16*
X37050000Y24150000D03*
D66*
X35750000Y21750000D03*
D16*
X35750000Y24150000D03*
D18*
X38150000Y23050000D03*
D17*
X35100000Y19350000D03*
D17*
X35750000Y19350000D03*
D33*
X13250000Y51250000D03*
D33*
X14750000Y51250000D03*
D32*
X74250000Y34000000D03*
D32*
X75750000Y34000000D03*
D26*
X42250000Y52250000D03*
D26*
X40750000Y52250000D03*
D24*
X1250000Y29750000D03*
D24*
X1250000Y31250000D03*
D78*
X73250000Y22525000D03*
D78*
X73250000Y23625000D03*
D29*
X55050000Y37500000D03*
D29*
X55950000Y37500000D03*
D32*
X9500000Y35500000D03*
D32*
X11000000Y35500000D03*
D23*
X25000000Y18000000D03*
D23*
X23500000Y18000000D03*
D33*
X65250000Y20500000D03*
D33*
X66750000Y20500000D03*
D26*
X37500000Y48250000D03*
D26*
X36000000Y48250000D03*
D74*
X67412500Y36500000D03*
D74*
X66087500Y36500000D03*
D46*
X11249992Y27749944D03*
D46*
X11249992Y25749944D03*
D30*
X-250000Y31250000D03*
D30*
X-250000Y29750000D03*
D40*
X51500000Y23000000D03*
D40*
X51500000Y21500000D03*
D79*
X25950000Y5250000D03*
D80*
X28200000Y2250000D03*
D81*
X22950000Y7850000D03*
D81*
X25350000Y7850000D03*
D81*
X23750000Y7850000D03*
D80*
X19300000Y2250000D03*
D81*
X22150000Y7850000D03*
D81*
X24550000Y7850000D03*
D80*
X28200000Y7750000D03*
D80*
X19300000Y7750000D03*
D79*
X21550000Y5250000D03*
D24*
X1250000Y44500000D03*
D24*
X1250000Y46000000D03*
D17*
X55600000Y19350000D03*
D15*
X53850000Y23050000D03*
D15*
X53850000Y20450000D03*
D18*
X58650000Y23050000D03*
D17*
X56900000Y19350000D03*
D15*
X53850000Y21100000D03*
D16*
X57550000Y24150000D03*
D16*
X55600000Y24150000D03*
D18*
X58650000Y21100000D03*
D16*
X56900000Y24150000D03*
D16*
X54950000Y24150000D03*
D17*
X56250000Y19350000D03*
D16*
X56250000Y24150000D03*
D18*
X58650000Y22400000D03*
D17*
X54950000Y19350000D03*
D18*
X58650000Y20450000D03*
D77*
X56250000Y21750000D03*
D18*
X58650000Y21750000D03*
D17*
X57550000Y19350000D03*
D15*
X53850000Y22400000D03*
D15*
X53850000Y21750000D03*
D38*
X42800000Y50700000D03*
D38*
X42800000Y48800000D03*
D37*
X40200000Y48800000D03*
D37*
X40200000Y50700000D03*
D37*
X40200000Y49750000D03*
D82*
X53757539Y43464645D03*
D82*
X54535355Y44242461D03*
D39*
X65750000Y26000000D03*
D39*
X65750000Y27500000D03*
D46*
X51999992Y19749944D03*
D46*
X51999992Y17749944D03*
D78*
X73250000Y11200000D03*
D78*
X73250000Y12300000D03*
D27*
X-550000Y16500000D03*
D27*
X1050000Y16500000D03*
D83*
X12650000Y52750000D03*
D83*
X12650000Y53750000D03*
D83*
X11350000Y53250000D03*
D41*
X2750000Y43150000D03*
D42*
X4400000Y41500000D03*
D41*
X2250000Y43150000D03*
D43*
X2750000Y40350000D03*
D43*
X2250000Y40350000D03*
D44*
X1600000Y41000000D03*
D42*
X4400000Y42500000D03*
D44*
X1600000Y42500000D03*
D42*
X4400000Y41000000D03*
D44*
X1600000Y41500000D03*
D41*
X3750000Y43150000D03*
D45*
X3000000Y41750000D03*
D42*
X4400000Y42000000D03*
D41*
X3250000Y43150000D03*
D43*
X3750000Y40350000D03*
D44*
X1600000Y42000000D03*
D43*
X3250000Y40350000D03*
D68*
X79200000Y20000000D03*
D68*
X80300000Y20000000D03*
D24*
X72750000Y35250000D03*
D24*
X72750000Y36750000D03*
D84*
X28800000Y13650000D03*
D84*
X28800000Y15850000D03*
D84*
X27200000Y15850000D03*
D84*
X27200000Y13650000D03*
D40*
X75750000Y45000000D03*
D40*
X75750000Y43500000D03*
D31*
X45750000Y26500000D03*
D31*
X48750000Y26500000D03*
D30*
X26750000Y53250000D03*
D30*
X26750000Y51750000D03*
D85*
X66087500Y41000000D03*
D85*
X67412500Y41000000D03*
D34*
X3500056Y23749992D03*
D34*
X5500056Y23749992D03*
D47*
X3065000Y47238045D03*
D47*
X5435000Y47238045D03*
D30*
X-250000Y46000000D03*
D30*
X-250000Y44500000D03*
D86*
X27000000Y28450000D03*
D87*
X34300000Y31250000D03*
D86*
X18000000Y28450000D03*
D88*
X13200000Y43250000D03*
D87*
X34300000Y46250000D03*
D86*
X19000000Y28450000D03*
D88*
X13200000Y40250000D03*
D88*
X13200000Y31250000D03*
D88*
X13200000Y41250000D03*
D88*
X13200000Y33250000D03*
D86*
X31500000Y28450000D03*
D89*
X17500000Y49550000D03*
D89*
X25000000Y49550000D03*
D88*
X13200000Y46750000D03*
D87*
X34300000Y36250000D03*
D89*
X16000000Y49550000D03*
D87*
X34300000Y40250000D03*
D89*
X18000000Y49550000D03*
D88*
X13200000Y46250000D03*
D89*
X24500000Y49550000D03*
D87*
X34300000Y40750000D03*
D89*
X20500000Y49550000D03*
D86*
X31000000Y28450000D03*
D89*
X20000000Y49550000D03*
D88*
X13200000Y37250000D03*
D88*
X13200000Y42750000D03*
D87*
X34300000Y31750000D03*
D87*
X34300000Y38750000D03*
D88*
X13200000Y40750000D03*
D89*
X29500000Y49550000D03*
D88*
X13200000Y36250000D03*
D87*
X34300000Y34250000D03*
D86*
X21500000Y28450000D03*
D87*
X34300000Y32750000D03*
D86*
X22500000Y28450000D03*
D88*
X13200000Y43750000D03*
D87*
X34300000Y47250000D03*
D88*
X13200000Y34750000D03*
D86*
X16500000Y28450000D03*
D86*
X23500000Y28450000D03*
D87*
X34300000Y44750000D03*
D86*
X28000000Y28450000D03*
D89*
X23000000Y49550000D03*
D89*
X27500000Y49550000D03*
D86*
X25500000Y28450000D03*
D86*
X26000000Y28450000D03*
D86*
X29000000Y28450000D03*
D87*
X34300000Y37750000D03*
D86*
X32000000Y28450000D03*
D88*
X13200000Y45250000D03*
D87*
X34300000Y39250000D03*
D88*
X13200000Y45750000D03*
D86*
X25000000Y28450000D03*
D88*
X13200000Y37750000D03*
D89*
X29000000Y49550000D03*
D89*
X16500000Y49550000D03*
D86*
X29500000Y28450000D03*
D86*
X30500000Y28450000D03*
D87*
X34300000Y35250000D03*
D89*
X30000000Y49550000D03*
D88*
X13200000Y31750000D03*
D89*
X31500000Y49550000D03*
D86*
X20500000Y28450000D03*
D86*
X19500000Y28450000D03*
D87*
X34300000Y38250000D03*
D89*
X21500000Y49550000D03*
D89*
X32500000Y49550000D03*
D88*
X13200000Y39750000D03*
D86*
X17000000Y28450000D03*
D86*
X20000000Y28450000D03*
D90*
X23750000Y39000000D03*
D87*
X34300000Y47750000D03*
D88*
X13200000Y32750000D03*
D86*
X32500000Y28450000D03*
D89*
X30500000Y49550000D03*
D87*
X34300000Y37250000D03*
D87*
X34300000Y39750000D03*
D87*
X34300000Y44250000D03*
D88*
X13200000Y35250000D03*
D88*
X13200000Y34250000D03*
D89*
X23500000Y49550000D03*
D89*
X28500000Y49550000D03*
D87*
X34300000Y43750000D03*
D86*
X24500000Y28450000D03*
D88*
X13200000Y44750000D03*
D88*
X13200000Y39250000D03*
D88*
X13200000Y42250000D03*
D88*
X13200000Y38250000D03*
D88*
X13200000Y35750000D03*
D86*
X18500000Y28450000D03*
D89*
X15000000Y49550000D03*
D86*
X16000000Y28450000D03*
D89*
X27000000Y49550000D03*
D89*
X22500000Y49550000D03*
D86*
X24000000Y28450000D03*
D87*
X34300000Y46750000D03*
D89*
X24000000Y49550000D03*
D87*
X34300000Y32250000D03*
D88*
X13200000Y44250000D03*
D88*
X13200000Y38750000D03*
D86*
X22000000Y28450000D03*
D86*
X15000000Y28450000D03*
D88*
X13200000Y30250000D03*
D87*
X34300000Y30250000D03*
D89*
X21000000Y49550000D03*
D88*
X13200000Y30750000D03*
D86*
X26500000Y28450000D03*
D87*
X34300000Y42250000D03*
D86*
X21000000Y28450000D03*
D87*
X34300000Y45750000D03*
D89*
X15500000Y49550000D03*
D87*
X34300000Y36750000D03*
D88*
X13200000Y33750000D03*
D86*
X28500000Y28450000D03*
D87*
X34300000Y34750000D03*
D87*
X34300000Y42750000D03*
D89*
X18500000Y49550000D03*
D89*
X28000000Y49550000D03*
D87*
X34300000Y41250000D03*
D87*
X34300000Y43250000D03*
D87*
X34300000Y33250000D03*
D87*
X34300000Y30750000D03*
D86*
X23000000Y28450000D03*
D87*
X34300000Y45250000D03*
D89*
X22000000Y49550000D03*
D87*
X34300000Y33750000D03*
D89*
X31000000Y49550000D03*
D88*
X13200000Y47750000D03*
D89*
X25500000Y49550000D03*
D89*
X17000000Y49550000D03*
D86*
X30000000Y28450000D03*
D88*
X13200000Y41750000D03*
D88*
X13200000Y36750000D03*
D86*
X27500000Y28450000D03*
D89*
X19500000Y49550000D03*
D87*
X34300000Y35750000D03*
D88*
X13200000Y47250000D03*
D89*
X19000000Y49550000D03*
D89*
X32000000Y49550000D03*
D89*
X26000000Y49550000D03*
D87*
X34300000Y41750000D03*
D88*
X13200000Y32250000D03*
D89*
X26500000Y49550000D03*
D86*
X17500000Y28450000D03*
D86*
X15500000Y28450000D03*
D23*
X72750000Y38000000D03*
D23*
X71250000Y38000000D03*
D85*
X66087500Y35000000D03*
D85*
X67412500Y35000000D03*
D33*
X67500000Y38000000D03*
D33*
X69000000Y38000000D03*
D91*
X55242461Y43535355D03*
D91*
X54464645Y42757539D03*
D68*
X79200000Y17250000D03*
D68*
X80300000Y17250000D03*
D40*
X11250000Y31250000D03*
D40*
X11250000Y29750000D03*
D46*
X5999992Y44237989D03*
D46*
X5999992Y42237989D03*
D92*
X52337000Y38000000D03*
D93*
X42663000Y42500000D03*
D92*
X52337000Y41000000D03*
D93*
X42663000Y41500000D03*
D94*
X51250000Y44087000D03*
D92*
X52337000Y39500000D03*
D93*
X42663000Y43500000D03*
D95*
X48250000Y34413000D03*
D94*
X49750000Y44087000D03*
D95*
X49250000Y34413000D03*
D94*
X43750000Y44087000D03*
D94*
X50750000Y44087000D03*
D93*
X42663000Y37500000D03*
D95*
X47250000Y34413000D03*
D94*
X45750000Y44087000D03*
D92*
X52337000Y37000000D03*
D93*
X42663000Y37000000D03*
D93*
X42663000Y42000000D03*
D93*
X42663000Y38500000D03*
D92*
X52337000Y42500000D03*
D92*
X52337000Y43000000D03*
D93*
X42663000Y36000000D03*
D94*
X48250000Y44087000D03*
D93*
X42663000Y38000000D03*
D93*
X42663000Y43000000D03*
D95*
X45750000Y34413000D03*
D93*
X42663000Y39500000D03*
D92*
X52337000Y42000000D03*
D92*
X52337000Y37500000D03*
D94*
X51750000Y44087000D03*
D92*
X52337000Y39000000D03*
D95*
X51750000Y34413000D03*
D95*
X44750000Y34413000D03*
D95*
X43750000Y34413000D03*
D94*
X47750000Y44087000D03*
D95*
X50250000Y34413000D03*
D95*
X43250000Y34413000D03*
D93*
X42663000Y35000000D03*
D93*
X42663000Y39000000D03*
D93*
X42663000Y41000000D03*
D92*
X52337000Y40500000D03*
D92*
X52337000Y38500000D03*
D94*
X43250000Y44087000D03*
D92*
X52337000Y36000000D03*
D95*
X48750000Y34413000D03*
D95*
X51250000Y34413000D03*
D95*
X44250000Y34413000D03*
D92*
X52337000Y41500000D03*
D92*
X52337000Y36500000D03*
D94*
X47250000Y44087000D03*
D94*
X46750000Y44087000D03*
D92*
X52337000Y40000000D03*
D95*
X46750000Y34413000D03*
D93*
X42663000Y36500000D03*
D95*
X50750000Y34413000D03*
D93*
X42663000Y40500000D03*
D94*
X44250000Y44087000D03*
D94*
X48750000Y44087000D03*
D94*
X46250000Y44087000D03*
D95*
X49750000Y34413000D03*
D93*
X42663000Y35500000D03*
D94*
X50250000Y44087000D03*
D92*
X52337000Y35500000D03*
D96*
X47500000Y39250000D03*
D94*
X44750000Y44087000D03*
D95*
X45250000Y34413000D03*
D93*
X42663000Y40000000D03*
D92*
X52337000Y35000000D03*
D94*
X45250000Y44087000D03*
D95*
X46250000Y34413000D03*
D95*
X47750000Y34413000D03*
D92*
X52337000Y43500000D03*
D94*
X49250000Y44087000D03*
D23*
X15750000Y52750000D03*
D23*
X14250000Y52750000D03*
D26*
X69000000Y39500000D03*
D26*
X67500000Y39500000D03*
D35*
X62465000Y35750000D03*
D36*
X59035000Y37020000D03*
D35*
X62465000Y34480000D03*
D35*
X62465000Y37020000D03*
D36*
X59035000Y34480000D03*
D26*
X56750000Y34000000D03*
D26*
X55250000Y34000000D03*
D39*
X39250000Y52250000D03*
D39*
X39250000Y53750000D03*
D33*
X65250000Y16750000D03*
D33*
X66750000Y16750000D03*
D23*
X72750000Y34000000D03*
D23*
X71250000Y34000000D03*
D39*
X64500000Y41000000D03*
D39*
X64500000Y42500000D03*
D39*
X76250000Y3500000D03*
D39*
X76250000Y5000000D03*
D40*
X77500000Y5000000D03*
D40*
X77500000Y3500000D03*
D30*
X250000Y42500000D03*
D30*
X250000Y41000000D03*
D30*
X0Y27750000D03*
D30*
X0Y26250000D03*
D33*
X250000Y24261955D03*
D33*
X1750000Y24261955D03*
D97*
X56055634Y44419238D03*
D97*
X55419238Y45055634D03*
D33*
X250000Y39000000D03*
D33*
X1750000Y39000000D03*
D27*
X-550000Y13500000D03*
D27*
X1050000Y13500000D03*
D33*
X13750000Y25750000D03*
D33*
X15250000Y25750000D03*
D40*
X29500000Y54500000D03*
D40*
X29500000Y53000000D03*
D26*
X83750000Y22500000D03*
D26*
X82250000Y22500000D03*
D39*
X78250000Y24250000D03*
D39*
X78250000Y25750000D03*
D38*
X49550000Y50699960D03*
D38*
X49550000Y48799960D03*
D37*
X46950000Y48799960D03*
D37*
X46950000Y50699960D03*
D37*
X46950000Y49749960D03*
D40*
X53500000Y32000000D03*
D40*
X53500000Y30500000D03*
D34*
X46250056Y17499992D03*
D34*
X48250056Y17499992D03*
D27*
X-550000Y12000000D03*
D27*
X1050000Y12000000D03*
D98*
X79999944Y44500008D03*
D98*
X77999944Y44500008D03*
D27*
X-550000Y9000000D03*
D27*
X1050000Y9000000D03*
D40*
X67500000Y28850000D03*
D40*
X67500000Y27350000D03*
D30*
X33500000Y10250000D03*
D30*
X33500000Y8750000D03*
D33*
X43000000Y17250000D03*
D33*
X44500000Y17250000D03*
D33*
X250000Y23011955D03*
D33*
X1750000Y23011955D03*
D32*
X9500000Y37250000D03*
D32*
X11000000Y37250000D03*
D33*
X77000000Y10500000D03*
D33*
X78500000Y10500000D03*
D40*
X67250000Y5000000D03*
D40*
X67250000Y3500000D03*
D99*
X12020000Y14040000D03*
D100*
X9480000Y8960000D03*
D101*
X12020000Y6420000D03*
D101*
X9480000Y16580000D03*
D102*
X12020000Y16580000D03*
D100*
X9480000Y11500000D03*
D101*
X9480000Y6420000D03*
D103*
X12020000Y8960000D03*
D100*
X9480000Y14040000D03*
D102*
X12020000Y11500000D03*
D104*
X72750000Y24600000D03*
D105*
X72750000Y29400000D03*
D106*
X75900000Y26750000D03*
D104*
X75250000Y24600000D03*
D107*
X71100000Y27750000D03*
D104*
X71750000Y24600000D03*
D105*
X74250000Y29400000D03*
D106*
X75900000Y27250000D03*
D107*
X71100000Y25750000D03*
D104*
X73250000Y24600000D03*
D106*
X75900000Y27750000D03*
D104*
X74750000Y24600000D03*
D105*
X73250000Y29400000D03*
D106*
X75900000Y28750000D03*
D105*
X74750000Y29400000D03*
D107*
X71100000Y28250000D03*
D105*
X73750000Y29400000D03*
D108*
X73500000Y27000000D03*
D107*
X71100000Y25250000D03*
D106*
X75900000Y25750000D03*
D107*
X71100000Y28750000D03*
D107*
X71100000Y26250000D03*
D107*
X71100000Y26750000D03*
D106*
X75900000Y26250000D03*
D107*
X71100000Y27250000D03*
D105*
X75250000Y29400000D03*
D105*
X71750000Y29400000D03*
D104*
X73750000Y24600000D03*
D105*
X72250000Y29400000D03*
D104*
X74250000Y24600000D03*
D104*
X72250000Y24600000D03*
D106*
X75900000Y25250000D03*
D106*
X75900000Y28250000D03*
D26*
X66000000Y38000000D03*
D26*
X64500000Y38000000D03*
D109*
X83425000Y27025000D03*
D110*
X70750000Y8375000D03*
D111*
X17000000Y48000000D03*
D111*
X53500000Y35750000D03*
D111*
X56750000Y7000000D03*
D111*
X74750000Y25750000D03*
D112*
X73000000Y26500000D03*
D112*
X63250000Y19750000D03*
D111*
X74000000Y15250000D03*
D113*
X46738827Y28494557D03*
D111*
X65250000Y9250000D03*
D114*
X1750000Y10500000D03*
D111*
X81500000Y40750000D03*
D110*
X54744557Y17578873D03*
D113*
X69750000Y12750000D03*
D110*
X22500000Y15250000D03*
D114*
X24000000Y51250000D03*
D110*
X9000000Y48000000D03*
D112*
X56750000Y12250000D03*
D111*
X47500000Y40250000D03*
D115*
X81500000Y39750000D03*
D111*
X71000000Y31500000D03*
D115*
X32822488Y39750000D03*
D110*
X50500000Y20275000D03*
D110*
X34500000Y23000000D03*
D112*
X75500000Y9000000D03*
D113*
X35750000Y18250000D03*
D113*
X70000000Y26850000D03*
D111*
X63500000Y41750000D03*
D112*
X27375000Y6125000D03*
D111*
X57500000Y23000000D03*
D113*
X71100000Y32500000D03*
D110*
X63250000Y19000000D03*
D110*
X43000000Y21750000D03*
D111*
X26530000Y26000000D03*
D111*
X60000000Y23500000D03*
D111*
X71750000Y30500000D03*
D115*
X77250000Y15500000D03*
D111*
X1750000Y14250000D03*
D111*
X71500000Y12000000D03*
D113*
X70500000Y18750000D03*
D111*
X36250000Y22250000D03*
D111*
X63000000Y11750000D03*
D115*
X55000000Y23000000D03*
D112*
X40750000Y53750000D03*
D111*
X37750000Y28250000D03*
D112*
X56250000Y11500000D03*
D113*
X21500000Y39750000D03*
D111*
X46750000Y33550000D03*
D111*
X34500000Y21750000D03*
D111*
X68500000Y6750000D03*
D111*
X73250000Y5500000D03*
D111*
X28250000Y35250000D03*
D111*
X32750000Y30000000D03*
D109*
X85175000Y28475000D03*
D111*
X60000000Y32000000D03*
D111*
X84500000Y22500000D03*
D112*
X46500000Y37250000D03*
D111*
X60000000Y15000000D03*
D110*
X48125000Y28494557D03*
D115*
X84250000Y45000000D03*
D111*
X72750000Y16500000D03*
D111*
X52536657Y12768328D03*
D111*
X58750000Y7000000D03*
D111*
X73750000Y6000000D03*
D115*
X49500000Y40250000D03*
D112*
X54250000Y34500000D03*
D113*
X77500000Y2500000D03*
D110*
X22500000Y51750000D03*
D111*
X30500000Y41250000D03*
D112*
X55000000Y11500000D03*
D112*
X28875000Y3875000D03*
D111*
X57500000Y12750000D03*
D111*
X29000000Y29750000D03*
D111*
X49500000Y41250000D03*
D110*
X71000000Y17000000D03*
D110*
X52500000Y44250000D03*
D113*
X68500000Y20250000D03*
D112*
X55494557Y8578873D03*
D114*
X32822488Y41250000D03*
D111*
X73000000Y15250000D03*
D111*
X55000000Y20500000D03*
D111*
X15250000Y33750000D03*
D110*
X53250000Y38250000D03*
D110*
X60000000Y14000000D03*
D113*
X52499129Y13517391D03*
D112*
X49500000Y37250000D03*
D111*
X21935000Y51000000D03*
D111*
X11000000Y43750000D03*
D113*
X34500000Y20500000D03*
D113*
X35250000Y22250000D03*
D113*
X35750000Y20500000D03*
D110*
X9109418Y3000000D03*
D112*
X70500000Y17750000D03*
D114*
X71750000Y17500000D03*
D111*
X26500000Y30000000D03*
D116*
X79750000Y27025000D03*
D112*
X52250000Y31250000D03*
D111*
X6250000Y25000000D03*
D111*
X76250000Y20500000D03*
D111*
X82049265Y43700735D03*
D111*
X25250000Y9750000D03*
D110*
X83250000Y39000000D03*
D111*
X77828873Y38005443D03*
D111*
X11000000Y46000000D03*
D110*
X67750000Y17750000D03*
D110*
X45500000Y40250000D03*
D111*
X29500000Y48000000D03*
D111*
X66750000Y13250000D03*
D111*
X75250000Y23350000D03*
D110*
X36750000Y28250000D03*
D110*
X43750000Y22250000D03*
D112*
X78578873Y39880443D03*
D110*
X57750000Y4250000D03*
D113*
X5000056Y42250056D03*
D111*
X56250000Y25250000D03*
D111*
X40000000Y21750000D03*
D111*
X56250000Y42250000D03*
D111*
X72250000Y28250000D03*
D117*
X78000000Y28500000D03*
D113*
X55750000Y12250000D03*
D111*
X71000000Y15750000D03*
D111*
X47500000Y37250000D03*
D111*
X3750000Y22024999D03*
D113*
X34000000Y49000000D03*
D113*
X26625000Y6125000D03*
D111*
X-250000Y47000000D03*
D112*
X24500000Y36750000D03*
D114*
X70500000Y12000000D03*
D110*
X43000000Y20500000D03*
D110*
X77504056Y25762304D03*
D113*
X48875000Y28494557D03*
D113*
X27000000Y23750000D03*
D111*
X48421127Y20244557D03*
D113*
X7250000Y45238045D03*
D111*
X1750000Y12000000D03*
D109*
X82925000Y27025000D03*
D111*
X74000000Y17750000D03*
D110*
X66750000Y44000000D03*
D111*
X73500000Y25750000D03*
D110*
X1750000Y15000000D03*
D112*
X72750000Y6000000D03*
D111*
X18625000Y3875000D03*
D111*
X56750000Y4250000D03*
D110*
X64500000Y20500000D03*
D110*
X76500000Y32000000D03*
D112*
X71500000Y15250000D03*
D111*
X37900000Y16000000D03*
D110*
X53500000Y39000000D03*
D113*
X37300000Y16000000D03*
D112*
X60500000Y6750000D03*
D111*
X37000000Y20500000D03*
D109*
X81175000Y27025000D03*
D110*
X46500000Y35250000D03*
D115*
X53250000Y17578873D03*
D111*
X48500000Y38250000D03*
D111*
X63198531Y17244041D03*
D114*
X21250000Y12750000D03*
D110*
X56619557Y9328873D03*
D111*
X43000000Y23000000D03*
D111*
X74000000Y16250000D03*
D113*
X63250000Y9250000D03*
D115*
X70750000Y6500000D03*
D112*
X47500000Y53750000D03*
D111*
X46313827Y15994557D03*
D111*
X56250000Y23000000D03*
D112*
X9750000Y48000000D03*
D112*
X54250000Y33500000D03*
D111*
X52750000Y22500000D03*
D112*
X3500000Y27500000D03*
D111*
X63000000Y26750000D03*
D111*
X50250000Y23000000D03*
D110*
X82000000Y39000000D03*
D110*
X35000000Y18250000D03*
D113*
X77828873Y37255443D03*
D110*
X82000000Y41500000D03*
D111*
X45500000Y38250000D03*
D111*
X26000000Y39750000D03*
D111*
X77850000Y22650000D03*
D113*
X54250000Y34000000D03*
D110*
X27375000Y3875000D03*
D111*
X76250000Y30500000D03*
D111*
X57500000Y11500000D03*
D115*
X72250000Y27000000D03*
D111*
X25500000Y11000000D03*
D111*
X71750000Y16500000D03*
D111*
X23500000Y26000000D03*
D110*
X51500000Y24000000D03*
D111*
X35750000Y25250000D03*
D111*
X53250000Y8578873D03*
D114*
X55000000Y21750000D03*
D111*
X29750000Y44000000D03*
D111*
X63198531Y17819041D03*
D111*
X56994557Y8578873D03*
D111*
X19500000Y52500000D03*
D112*
X60250000Y21500000D03*
D110*
X51750000Y46250000D03*
D114*
X60250000Y4625000D03*
D113*
X80750000Y41500000D03*
D111*
X26625000Y3875000D03*
D111*
X46500000Y40250000D03*
D111*
X67500000Y6750000D03*
D113*
X67250000Y6000000D03*
D111*
X78578873Y40630443D03*
D110*
X5250000Y41238045D03*
D113*
X51500000Y40000000D03*
D110*
X77828873Y38755443D03*
D111*
X85250000Y38250000D03*
D111*
X45500000Y21750000D03*
D111*
X51500000Y36000000D03*
D113*
X76250000Y9000000D03*
D114*
X3500000Y41250000D03*
D111*
X49000000Y42750000D03*
D112*
X21000000Y53000000D03*
D112*
X73500000Y18250000D03*
D111*
X1750000Y18750000D03*
D111*
X16500000Y52500000D03*
D111*
X45738827Y15994557D03*
D114*
X68250000Y14500000D03*
D111*
X1750000Y17250000D03*
D110*
X43750000Y21250000D03*
D112*
X35750000Y23000000D03*
D114*
X2500000Y41250000D03*
D111*
X80750000Y39000000D03*
D112*
X66750000Y33500000D03*
D113*
X49750000Y43250000D03*
D112*
X38500000Y16000000D03*
D114*
X72250000Y22550000D03*
D115*
X31000000Y51750000D03*
D112*
X55750000Y13250000D03*
D111*
X49500000Y39250000D03*
D110*
X51000000Y48000000D03*
D110*
X40000000Y18750000D03*
D113*
X64500000Y16750000D03*
D110*
X57500000Y21750000D03*
D112*
X73000000Y18750000D03*
D110*
X81500000Y23250000D03*
D112*
X9000000Y47000000D03*
D111*
X9500000Y40000000D03*
D111*
X50475000Y10700000D03*
D113*
X6500000Y24000000D03*
D110*
X26000000Y41250000D03*
D111*
X69775000Y5125000D03*
D112*
X73500000Y28250000D03*
D113*
X72125000Y40900000D03*
D115*
X28875000Y6125000D03*
D111*
X20000000Y15250000D03*
D112*
X48421127Y21744557D03*
D111*
X20750000Y13500000D03*
D113*
X8250000Y50000000D03*
D111*
X77269235Y25050011D03*
D111*
X63500000Y35750000D03*
D111*
X60000000Y45250000D03*
D111*
X7469668Y50530332D03*
D111*
X57383184Y46125000D03*
D111*
X74449990Y2750000D03*
D110*
X19000000Y53000000D03*
D111*
X13500000Y52750000D03*
D111*
X1750000Y15750000D03*
D113*
X72000000Y9250000D03*
D110*
X79750000Y18500000D03*
D111*
X63000000Y10250000D03*
D110*
X53994557Y8578873D03*
D110*
X73750000Y5000000D03*
D110*
X28125000Y6125000D03*
D110*
X48500000Y41250000D03*
D111*
X14750000Y45500000D03*
D113*
X53994557Y17578873D03*
D115*
X62480000Y6770000D03*
D111*
X2500000Y42250000D03*
D112*
X21750000Y24350030D03*
D111*
X54744557Y8578873D03*
D111*
X61051469Y12750000D03*
D110*
X77828873Y41755443D03*
D112*
X26000000Y36750000D03*
D111*
X52250000Y32000000D03*
D112*
X75500000Y12250000D03*
D114*
X45500000Y48000000D03*
D115*
X40000000Y21000000D03*
D114*
X21750000Y13500000D03*
D111*
X32500000Y47750000D03*
D114*
X18500000Y52500000D03*
D111*
X72250000Y18250000D03*
D110*
X55000000Y25500000D03*
D111*
X51500000Y41500000D03*
D113*
X56994557Y17578873D03*
D111*
X55494557Y17578873D03*
D110*
X69250000Y20000000D03*
D110*
X56250000Y31500000D03*
D111*
X37000000Y23000000D03*
D118*
X78025000Y27750000D03*
D111*
X11250000Y47750000D03*
D111*
X74750000Y28250000D03*
D115*
X56750000Y21250000D03*
D111*
X45238827Y28494557D03*
D111*
X56619557Y18328873D03*
D114*
X6250000Y40488045D03*
D114*
X70750000Y22000000D03*
D111*
X50475000Y10125000D03*
D111*
X61250000Y29250000D03*
D110*
X36500000Y52500000D03*
D111*
X45500000Y41250000D03*
D111*
X77050000Y22725000D03*
D115*
X44250000Y20500000D03*
D110*
X57000000Y26000000D03*
D113*
X23000000Y51250000D03*
D112*
X60000000Y38750000D03*
D114*
X21750000Y14500000D03*
D110*
X24500000Y38250000D03*
D113*
X44250000Y25301469D03*
D110*
X11000000Y44750000D03*
D111*
X57500000Y14000000D03*
D110*
X20125000Y3875000D03*
D111*
X80149999Y21000000D03*
D111*
X45500000Y39250000D03*
D113*
X52500000Y46250000D03*
D110*
X30000000Y29750000D03*
D111*
X32822488Y38750000D03*
D111*
X44250000Y23000000D03*
D112*
X50500000Y19125000D03*
D113*
X46000000Y43250000D03*
D110*
X82500000Y39750000D03*
D111*
X32500000Y33000000D03*
D110*
X12500000Y25750000D03*
D111*
X52750000Y21750000D03*
D111*
X-250000Y32250000D03*
D110*
X56250000Y35250000D03*
D111*
X9500000Y39250000D03*
D110*
X66750000Y28850000D03*
D111*
X72250000Y47500000D03*
D110*
X77828873Y41005443D03*
D114*
X39250000Y22125000D03*
D110*
X44750000Y21250000D03*
D111*
X24750000Y16750000D03*
D113*
X3500000Y26500000D03*
D116*
X82925000Y28475000D03*
D111*
X16250000Y27000000D03*
D114*
X32500000Y31250000D03*
D115*
X19375000Y6125000D03*
D111*
X72750000Y5000000D03*
D115*
X71500000Y18750000D03*
D114*
X77828873Y39505443D03*
D110*
X75750000Y46000000D03*
D110*
X71750000Y21621350D03*
D110*
X3750000Y36750000D03*
D113*
X72750000Y42500000D03*
D111*
X37500000Y49000000D03*
D110*
X39250000Y48500000D03*
D113*
X50250000Y22250000D03*
D111*
X1000000Y32250000D03*
D111*
X74000000Y18750000D03*
D110*
X59500000Y46500000D03*
D112*
X72250000Y23350000D03*
D111*
X55000000Y14000000D03*
D115*
X1750000Y11250000D03*
D113*
X56750000Y37500000D03*
D112*
X11000000Y3000000D03*
D111*
X1750000Y16500000D03*
D110*
X3000000Y41750000D03*
D115*
X28250000Y18500000D03*
D112*
X11000000Y49750000D03*
D111*
X48421127Y20994557D03*
D113*
X41500000Y50000000D03*
D111*
X47000000Y43250000D03*
D111*
X34000000Y26750000D03*
D111*
X42488827Y18244557D03*
D116*
X79750000Y28475000D03*
D111*
X12500000Y51250000D03*
D111*
X2500000Y27500000D03*
D111*
X45500000Y20500000D03*
D112*
X32822488Y34250000D03*
D111*
X66750000Y25850000D03*
D111*
X74000000Y26500000D03*
D115*
X11750000Y43250000D03*
D110*
X50475000Y11275000D03*
D111*
X75705546Y13668043D03*
D114*
X1750000Y12750000D03*
D110*
X28250000Y45500000D03*
D119*
X80425000Y27025000D03*
D111*
X15250000Y32750000D03*
D111*
X56244557Y17578873D03*
D113*
X45500000Y23000000D03*
D113*
X23000000Y41250000D03*
D111*
X32000000Y51750000D03*
D113*
X6250000Y25750000D03*
D111*
X70500000Y15250000D03*
D110*
X47671127Y22119557D03*
D111*
X20000000Y12750000D03*
D110*
X21500000Y41250000D03*
D111*
X74750000Y27000000D03*
D111*
X63000000Y11000000D03*
D114*
X17250000Y51000000D03*
D111*
X64500000Y19250000D03*
D111*
X11500000Y41500000D03*
D111*
X60900000Y25000000D03*
D111*
X44250000Y48250000D03*
D111*
X9750000Y47000000D03*
D115*
X67750000Y25000000D03*
D110*
X750000Y47500000D03*
D112*
X48421127Y22494557D03*
D111*
X9750000Y34250000D03*
D113*
X41750000Y38250000D03*
D111*
X29750000Y51250000D03*
D111*
X75250000Y22550000D03*
D112*
X30500000Y52500000D03*
D111*
X70000000Y24510022D03*
D111*
X67250000Y2570011D03*
D111*
X75607112Y6250000D03*
D111*
X52250000Y33500000D03*
D110*
X10000000Y3000000D03*
D111*
X55869557Y9328873D03*
D111*
X49000000Y35250000D03*
D110*
X23000000Y26500000D03*
D120*
X78000000Y27000000D03*
D110*
X46500000Y38250000D03*
D113*
X48421127Y19494557D03*
D112*
X28500000Y52250000D03*
D110*
X44750000Y22250000D03*
D111*
X75750000Y42500000D03*
D112*
X28250000Y32500000D03*
D114*
X50250000Y21500000D03*
D111*
X5000000Y27500000D03*
D111*
X29500000Y10000000D03*
D110*
X27750000Y29750000D03*
D111*
X48500000Y37250000D03*
D114*
X60000000Y28000000D03*
D110*
X70750000Y7625000D03*
D110*
X37000000Y21750000D03*
D111*
X72250000Y25750000D03*
D112*
X48500000Y39250000D03*
D111*
X64250000Y15500000D03*
D109*
X80425000Y28475000D03*
D112*
X56750000Y22250000D03*
D110*
X56250000Y16000000D03*
D113*
X23000000Y39750000D03*
D111*
X72350000Y12000000D03*
D111*
X76750000Y14250000D03*
D111*
X56250000Y14000000D03*
D113*
X40000000Y22500000D03*
D114*
X60000000Y31000000D03*
D110*
X11000000Y28750000D03*
D111*
X49500000Y38250000D03*
D111*
X57744557Y8578873D03*
D112*
X23000000Y36750000D03*
D112*
X20000000Y14000000D03*
D112*
X8250000Y35250000D03*
D112*
X6250000Y41238045D03*
D111*
X34000000Y17500000D03*
D113*
X52500000Y14250000D03*
D111*
X69250000Y24600000D03*
D111*
X1750000Y13500000D03*
D112*
X77780986Y23720777D03*
D112*
X72750000Y17500000D03*
D110*
X54000000Y37750000D03*
D111*
X70000008Y31250000D03*
D111*
X48500000Y40250000D03*
D111*
X36250000Y21250000D03*
D111*
X45988827Y28494557D03*
D111*
X28125000Y3875000D03*
D111*
X72782418Y20853148D03*
D111*
X56750000Y13250000D03*
D113*
X47671127Y21369557D03*
D111*
X60000000Y16000000D03*
D115*
X5250000Y26500000D03*
D120*
X81175000Y28475000D03*
D110*
X64500000Y18000000D03*
D111*
X73500000Y17000000D03*
D114*
X55000000Y12750000D03*
D110*
X11750000Y44250000D03*
D112*
X40000000Y24000000D03*
D111*
X28500000Y54000000D03*
D111*
X29000000Y51750000D03*
D113*
X55750000Y21250000D03*
D111*
X67679991Y16000000D03*
D114*
X60000000Y33000000D03*
D110*
X31500000Y52500000D03*
D111*
X20500000Y52500000D03*
D115*
X15000000Y41250000D03*
D113*
X66750000Y38000000D03*
D111*
X8500000Y30250000D03*
D111*
X77828873Y40255443D03*
D113*
X3500000Y42250000D03*
D111*
X6750000Y50000000D03*
D113*
X57383184Y45375000D03*
D111*
X85250000Y42250000D03*
D111*
X40000000Y19500000D03*
D110*
X32250000Y21000000D03*
D113*
X23500000Y27000000D03*
D111*
X51500000Y37500000D03*
D113*
X24500000Y39750000D03*
D110*
X48421127Y23994557D03*
D110*
X8500000Y29500000D03*
D113*
X1750000Y9000000D03*
D110*
X45500000Y37250000D03*
D111*
X52250000Y32750000D03*
D110*
X70750000Y9250000D03*
D110*
X46500000Y41250000D03*
D115*
X46500000Y39250000D03*
D111*
X22000000Y10250000D03*
D110*
X43500000Y38750000D03*
D110*
X51500000Y15000000D03*
D113*
X72250000Y15750000D03*
D113*
X57750000Y7000000D03*
D111*
X68750000Y9250000D03*
D111*
X53500000Y39750000D03*
D114*
X52750000Y23250000D03*
D112*
X47500000Y38250000D03*
D110*
X23000000Y25500000D03*
D110*
X46888827Y15994557D03*
D111*
X24500000Y41250000D03*
D113*
X39250000Y21375000D03*
D111*
X60250000Y5375000D03*
D110*
X80750000Y40250000D03*
D111*
X60000000Y30000000D03*
D110*
X73250000Y47500000D03*
D111*
X14500000Y29750000D03*
D111*
X19000000Y29750000D03*
D111*
X21500000Y38250000D03*
D114*
X32280001Y35000000D03*
D110*
X21250000Y15250000D03*
D113*
X13500000Y53750000D03*
D111*
X20875000Y3875000D03*
D113*
X50500000Y19700000D03*
D114*
X24500000Y51750000D03*
D111*
X66750000Y39500000D03*
D111*
X57500000Y38750000D03*
D110*
X56244557Y8578873D03*
D111*
X22500000Y14000000D03*
D110*
X1750000Y9750000D03*
D111*
X26000000Y38250000D03*
D111*
X34250000Y18250000D03*
D111*
X20875000Y6125000D03*
D113*
X74250000Y47500000D03*
D121*
X83425000Y28475000D03*
D111*
X32822488Y35750000D03*
D111*
X73000000Y27500000D03*
D111*
X6500000Y38738045D03*
D111*
X23500000Y51750000D03*
D110*
X2500000Y26500000D03*
D112*
X30750000Y39999989D03*
D111*
X11750000Y42250000D03*
D111*
X55500000Y28750000D03*
D111*
X3000000Y27000000D03*
D111*
X20125000Y6125000D03*
D110*
X17750000Y52500000D03*
D111*
X56250000Y20500000D03*
D111*
X52250000Y30500000D03*
D111*
X73500000Y15750000D03*
D111*
X70500000Y16250000D03*
D113*
X40000000Y23250000D03*
D113*
X48000000Y48500000D03*
D111*
X57250000Y44250000D03*
D111*
X60000000Y22500000D03*
D111*
X1750000Y18000000D03*
D111*
X22500000Y48000000D03*
D110*
X56250000Y26000000D03*
D110*
X-1000031Y19000000D03*
D111*
X25000000Y51250000D03*
D111*
X7250000Y30500000D03*
D112*
X22500000Y12750000D03*
D111*
X57500000Y20500000D03*
D111*
X9500000Y40750000D03*
D113*
X11250000Y46750000D03*
D110*
X35250000Y21250000D03*
D111*
X57250000Y43000000D03*
D114*
X11750000Y34500000D03*
D110*
X47500000Y39250000D03*
D112*
X6250000Y39738045D03*
D111*
X6250000Y26500000D03*
D111*
X19375000Y3875000D03*
D110*
X34869654Y52500000D03*
D112*
X80000000Y46000000D03*
D112*
X67750000Y9250000D03*
D111*
X26000000Y14750000D03*
D111*
X83250000Y41500000D03*
D111*
X60000000Y24500000D03*
D111*
X32822488Y46250000D03*
D111*
X28000000Y51750000D03*
D114*
X68750000Y21850000D03*
D112*
X43963343Y18268328D03*
D111*
X48421127Y23244557D03*
D111*
X55750000Y22250000D03*
D110*
X11000000Y42750000D03*
D110*
X57000000Y40000000D03*
D110*
X74000000Y27500000D03*
D114*
X72250000Y17000000D03*
D116*
X85175000Y27025000D03*
D111*
X69750000Y9250000D03*
D111*
X68469668Y24380332D03*
D111*
X18625000Y6125000D03*
D111*
X82500000Y40750000D03*
D114*
X79350000Y21150000D03*
D110*
X76250000Y15850000D03*
D111*
X32822488Y45250000D03*
D115*
X21500000Y36750000D03*
D111*
X69775000Y5875000D03*
D110*
X71000000Y18250000D03*
D110*
X74750000Y20750000D03*
D113*
X77235358Y24235358D03*
D110*
X56750000Y34750000D03*
D111*
X26000000Y22750000D03*
D111*
X64250000Y9250000D03*
D111*
X55869557Y18328873D03*
D110*
X47500000Y41250000D03*
D110*
X20750000Y14500000D03*
D110*
X23000000Y38250000D03*
D111*
X15000000Y47750000D03*
D113*
X68932925Y2570009D03*
D110*
X58750000Y4250000D03*
D111*
X78500000Y14750000D03*
D111*
X10500000Y31250000D03*
D110*
X40000000Y20250000D03*
D110*
X57000000Y31000000D03*
D111*
X83250000Y40250000D03*
D110*
X63250000Y20500000D03*
D111*
X20000000Y53000000D03*
M02*
