%FSLAX46Y46*%
%MOMM*%
%ADD15C,0.180000*%
%ADD13C,0.250000*%
%ADD16C,0.300000*%
%ADD14C,1.000000*%
%AMPS19*
1,1,1.250000,0.000000,0.000000*
%
%ADD19PS19*%
%AMPS21*
1,1,2.200000,0.000000,0.000000*
%
%ADD21PS21*%
%AMPS28*
1,1,1.700000,0.000000,0.000000*
%
%ADD28PS28*%
%AMPS26*
1,1,1.700000,0.000000,0.000000*
%
%ADD26PS26*%
%AMPS17*
1,1,2.200000,0.000000,0.000000*
%
%ADD17PS17*%
%AMPS27*
1,1,1.700000,0.000000,0.000000*
%
%ADD27PS27*%
%AMPS20*
1,1,1.250000,0.000000,0.000000*
%
%ADD20PS20*%
%AMPS24*
1,1,1.700000,0.000000,0.000000*
%
%ADD24PS24*%
%AMPS18*
1,1,1.250000,0.000000,0.000000*
%
%ADD18PS18*%
%AMPS25*
1,1,1.700000,0.000000,0.000000*
%
%ADD25PS25*%
%AMPS33*
1,1,0.550000,0.000000,0.000000*
%
%ADD33PS33*%
%AMPS41*
1,1,0.500000,0.000000,0.000000*
%
%ADD41PS41*%
%AMPS37*
1,1,0.500000,0.000000,0.000000*
%
%ADD37PS37*%
%AMPS32*
1,1,0.550000,0.000000,0.000000*
%
%ADD32PS32*%
%AMPS39*
1,1,0.500000,0.000000,0.000000*
%
%ADD39PS39*%
%AMPS38*
1,1,0.410000,0.000000,0.000000*
%
%ADD38PS38*%
%AMPS29*
1,1,0.500000,0.000000,0.000000*
%
%ADD29PS29*%
%AMPS34*
1,1,0.550000,0.000000,0.000000*
%
%ADD34PS34*%
%AMPS36*
1,1,0.500000,0.000000,0.000000*
%
%ADD36PS36*%
%AMPS30*
1,1,0.550000,0.000000,0.000000*
%
%ADD30PS30*%
%AMPS35*
1,1,0.550000,0.000000,0.000000*
%
%ADD35PS35*%
%AMPS40*
1,1,0.500000,0.000000,0.000000*
%
%ADD40PS40*%
%AMPS31*
1,1,0.550000,0.000000,0.000000*
%
%ADD31PS31*%
%AMPS22*
21,1,3.500000,5.537200,-0.020000,0.000000,270.000000*
%
%ADD22PS22*%
%AMPS12*
1,1,6.400000,0.000000,0.000000*
%
%ADD12PS12*%
%AMPS10*
1,1,6.400000,0.000000,0.000000*
%
%ADD10PS10*%
%AMPS11*
1,1,6.400000,0.000000,0.000000*
%
%ADD11PS11*%
%AMPS23*
21,1,3.500000,5.537200,0.020000,0.000000,270.000000*
%
%ADD23PS23*%
G01*
G01*
%LPD*%
D13*
X49664240Y32750000D02*
X52250000Y32750000D01*
D14*
X30000000Y8000000D02*
X33000000Y5000000D01*
D13*
X77000000Y48000000D02*
X70399999Y54600001D01*
D13*
X36731652Y49750000D02*
X38000000Y49750000D01*
D15*
X19500000Y52500000D02*
X19500000Y51750000D01*
D13*
X24750000Y52500000D02*
X25292880Y52500000D01*
D13*
X23000000Y48335759D02*
X23000000Y51250000D01*
D14*
X30000000Y29750000D02*
X31500000Y28250000D01*
D13*
X22500000Y53000000D02*
X22500000Y51750000D01*
D13*
X55500000Y28750000D02*
X52750000Y28750000D01*
D13*
X77250000Y7156470D02*
X78000000Y7906470D01*
D13*
X21000000Y51750000D02*
X21000000Y48611998D01*
D13*
X7931795Y41179297D02*
X7931795Y45883588D01*
D13*
X16749990Y28499990D02*
X15500000Y27250000D01*
D13*
X71774999Y11432121D02*
X75000000Y8207120D01*
D13*
X12500000Y42750000D02*
X15095122Y42750000D01*
D13*
X8000000Y11068286D02*
X8818286Y10250000D01*
D13*
X65250000Y28750000D02*
X66500000Y30000000D01*
D13*
X42500000Y32250000D02*
X40500000Y34250000D01*
D13*
X52000000Y3500000D02*
X64750000Y3500000D01*
D13*
X42292880Y31750000D02*
X48664240Y31750000D01*
D13*
X20250000Y43250000D02*
X16500000Y47000000D01*
D14*
X17000000Y8000000D02*
X30000000Y8000000D01*
D13*
X76288001Y21350001D02*
X74255703Y21350001D01*
D13*
X23628639Y47000000D02*
X30028640Y40599999D01*
D13*
X26000000Y54000000D02*
X26899999Y53100001D01*
D13*
X14888002Y42250000D02*
X16249980Y40888022D01*
D13*
X17750000Y52888908D02*
X18861092Y54000000D01*
D13*
X70611998Y11000000D02*
X69750000Y11861998D01*
D13*
X39500000Y33835760D02*
X39500000Y41335760D01*
D13*
X23774999Y24312997D02*
X23774999Y25725001D01*
D13*
X77500000Y11042880D02*
X78500000Y12042880D01*
D13*
X76000000Y1386410D02*
X76000000Y2697189D01*
D13*
X9800226Y23500066D02*
X3550160Y17250000D01*
D13*
X14000000Y47250000D02*
X11750000Y47250000D01*
D13*
X70399999Y54600001D02*
X17850001Y54600001D01*
D13*
X49250000Y25250000D02*
X49250000Y19435428D01*
D13*
X52250000Y33500000D02*
X49707120Y33500000D01*
D13*
X27250008Y48999992D02*
X27250008Y51957112D01*
D13*
X77000000Y44489474D02*
X77000000Y48000000D01*
D13*
X17750000Y26078480D02*
X17750000Y41509362D01*
D13*
X55649999Y46350001D02*
X55649999Y29600001D01*
D13*
X36499960Y35750040D02*
X36499960Y32593080D01*
D13*
X48000000Y48500000D02*
X48274999Y48774999D01*
D13*
X61500000Y22250000D02*
X61500000Y27500000D01*
D13*
X77350000Y26798998D02*
X77350000Y29900000D01*
D13*
X27000000Y23750000D02*
X26070001Y24679999D01*
D13*
X37835760Y43000000D02*
X29750000Y43000000D01*
D13*
X63921375Y1465035D02*
X75215035Y1465035D01*
D13*
X37999990Y39249990D02*
X37999990Y33214410D01*
D13*
X35442891Y37599989D02*
X36999970Y36042910D01*
D13*
X27250008Y51957112D02*
X25707100Y53500020D01*
D13*
X80749999Y14886411D02*
X80749999Y22888907D01*
D13*
X40000000Y41542880D02*
X40000000Y34042880D01*
D13*
X31292880Y43500000D02*
X38042880Y43500000D01*
D13*
X49078480Y30750000D02*
X41878640Y30750000D01*
D13*
X76500000Y2560779D02*
X77750000Y3810779D01*
D13*
X18861092Y54000000D02*
X26000000Y54000000D01*
D13*
X82049265Y43700735D02*
X81774266Y43425736D01*
D13*
X52536657Y12036657D02*
X51775000Y11275000D01*
D13*
X75000000Y4363590D02*
X74137989Y3501579D01*
D13*
X38000000Y49750000D02*
X39250000Y48500000D01*
D13*
X52250000Y30500000D02*
X49535600Y30500000D01*
D13*
X24000010Y53000010D02*
X23500000Y52500000D01*
D13*
X11042880Y20500000D02*
X15000000Y20500000D01*
D16*
X68321347Y20996349D02*
X65750000Y18425002D01*
D14*
X36750000Y28250000D02*
X37750000Y28250000D01*
D13*
X76250000Y4250000D02*
X76250000Y7500000D01*
D16*
X65000000Y15500000D02*
X64250000Y15500000D01*
D13*
X74915045Y1915045D02*
X75049990Y2049990D01*
D13*
X75049990Y3049990D02*
X76250000Y4250000D01*
D13*
X26444468Y39000000D02*
X25787998Y39000000D01*
D13*
X36649981Y40599999D02*
X37999990Y39249990D01*
D13*
X35150021Y37099979D02*
X36499960Y35750040D01*
D13*
X39250000Y28428800D02*
X34078799Y33600001D01*
D15*
X18500000Y52500000D02*
X18500000Y51750000D01*
D13*
X15000000Y20500000D02*
X21750000Y27250000D01*
D13*
X23421519Y46500000D02*
X22250000Y46500000D01*
D13*
X1750000Y9750000D02*
X6250000Y9750000D01*
D13*
X34942911Y36599969D02*
X35999950Y35542930D01*
D13*
X37678874Y18071126D02*
X37678874Y24178874D01*
D13*
X49250000Y19435428D02*
X48082900Y18268328D01*
D13*
X80749999Y22888907D02*
X81111092Y23250000D01*
D13*
X77750000Y3810779D02*
X77750000Y7000000D01*
D13*
X25250000Y42542880D02*
X25250000Y41037998D01*
D13*
X19500000Y47750000D02*
X21750020Y45499980D01*
D13*
X78500000Y10500000D02*
X80000000Y12000000D01*
D13*
X25250000Y39962002D02*
X24712002Y40500000D01*
D13*
X5000000Y16500000D02*
X5000000Y17992720D01*
D13*
X37628640Y42500000D02*
X29542880Y42500000D01*
D14*
X2250000Y31000000D02*
X2250000Y35225001D01*
D13*
X37421512Y41999992D02*
X37421520Y42000000D01*
D13*
X25707100Y53500020D02*
X23000020Y53500020D01*
D13*
X76500000Y1250000D02*
X76500000Y2560779D01*
D13*
X19000000Y47500000D02*
X21500000Y45000000D01*
D13*
X10421556Y22000036D02*
X14378676Y22000036D01*
D13*
X37499980Y33007300D02*
X37499980Y36250020D01*
D13*
X47725001Y48774999D02*
X48000000Y48500000D01*
D13*
X8818286Y10250000D02*
X12681714Y10250000D01*
D14*
X975001Y22024999D02*
X-250000Y23250000D01*
D13*
X13964456Y23000056D02*
X17250000Y26285600D01*
D13*
X11700002Y52750000D02*
X13500000Y52750000D01*
D13*
X77235358Y24235358D02*
X76846450Y24235358D01*
D13*
X63734975Y1015025D02*
X75628615Y1015025D01*
D16*
X65750000Y18425002D02*
X65750000Y16250000D01*
D13*
X73758850Y20853148D02*
X72782418Y20853148D01*
D13*
X62801469Y12750000D02*
X64250000Y14198531D01*
D13*
X52750000Y28750000D02*
X49250000Y25250000D01*
D13*
X13500000Y11068286D02*
X13500000Y16750000D01*
D13*
X36999970Y32800190D02*
X40749980Y29050180D01*
D14*
X4281999Y22556998D02*
X3750000Y22024999D01*
D13*
X38042880Y43500000D02*
X40000000Y41542880D01*
D13*
X10350001Y34850001D02*
X10350001Y51399999D01*
D13*
X5750000Y11250000D02*
X6499982Y11999982D01*
D13*
X25292880Y52500000D02*
X26250000Y51542880D01*
D13*
X49707120Y33500000D02*
X48457120Y32250000D01*
D13*
X48457120Y32250000D02*
X42500000Y32250000D01*
D13*
X55000000Y23888002D02*
X54250000Y23138002D01*
D13*
X25929999Y24679999D02*
X25929999Y29429999D01*
D14*
X61250000Y29250000D02*
X62000000Y30000000D01*
D13*
X39749960Y12921560D02*
X51171546Y1499974D01*
D13*
X24750000Y16750000D02*
X24750000Y23500000D01*
D13*
X37678874Y24178874D02*
X39250000Y25750000D01*
D13*
X24287998Y40500000D02*
X23750000Y41037998D01*
D13*
X39500000Y41335760D02*
X37835760Y43000000D01*
D13*
X22585800Y44499960D02*
X21250040Y44499960D01*
D13*
X29542880Y42500000D02*
X24000000Y48042880D01*
D13*
X38678894Y23764654D02*
X38678894Y18528226D01*
D13*
X53500000Y21750000D02*
X52750000Y21750000D01*
D13*
X23500000Y52500000D02*
X23500000Y51750000D01*
D13*
X17461994Y17999992D02*
X23774999Y24312997D01*
D14*
X9109418Y3000000D02*
X10000000Y3000000D01*
D13*
X77750000Y12000000D02*
X77750000Y15000000D01*
D13*
X40249970Y16957150D02*
X40249970Y13128670D01*
D13*
X52536657Y12768328D02*
X52536657Y12036657D01*
D13*
X5499962Y17785562D02*
X10214446Y22500046D01*
D13*
X78750000Y17500000D02*
X78750000Y18888002D01*
D13*
X66500000Y30000000D02*
X68250000Y30000000D01*
D13*
X12150001Y18500000D02*
X16787972Y18500000D01*
D13*
X1750000Y11250000D02*
X5750000Y11250000D01*
D13*
X25250000Y41037998D02*
X25787998Y40500000D01*
D13*
X40000000Y34042880D02*
X42292880Y31750000D01*
D13*
X69750000Y11861998D02*
X69750000Y12750000D01*
D13*
X73908000Y3170012D02*
X65390011Y3170012D01*
D13*
X23250000Y27250000D02*
X23500000Y27000000D01*
D13*
X36999970Y36042910D02*
X36999970Y32800190D01*
D13*
X10350001Y51399999D02*
X11700002Y52750000D01*
D13*
X9111092Y40000000D02*
X7931795Y41179297D01*
D13*
X17750000Y52500000D02*
X17750000Y52888908D01*
D13*
X25250000Y39537998D02*
X25250000Y39962002D01*
D13*
X34078799Y33600001D02*
X31844467Y33600001D01*
D13*
X6499982Y17371343D02*
X10628666Y21500026D01*
D13*
X76846450Y24235358D02*
X76250000Y24831808D01*
D13*
X5999972Y13500000D02*
X5999972Y17578453D01*
D13*
X40749980Y13335780D02*
X51585768Y2499992D01*
D13*
X63950009Y29200009D02*
X68111998Y33361998D01*
D13*
X55000000Y25500000D02*
X55000000Y23888002D01*
D13*
X23000020Y53500020D02*
X22500000Y53000000D01*
D14*
X62000000Y49750000D02*
X58000000Y53750000D01*
D13*
X77500000Y8042880D02*
X77500000Y11042880D01*
D13*
X8750000Y46250000D02*
X8250000Y46750000D01*
D13*
X63386426Y1999984D02*
X63921375Y1465035D01*
D13*
X5000000Y17992720D02*
X10007336Y23000056D01*
D16*
X65750000Y16250000D02*
X65000000Y15500000D01*
D13*
X50964436Y999964D02*
X50964472Y1000000D01*
D13*
X8250000Y46750000D02*
X8250000Y50000000D01*
D13*
X16749990Y41095132D02*
X16749990Y28499990D01*
D13*
X16500000Y47000000D02*
X14250000Y47000000D01*
D13*
X75815015Y565015D02*
X76500000Y1250000D01*
D13*
X41671536Y30250000D02*
X41671528Y30249992D01*
D13*
X40500000Y34250000D02*
X40500000Y41750000D01*
D13*
X15716482Y44250000D02*
X11750000Y44250000D01*
D13*
X39600001Y48850001D02*
X47649999Y48850001D01*
D13*
X40500000Y41750000D02*
X38250000Y44000000D01*
D14*
X62000000Y30000000D02*
X62000000Y49750000D01*
D14*
X-250000Y28500000D02*
X2250000Y31000000D01*
D13*
X55500000Y29450002D02*
X55500000Y28750000D01*
D13*
X18250008Y41716474D02*
X15716482Y44250000D01*
D13*
X24000000Y48042880D02*
X24000000Y51250000D01*
D13*
X15500000Y27250000D02*
X15500000Y25242720D01*
D14*
X11000000Y3000000D02*
X12000000Y3000000D01*
D13*
X75000000Y8207120D02*
X75000000Y4363590D01*
D13*
X19000000Y51750000D02*
X19000000Y47500000D01*
D13*
X49621360Y32000000D02*
X48871360Y31250000D01*
D13*
X52250000Y31250000D02*
X49578480Y31250000D01*
D13*
X78063738Y43425736D02*
X81774266Y43425736D01*
D13*
X78000000Y10750000D02*
X79500000Y12250000D01*
D13*
X35999950Y35542930D02*
X35999950Y32385970D01*
D13*
X81111092Y23250000D02*
X81500000Y23250000D01*
D13*
X19500000Y51750000D02*
X19500000Y47750000D01*
D13*
X23214409Y45999990D02*
X31614410Y37599989D01*
D13*
X20000000Y51750000D02*
X20000000Y48000000D01*
D13*
X39250000Y16500000D02*
X37678874Y18071126D01*
D13*
X40749980Y29050180D02*
X40749980Y13335780D01*
D13*
X40249970Y25335730D02*
X38678894Y23764654D01*
D13*
X22250000Y26500000D02*
X14750000Y19000000D01*
D14*
X58000000Y53750000D02*
X47500000Y53750000D01*
D13*
X7469668Y46345715D02*
X7469668Y50530332D01*
D14*
X7475001Y23531999D02*
X7475001Y27831997D01*
D13*
X75628615Y1015025D02*
X76000000Y1386410D01*
D13*
X74500000Y4500000D02*
X74500000Y8000000D01*
D13*
X75049990Y2049990D02*
X75049990Y3049990D01*
D13*
X3550160Y17250000D02*
X1750000Y17250000D01*
D13*
X17850001Y54600001D02*
X16500000Y53250000D01*
D13*
X77250000Y3947189D02*
X77250000Y7156470D01*
D13*
X16292880Y46500000D02*
X14042880Y46500000D01*
D13*
X71500000Y12000000D02*
X71774999Y11725001D01*
D13*
X4237451Y18750000D02*
X1750000Y18750000D01*
D13*
X31821520Y38099999D02*
X23421519Y46500000D01*
D13*
X20000000Y48000000D02*
X22000010Y45999990D01*
D13*
X65000000Y3750000D02*
X73750000Y3750000D01*
D13*
X25499990Y53000010D02*
X24000010Y53000010D01*
D13*
X9500000Y40000000D02*
X9111092Y40000000D01*
D13*
X38250000Y44000000D02*
X31500000Y44000000D01*
D13*
X5249972Y12750000D02*
X5999972Y13500000D01*
D13*
X15500000Y25242720D02*
X13757346Y23500066D01*
D13*
X77000000Y8250000D02*
X77000000Y11250000D01*
D13*
X77750000Y15000000D02*
X77250000Y15500000D01*
D13*
X63000000Y1000000D02*
X63434985Y565015D01*
D13*
X31400021Y37099979D02*
X35150021Y37099979D01*
D13*
X22250000Y46500000D02*
X20500000Y48250000D01*
D13*
X25787998Y40500000D02*
X26250000Y40500000D01*
D13*
X61051469Y12750000D02*
X62801469Y12750000D01*
D16*
X72871403Y21921351D02*
X71946401Y20996349D01*
D13*
X74137989Y3501579D02*
X74137989Y3400001D01*
D13*
X13792880Y46750000D02*
X11250000Y46750000D01*
D13*
X26250000Y48542880D02*
X31292880Y43500000D01*
D13*
X33381651Y53100001D02*
X36731652Y49750000D01*
D13*
X60900000Y25000000D02*
X60900000Y27536410D01*
D13*
X41750000Y29464400D02*
X41750000Y13750000D01*
D13*
X77350000Y29900000D02*
X76750000Y30500000D01*
D13*
X29750000Y43000000D02*
X25000000Y47750000D01*
D13*
X65219999Y3000000D02*
X51792880Y3000000D01*
D13*
X50964436Y999964D02*
X39250000Y12714400D01*
D13*
X25787998Y39000000D02*
X25250000Y39537998D01*
D13*
X68111998Y33361998D02*
X73611998Y33361998D01*
D13*
X51775000Y11275000D02*
X50475000Y11275000D01*
D13*
X39749960Y16750040D02*
X39749960Y12921560D01*
D13*
X51585768Y2499992D02*
X63750008Y2499992D01*
D13*
X17250000Y41302242D02*
X15302242Y43250000D01*
D13*
X7500000Y16957120D02*
X11042880Y20500000D01*
D13*
X60250000Y21500000D02*
X60750000Y21500000D01*
D13*
X14749992Y17999992D02*
X17461994Y17999992D01*
D13*
X82750000Y12886410D02*
X80749999Y14886411D01*
D13*
X48082900Y18268328D02*
X43963343Y18268328D01*
D13*
X15509362Y43750000D02*
X12500000Y43750000D01*
D13*
X23000020Y45499980D02*
X31400021Y37099979D01*
D14*
X10538706Y55500000D02*
X71500000Y55500000D01*
D13*
X47649999Y48850001D02*
X47725001Y48774999D01*
D13*
X49285600Y30250000D02*
X41671536Y30250000D01*
D13*
X21000000Y48611998D02*
X22611998Y47000000D01*
D13*
X4750000Y14250000D02*
X5499962Y14999962D01*
D13*
X16787972Y18500000D02*
X23000000Y24712028D01*
D13*
X9487525Y24000074D02*
X4237451Y18750000D01*
D13*
X78063738Y43425736D02*
X77000000Y44489474D01*
D14*
X47500000Y53750000D02*
X40750000Y53750000D01*
D13*
X23750000Y43335760D02*
X22585800Y44499960D01*
D13*
X48274999Y48774999D02*
X53225001Y48774999D01*
D13*
X51378656Y1999984D02*
X63386426Y1999984D01*
D13*
X39749960Y25542840D02*
X38178884Y23971764D01*
D13*
X77000000Y42361998D02*
X78063738Y43425736D01*
D13*
X48725001Y42475001D02*
X40524999Y42475001D01*
D13*
X51171546Y1499974D02*
X63250026Y1499974D01*
D13*
X48664240Y31750000D02*
X49664240Y32750000D01*
D14*
X10000000Y3000000D02*
X11000000Y3000000D01*
D13*
X42085760Y31250000D02*
X39500000Y33835760D01*
D14*
X3750000Y22024999D02*
X975001Y22024999D01*
D14*
X975001Y45936295D02*
X10538706Y55500000D01*
D14*
X6500000Y22556998D02*
X7475001Y23531999D01*
D13*
X14750000Y19000000D02*
X10250000Y19000000D01*
D13*
X23000000Y24712028D02*
X23000000Y25500000D01*
D14*
X12000000Y3000000D02*
X17000000Y8000000D01*
D13*
X53225001Y48774999D02*
X55649999Y46350001D01*
D13*
X10835776Y21000016D02*
X14792896Y21000016D01*
D13*
X16249980Y28707100D02*
X14999990Y27457110D01*
D13*
X14999990Y27457110D02*
X14999990Y25499990D01*
D13*
X4250000Y15750000D02*
X5000000Y16500000D01*
D13*
X38178884Y23971764D02*
X38178884Y18321116D01*
D13*
X48871360Y31250000D02*
X42085760Y31250000D01*
D13*
X16500000Y53250000D02*
X16500000Y52500000D01*
D13*
X36499960Y32593080D02*
X40249970Y28843070D01*
D14*
X6500000Y22556998D02*
X4281999Y22556998D01*
D13*
X31844467Y33600001D02*
X26444468Y39000000D01*
D13*
X9750000Y34250000D02*
X10350001Y34850001D01*
D13*
X38178884Y18321116D02*
X39749960Y16750040D01*
D13*
X39250000Y12714400D02*
X39250000Y16500000D01*
D13*
X73750000Y3750000D02*
X74500000Y4500000D01*
D13*
X22611998Y47000000D02*
X23628639Y47000000D01*
D13*
X35750000Y25250000D02*
X31500000Y25250000D01*
D13*
X80000000Y16250000D02*
X78750000Y17500000D01*
D16*
X71946401Y20996349D02*
X68321347Y20996349D01*
D13*
X14378676Y22000036D02*
X18250008Y25871368D01*
D13*
X77504056Y25762304D02*
X77504056Y26644942D01*
D13*
X13500074Y24000074D02*
X9487525Y24000074D01*
D15*
X21000000Y53000000D02*
X21000000Y51750000D01*
D13*
X25929999Y29429999D02*
X26225001Y29725001D01*
D13*
X30000000Y26750000D02*
X30000000Y29750000D01*
D13*
X75250000Y29750000D02*
X74238908Y29750000D01*
D14*
X975001Y36500000D02*
X975001Y45936295D01*
D15*
X12500000Y43750000D02*
X11000000Y43750000D01*
D13*
X6250000Y45845715D02*
X6750000Y46345715D01*
D13*
X24712002Y40500000D02*
X24287998Y40500000D01*
D13*
X26899999Y53100001D02*
X33381651Y53100001D01*
D13*
X74255703Y21350001D02*
X73758850Y20853148D01*
D13*
X71774999Y11725001D02*
X71774999Y11432121D01*
D13*
X76750000Y30500000D02*
X76250000Y30500000D01*
D13*
X22792910Y44999970D02*
X25250000Y42542880D01*
D13*
X6999992Y10499992D02*
X6999992Y17164232D01*
D14*
X-250000Y23250000D02*
X-250000Y28500000D01*
D13*
X60900000Y27536410D02*
X62563599Y29200009D01*
D13*
X24500000Y52250000D02*
X24750000Y52500000D01*
D13*
X63434985Y565015D02*
X75815015Y565015D01*
D13*
X64750000Y3500000D02*
X65000000Y3750000D01*
D13*
X76250000Y24831808D02*
X76250000Y28750000D01*
D13*
X38500000Y40921520D02*
X37421520Y42000000D01*
D13*
X76250000Y28750000D02*
X75250000Y29750000D01*
D13*
X1750000Y15750000D02*
X4250000Y15750000D01*
D13*
X5499962Y14999962D02*
X5499962Y17785562D01*
D13*
X6999992Y17164232D02*
X10835776Y21000016D01*
D13*
X25000000Y47750000D02*
X25000000Y51250000D01*
D13*
X6750000Y46345715D02*
X6750000Y50000000D01*
D13*
X78500000Y7750000D02*
X78500000Y10500000D01*
D13*
X77750000Y7000000D02*
X78500000Y7750000D01*
D13*
X11750000Y42250000D02*
X14888002Y42250000D01*
D13*
X21500000Y44999970D02*
X22792910Y44999970D01*
D13*
X75215035Y1465035D02*
X75500000Y1750000D01*
D13*
X74137989Y3400001D02*
X73908000Y3170012D01*
D13*
X26750000Y48750000D02*
X26750000Y51750000D01*
D13*
X80000000Y12000000D02*
X80000000Y16250000D01*
D13*
X14999990Y25499990D02*
X13500074Y24000074D01*
D16*
X80149999Y21000000D02*
X80149999Y21388908D01*
D13*
X76000000Y2697189D02*
X77250000Y3947189D01*
D13*
X79500000Y12250000D02*
X79500000Y15500000D01*
D13*
X63750008Y2499992D02*
X64334955Y1915045D01*
D13*
X9480000Y14040000D02*
X8000000Y12560000D01*
D13*
X40249970Y13128670D02*
X51378656Y1999984D01*
D13*
X22000010Y45999990D02*
X23214409Y45999990D01*
D13*
X38500000Y33421520D02*
X38500000Y40921520D01*
D13*
X11750000Y47250000D02*
X11250000Y47750000D01*
D14*
X3750000Y36750000D02*
X5500000Y35000000D01*
D13*
X17750000Y41509362D02*
X15509362Y43750000D01*
D13*
X14792896Y21000016D02*
X20250000Y26457120D01*
D13*
X74500000Y8000000D02*
X71500000Y11000000D01*
D13*
X77504056Y26644942D02*
X77350000Y26798998D01*
D14*
X31500000Y28250000D02*
X36750000Y28250000D01*
D13*
X39000000Y33628640D02*
X39000000Y41128640D01*
D14*
X7475001Y27831997D02*
X5500000Y29806998D01*
D13*
X54250000Y23138002D02*
X54250000Y22500000D01*
D13*
X50964436Y999964D02*
X50964434Y999966D01*
D14*
X33000000Y5000000D02*
X37750000Y5000000D01*
D13*
X7931795Y45883588D02*
X7469668Y46345715D01*
D13*
X61500000Y27500000D02*
X62750000Y28750000D01*
D13*
X78750000Y18888002D02*
X76288001Y21350001D01*
D13*
X23774999Y25725001D02*
X23500000Y26000000D01*
D15*
X12500000Y42750000D02*
X11000000Y42750000D01*
D13*
X30150031Y36599969D02*
X34942911Y36599969D01*
D13*
X26250000Y40500000D02*
X30150031Y36599969D01*
D13*
X14171566Y22500046D02*
X17750000Y26078480D01*
D13*
X38678894Y18528226D02*
X40249970Y16957150D01*
D13*
X39749960Y28635960D02*
X39749960Y25542840D01*
D13*
X76250000Y7500000D02*
X77000000Y8250000D01*
D13*
X17250000Y26285600D02*
X17250000Y41302242D01*
D13*
X76750000Y7292880D02*
X77500000Y8042880D01*
D13*
X1750000Y12750000D02*
X5249972Y12750000D01*
D14*
X37750000Y5000000D02*
X40000000Y2750000D01*
D13*
X18250008Y25871368D02*
X18250008Y41716474D01*
D13*
X5999972Y17578453D02*
X10421556Y22000036D01*
D13*
X40249970Y28843070D02*
X40249970Y25335730D01*
D13*
X41750000Y13750000D02*
X52000000Y3500000D01*
D13*
X12681714Y10250000D02*
X13500000Y11068286D01*
D13*
X75500000Y2833599D02*
X76750000Y4083599D01*
D13*
X49000000Y42750000D02*
X48725001Y42475001D01*
D13*
X13500000Y16750000D02*
X14749992Y17999992D01*
D13*
X41878640Y30750000D02*
X39000000Y33628640D01*
D13*
X29335768Y41999992D02*
X23000000Y48335759D01*
D13*
X24500000Y51750000D02*
X24500000Y52250000D01*
D13*
X26225001Y29725001D02*
X26500000Y30000000D01*
D13*
X52250000Y32000000D02*
X49621360Y32000000D01*
D13*
X71488908Y32500000D02*
X71100000Y32500000D01*
D13*
X82750000Y11500000D02*
X82750000Y12886410D01*
D13*
X10007336Y23000056D02*
X13964456Y23000056D01*
D13*
X20250000Y26457120D02*
X20250000Y43250000D01*
D13*
X21500000Y45000000D02*
X21500000Y44999970D01*
D13*
X21250040Y44499960D02*
X18500000Y47250000D01*
D13*
X74238908Y29750000D02*
X71488908Y32500000D01*
D13*
X73611998Y33361998D02*
X77000000Y36750000D01*
D13*
X64334955Y1915045D02*
X74915045Y1915045D01*
D13*
X35650001Y38099999D02*
X31821520Y38099999D01*
D13*
X9500000Y39250000D02*
X9111092Y39250000D01*
D13*
X6250000Y42111092D02*
X6250000Y45845715D01*
D13*
X62750000Y28750000D02*
X65250000Y28750000D01*
D13*
X9500000Y40750000D02*
X8750000Y41500000D01*
D15*
X20500000Y52500000D02*
X20500000Y51750000D01*
D13*
X78000000Y18750000D02*
X76250000Y20500000D01*
D13*
X30028640Y40599999D02*
X36649981Y40599999D01*
D13*
X10628666Y21500026D02*
X14585786Y21500026D01*
D13*
X38500000Y44500000D02*
X31750000Y44500000D01*
D13*
X13757346Y23500066D02*
X9800226Y23500066D01*
D13*
X31614410Y37599989D02*
X35442891Y37599989D01*
D13*
X10214446Y22500046D02*
X14171566Y22500046D01*
D13*
X15095122Y42750000D02*
X16749990Y41095132D01*
D13*
X41249990Y13542890D02*
X41249990Y29257290D01*
D15*
X20000000Y53000000D02*
X20000000Y51750000D01*
D13*
X63250026Y1499974D02*
X63734975Y1015025D01*
D13*
X39250000Y25750000D02*
X39250000Y28428800D01*
D13*
X10755010Y17105009D02*
X12150001Y18500000D01*
D13*
X29335768Y41999992D02*
X37421512Y41999992D01*
D13*
X77000000Y36750000D02*
X77000000Y42361998D01*
D13*
X31500000Y25250000D02*
X30000000Y26750000D01*
D13*
X60750000Y21500000D02*
X61500000Y22250000D01*
D13*
X8750000Y41500000D02*
X8750000Y46250000D01*
D13*
X31750000Y44500000D02*
X27250008Y48999992D01*
D14*
X71500000Y55500000D02*
X80000000Y47000000D01*
D13*
X78000000Y7906470D02*
X78000000Y10750000D01*
D13*
X14585786Y21500026D02*
X19749990Y26664230D01*
D13*
X26070001Y24679999D02*
X25929999Y24679999D01*
D14*
X2250000Y35225001D02*
X975001Y36500000D01*
D15*
X19000000Y53000000D02*
X19000000Y51750000D01*
D13*
X75500000Y1750000D02*
X75500000Y2833599D01*
D13*
X18500000Y47250000D02*
X18500000Y51750000D01*
D13*
X16249980Y40888022D02*
X16249980Y28707100D01*
D13*
X79500000Y15500000D02*
X78000000Y17000000D01*
D13*
X78000000Y17000000D02*
X78000000Y18750000D01*
D13*
X23000000Y26500000D02*
X22250000Y26500000D01*
D13*
X65390011Y3170012D02*
X65219999Y3000000D01*
D13*
X64250000Y14198531D02*
X64250000Y15500000D01*
D13*
X39000000Y41128640D02*
X37628640Y42500000D01*
D13*
X24750000Y23500000D02*
X25929999Y24679999D01*
D13*
X49535600Y30500000D02*
X49285600Y30250000D01*
D13*
X9111092Y39250000D02*
X6250000Y42111092D01*
D13*
X21750000Y27250000D02*
X23250000Y27250000D01*
D13*
X19749990Y43042890D02*
X16292880Y46500000D01*
D13*
X41249990Y29257290D02*
X37499980Y33007300D01*
D13*
X62563599Y29200009D02*
X63950009Y29200009D01*
D13*
X9480000Y6420000D02*
X7500000Y8400000D01*
D13*
X40524999Y42475001D02*
X38500000Y44500000D01*
D16*
X79617556Y21921351D02*
X72871403Y21921351D01*
D13*
X7500000Y8400000D02*
X7500000Y16957120D01*
D13*
X71500000Y11000000D02*
X70611998Y11000000D01*
D13*
X6250000Y9750000D02*
X6999992Y10499992D01*
D13*
X26250000Y51542880D02*
X26250000Y48542880D01*
D13*
X14042880Y46500000D02*
X13792880Y46750000D01*
D13*
X9480000Y18230000D02*
X9480000Y16580000D01*
D13*
X35999950Y32385970D02*
X39749960Y28635960D01*
D16*
X80149999Y21388908D02*
X79617556Y21921351D01*
D13*
X41671528Y30249992D02*
X38500000Y33421520D01*
D13*
X37499980Y36250020D02*
X35650001Y38099999D01*
D13*
X54250000Y22500000D02*
X53500000Y21750000D01*
D14*
X5500000Y35000000D02*
X5500000Y29806998D01*
D13*
X15302242Y43250000D02*
X11750000Y43250000D01*
D13*
X10250000Y19000000D02*
X9480000Y18230000D01*
D13*
X6499982Y11999982D02*
X6499982Y17371343D01*
D13*
X76750000Y4083599D02*
X76750000Y7292880D01*
D13*
X20500000Y48250000D02*
X20500000Y51750000D01*
D13*
X55649999Y29600001D02*
X55500000Y29450002D01*
D13*
X23750000Y41037998D02*
X23750000Y43335760D01*
D13*
X50964472Y1000000D02*
X63000000Y1000000D01*
D13*
X78500000Y12042880D02*
X78500000Y14750000D01*
D13*
X8000000Y12560000D02*
X8000000Y11068286D01*
D13*
X31500000Y44000000D02*
X26750000Y48750000D01*
D13*
X51792880Y3000000D02*
X41249990Y13542890D01*
D13*
X37999990Y33214410D02*
X41750000Y29464400D01*
D13*
X10755010Y12775010D02*
X10755010Y17105009D01*
D13*
X9480000Y11500000D02*
X10755010Y12775010D01*
D13*
X14250000Y47000000D02*
X14000000Y47250000D01*
D13*
X1750000Y14250000D02*
X4750000Y14250000D01*
D13*
X21750020Y45499980D02*
X23000020Y45499980D01*
D13*
X39250000Y48500000D02*
X39600001Y48850001D01*
D13*
X26750000Y51750000D02*
X25499990Y53000010D01*
D13*
X19749990Y26664230D02*
X19749990Y43042890D01*
D13*
X77000000Y11250000D02*
X77750000Y12000000D01*
D14*
X80000000Y47000000D02*
X80000000Y46000000D01*
D13*
X49578480Y31250000D02*
X49078480Y30750000D01*
D10*
X82000000Y53000000D03*
D11*
X82000000Y4000000D03*
D11*
X2000000Y4000000D03*
D12*
X2000000Y53000000D03*
D17*
X82750000Y11500000D03*
D18*
X84520000Y18230000D03*
D18*
X81980000Y18230000D03*
D19*
X81980000Y20770000D03*
D20*
X83250000Y19500000D03*
D19*
X84520000Y20770000D03*
D21*
X40000000Y2750000D03*
D22*
X83231000Y29860000D03*
D23*
X83231000Y25640000D03*
D17*
X33000000Y2750000D03*
D24*
X12020000Y14040000D03*
D25*
X9480000Y8960000D03*
D26*
X12020000Y6420000D03*
D26*
X9480000Y16580000D03*
D27*
X12020000Y16580000D03*
D25*
X9480000Y11500000D03*
D26*
X9480000Y6420000D03*
D28*
X12020000Y8960000D03*
D25*
X9480000Y14040000D03*
D27*
X12020000Y11500000D03*
D29*
X83425000Y27025000D03*
D30*
X70750000Y8375000D03*
D31*
X17000000Y48000000D03*
D31*
X53500000Y35750000D03*
D31*
X56750000Y7000000D03*
D31*
X74750000Y25750000D03*
D32*
X73000000Y26500000D03*
D32*
X63250000Y19750000D03*
D31*
X74000000Y15250000D03*
D33*
X46738827Y28494557D03*
D31*
X65250000Y9250000D03*
D34*
X1750000Y10500000D03*
D31*
X81500000Y40750000D03*
D30*
X54744557Y17578873D03*
D33*
X69750000Y12750000D03*
D30*
X22500000Y15250000D03*
D34*
X24000000Y51250000D03*
D30*
X9000000Y48000000D03*
D32*
X56750000Y12250000D03*
D31*
X47500000Y40250000D03*
D35*
X81500000Y39750000D03*
D31*
X71000000Y31500000D03*
D35*
X32822488Y39750000D03*
D30*
X50500000Y20275000D03*
D30*
X34500000Y23000000D03*
D32*
X75500000Y9000000D03*
D33*
X35750000Y18250000D03*
D33*
X70000000Y26850000D03*
D31*
X63500000Y41750000D03*
D32*
X27375000Y6125000D03*
D31*
X57500000Y23000000D03*
D33*
X71100000Y32500000D03*
D30*
X63250000Y19000000D03*
D30*
X43000000Y21750000D03*
D31*
X26530000Y26000000D03*
D31*
X60000000Y23500000D03*
D31*
X71750000Y30500000D03*
D35*
X77250000Y15500000D03*
D31*
X1750000Y14250000D03*
D31*
X71500000Y12000000D03*
D33*
X70500000Y18750000D03*
D31*
X36250000Y22250000D03*
D31*
X63000000Y11750000D03*
D35*
X55000000Y23000000D03*
D32*
X40750000Y53750000D03*
D31*
X37750000Y28250000D03*
D32*
X56250000Y11500000D03*
D33*
X21500000Y39750000D03*
D31*
X46750000Y33550000D03*
D31*
X34500000Y21750000D03*
D31*
X68500000Y6750000D03*
D31*
X73250000Y5500000D03*
D31*
X28250000Y35250000D03*
D31*
X32750000Y30000000D03*
D29*
X85175000Y28475000D03*
D31*
X60000000Y32000000D03*
D31*
X84500000Y22500000D03*
D32*
X46500000Y37250000D03*
D31*
X60000000Y15000000D03*
D30*
X48125000Y28494557D03*
D35*
X84250000Y45000000D03*
D31*
X72750000Y16500000D03*
D31*
X52536657Y12768328D03*
D31*
X58750000Y7000000D03*
D31*
X73750000Y6000000D03*
D35*
X49500000Y40250000D03*
D32*
X54250000Y34500000D03*
D33*
X77500000Y2500000D03*
D30*
X22500000Y51750000D03*
D31*
X30500000Y41250000D03*
D32*
X55000000Y11500000D03*
D32*
X28875000Y3875000D03*
D31*
X57500000Y12750000D03*
D31*
X29000000Y29750000D03*
D31*
X49500000Y41250000D03*
D30*
X71000000Y17000000D03*
D30*
X52500000Y44250000D03*
D33*
X68500000Y20250000D03*
D32*
X55494557Y8578873D03*
D34*
X32822488Y41250000D03*
D31*
X73000000Y15250000D03*
D31*
X55000000Y20500000D03*
D31*
X15250000Y33750000D03*
D30*
X53250000Y38250000D03*
D30*
X60000000Y14000000D03*
D33*
X52499129Y13517391D03*
D32*
X49500000Y37250000D03*
D31*
X21935000Y51000000D03*
D31*
X11000000Y43750000D03*
D33*
X34500000Y20500000D03*
D33*
X35250000Y22250000D03*
D33*
X35750000Y20500000D03*
D30*
X9109418Y3000000D03*
D32*
X70500000Y17750000D03*
D34*
X71750000Y17500000D03*
D31*
X26500000Y30000000D03*
D36*
X79750000Y27025000D03*
D32*
X52250000Y31250000D03*
D31*
X6250000Y25000000D03*
D31*
X76250000Y20500000D03*
D31*
X82049265Y43700735D03*
D31*
X25250000Y9750000D03*
D30*
X83250000Y39000000D03*
D31*
X77828873Y38005443D03*
D31*
X11000000Y46000000D03*
D30*
X67750000Y17750000D03*
D30*
X45500000Y40250000D03*
D31*
X29500000Y48000000D03*
D31*
X66750000Y13250000D03*
D31*
X75250000Y23350000D03*
D30*
X36750000Y28250000D03*
D30*
X43750000Y22250000D03*
D32*
X78578873Y39880443D03*
D30*
X57750000Y4250000D03*
D33*
X5000056Y42250056D03*
D31*
X56250000Y25250000D03*
D31*
X40000000Y21750000D03*
D31*
X56250000Y42250000D03*
D31*
X72250000Y28250000D03*
D37*
X78000000Y28500000D03*
D33*
X55750000Y12250000D03*
D31*
X71000000Y15750000D03*
D31*
X47500000Y37250000D03*
D31*
X3750000Y22024999D03*
D33*
X34000000Y49000000D03*
D33*
X26625000Y6125000D03*
D31*
X-250000Y47000000D03*
D32*
X24500000Y36750000D03*
D34*
X70500000Y12000000D03*
D30*
X43000000Y20500000D03*
D30*
X77504056Y25762304D03*
D33*
X48875000Y28494557D03*
D33*
X27000000Y23750000D03*
D31*
X48421127Y20244557D03*
D33*
X7250000Y45238045D03*
D31*
X1750000Y12000000D03*
D29*
X82925000Y27025000D03*
D31*
X74000000Y17750000D03*
D30*
X66750000Y44000000D03*
D31*
X73500000Y25750000D03*
D30*
X1750000Y15000000D03*
D32*
X72750000Y6000000D03*
D31*
X18625000Y3875000D03*
D31*
X56750000Y4250000D03*
D30*
X64500000Y20500000D03*
D30*
X76500000Y32000000D03*
D32*
X71500000Y15250000D03*
D31*
X37900000Y16000000D03*
D30*
X53500000Y39000000D03*
D33*
X37300000Y16000000D03*
D32*
X60500000Y6750000D03*
D31*
X37000000Y20500000D03*
D29*
X81175000Y27025000D03*
D30*
X46500000Y35250000D03*
D35*
X53250000Y17578873D03*
D31*
X48500000Y38250000D03*
D31*
X63198531Y17244041D03*
D34*
X21250000Y12750000D03*
D30*
X56619557Y9328873D03*
D31*
X43000000Y23000000D03*
D31*
X74000000Y16250000D03*
D33*
X63250000Y9250000D03*
D35*
X70750000Y6500000D03*
D32*
X47500000Y53750000D03*
D31*
X46313827Y15994557D03*
D31*
X56250000Y23000000D03*
D32*
X9750000Y48000000D03*
D32*
X54250000Y33500000D03*
D31*
X52750000Y22500000D03*
D32*
X3500000Y27500000D03*
D31*
X63000000Y26750000D03*
D31*
X50250000Y23000000D03*
D30*
X82000000Y39000000D03*
D30*
X35000000Y18250000D03*
D33*
X77828873Y37255443D03*
D30*
X82000000Y41500000D03*
D31*
X45500000Y38250000D03*
D31*
X26000000Y39750000D03*
D31*
X77850000Y22650000D03*
D33*
X54250000Y34000000D03*
D30*
X27375000Y3875000D03*
D31*
X76250000Y30500000D03*
D31*
X57500000Y11500000D03*
D35*
X72250000Y27000000D03*
D31*
X25500000Y11000000D03*
D31*
X71750000Y16500000D03*
D31*
X23500000Y26000000D03*
D30*
X51500000Y24000000D03*
D31*
X35750000Y25250000D03*
D31*
X53250000Y8578873D03*
D34*
X55000000Y21750000D03*
D31*
X29750000Y44000000D03*
D31*
X63198531Y17819041D03*
D31*
X56994557Y8578873D03*
D31*
X19500000Y52500000D03*
D32*
X60250000Y21500000D03*
D30*
X51750000Y46250000D03*
D34*
X60250000Y4625000D03*
D33*
X80750000Y41500000D03*
D31*
X26625000Y3875000D03*
D31*
X46500000Y40250000D03*
D31*
X67500000Y6750000D03*
D33*
X67250000Y6000000D03*
D31*
X78578873Y40630443D03*
D30*
X5250000Y41238045D03*
D33*
X51500000Y40000000D03*
D30*
X77828873Y38755443D03*
D31*
X85250000Y38250000D03*
D31*
X45500000Y21750000D03*
D31*
X51500000Y36000000D03*
D33*
X76250000Y9000000D03*
D34*
X3500000Y41250000D03*
D31*
X49000000Y42750000D03*
D32*
X21000000Y53000000D03*
D32*
X73500000Y18250000D03*
D31*
X1750000Y18750000D03*
D31*
X16500000Y52500000D03*
D31*
X45738827Y15994557D03*
D34*
X68250000Y14500000D03*
D31*
X1750000Y17250000D03*
D30*
X43750000Y21250000D03*
D32*
X35750000Y23000000D03*
D34*
X2500000Y41250000D03*
D31*
X80750000Y39000000D03*
D32*
X66750000Y33500000D03*
D33*
X49750000Y43250000D03*
D32*
X38500000Y16000000D03*
D34*
X72250000Y22550000D03*
D35*
X31000000Y51750000D03*
D32*
X55750000Y13250000D03*
D31*
X49500000Y39250000D03*
D30*
X51000000Y48000000D03*
D30*
X40000000Y18750000D03*
D33*
X64500000Y16750000D03*
D30*
X57500000Y21750000D03*
D32*
X73000000Y18750000D03*
D30*
X81500000Y23250000D03*
D32*
X9000000Y47000000D03*
D31*
X9500000Y40000000D03*
D31*
X50475000Y10700000D03*
D33*
X6500000Y24000000D03*
D30*
X26000000Y41250000D03*
D31*
X69775000Y5125000D03*
D32*
X73500000Y28250000D03*
D33*
X72125000Y40900000D03*
D35*
X28875000Y6125000D03*
D31*
X20000000Y15250000D03*
D32*
X48421127Y21744557D03*
D31*
X20750000Y13500000D03*
D33*
X8250000Y50000000D03*
D31*
X77269235Y25050011D03*
D31*
X63500000Y35750000D03*
D31*
X60000000Y45250000D03*
D31*
X7469668Y50530332D03*
D31*
X57383184Y46125000D03*
D31*
X74449990Y2750000D03*
D30*
X19000000Y53000000D03*
D31*
X13500000Y52750000D03*
D31*
X1750000Y15750000D03*
D33*
X72000000Y9250000D03*
D30*
X79750000Y18500000D03*
D31*
X63000000Y10250000D03*
D30*
X53994557Y8578873D03*
D30*
X73750000Y5000000D03*
D30*
X28125000Y6125000D03*
D30*
X48500000Y41250000D03*
D31*
X14750000Y45500000D03*
D33*
X53994557Y17578873D03*
D35*
X62480000Y6770000D03*
D31*
X2500000Y42250000D03*
D32*
X21750000Y24350030D03*
D31*
X54744557Y8578873D03*
D31*
X61051469Y12750000D03*
D30*
X77828873Y41755443D03*
D32*
X26000000Y36750000D03*
D31*
X52250000Y32000000D03*
D32*
X75500000Y12250000D03*
D34*
X45500000Y48000000D03*
D35*
X40000000Y21000000D03*
D34*
X21750000Y13500000D03*
D31*
X32500000Y47750000D03*
D34*
X18500000Y52500000D03*
D31*
X72250000Y18250000D03*
D30*
X55000000Y25500000D03*
D31*
X51500000Y41500000D03*
D33*
X56994557Y17578873D03*
D31*
X55494557Y17578873D03*
D30*
X69250000Y20000000D03*
D30*
X56250000Y31500000D03*
D31*
X37000000Y23000000D03*
D38*
X78025000Y27750000D03*
D31*
X11250000Y47750000D03*
D31*
X74750000Y28250000D03*
D35*
X56750000Y21250000D03*
D31*
X45238827Y28494557D03*
D31*
X56619557Y18328873D03*
D34*
X6250000Y40488045D03*
D34*
X70750000Y22000000D03*
D31*
X50475000Y10125000D03*
D31*
X61250000Y29250000D03*
D30*
X36500000Y52500000D03*
D31*
X45500000Y41250000D03*
D31*
X77050000Y22725000D03*
D35*
X44250000Y20500000D03*
D30*
X57000000Y26000000D03*
D33*
X23000000Y51250000D03*
D32*
X60000000Y38750000D03*
D34*
X21750000Y14500000D03*
D30*
X24500000Y38250000D03*
D33*
X44250000Y25301469D03*
D30*
X11000000Y44750000D03*
D31*
X57500000Y14000000D03*
D30*
X20125000Y3875000D03*
D31*
X80149999Y21000000D03*
D31*
X45500000Y39250000D03*
D33*
X52500000Y46250000D03*
D30*
X30000000Y29750000D03*
D31*
X32822488Y38750000D03*
D31*
X44250000Y23000000D03*
D32*
X50500000Y19125000D03*
D33*
X46000000Y43250000D03*
D30*
X82500000Y39750000D03*
D31*
X32500000Y33000000D03*
D30*
X12500000Y25750000D03*
D31*
X52750000Y21750000D03*
D31*
X-250000Y32250000D03*
D30*
X56250000Y35250000D03*
D31*
X9500000Y39250000D03*
D30*
X66750000Y28850000D03*
D31*
X72250000Y47500000D03*
D30*
X77828873Y41005443D03*
D34*
X39250000Y22125000D03*
D30*
X44750000Y21250000D03*
D31*
X24750000Y16750000D03*
D33*
X3500000Y26500000D03*
D36*
X82925000Y28475000D03*
D31*
X16250000Y27000000D03*
D34*
X32500000Y31250000D03*
D35*
X19375000Y6125000D03*
D31*
X72750000Y5000000D03*
D35*
X71500000Y18750000D03*
D34*
X77828873Y39505443D03*
D30*
X75750000Y46000000D03*
D30*
X71750000Y21621350D03*
D30*
X3750000Y36750000D03*
D33*
X72750000Y42500000D03*
D31*
X37500000Y49000000D03*
D30*
X39250000Y48500000D03*
D33*
X50250000Y22250000D03*
D31*
X1000000Y32250000D03*
D31*
X74000000Y18750000D03*
D30*
X59500000Y46500000D03*
D32*
X72250000Y23350000D03*
D31*
X55000000Y14000000D03*
D35*
X1750000Y11250000D03*
D33*
X56750000Y37500000D03*
D32*
X11000000Y3000000D03*
D31*
X1750000Y16500000D03*
D30*
X3000000Y41750000D03*
D35*
X28250000Y18500000D03*
D32*
X11000000Y49750000D03*
D31*
X48421127Y20994557D03*
D33*
X41500000Y50000000D03*
D31*
X47000000Y43250000D03*
D31*
X34000000Y26750000D03*
D31*
X42488827Y18244557D03*
D36*
X79750000Y28475000D03*
D31*
X12500000Y51250000D03*
D31*
X2500000Y27500000D03*
D31*
X45500000Y20500000D03*
D32*
X32822488Y34250000D03*
D31*
X66750000Y25850000D03*
D31*
X74000000Y26500000D03*
D35*
X11750000Y43250000D03*
D30*
X50475000Y11275000D03*
D31*
X75705546Y13668043D03*
D34*
X1750000Y12750000D03*
D30*
X28250000Y45500000D03*
D39*
X80425000Y27025000D03*
D31*
X15250000Y32750000D03*
D31*
X56244557Y17578873D03*
D33*
X45500000Y23000000D03*
D33*
X23000000Y41250000D03*
D31*
X32000000Y51750000D03*
D33*
X6250000Y25750000D03*
D31*
X70500000Y15250000D03*
D30*
X47671127Y22119557D03*
D31*
X20000000Y12750000D03*
D30*
X21500000Y41250000D03*
D31*
X74750000Y27000000D03*
D31*
X63000000Y11000000D03*
D34*
X17250000Y51000000D03*
D31*
X64500000Y19250000D03*
D31*
X11500000Y41500000D03*
D31*
X60900000Y25000000D03*
D31*
X44250000Y48250000D03*
D31*
X9750000Y47000000D03*
D35*
X67750000Y25000000D03*
D30*
X750000Y47500000D03*
D32*
X48421127Y22494557D03*
D31*
X9750000Y34250000D03*
D33*
X41750000Y38250000D03*
D31*
X29750000Y51250000D03*
D31*
X75250000Y22550000D03*
D32*
X30500000Y52500000D03*
D31*
X70000000Y24510022D03*
D31*
X67250000Y2570011D03*
D31*
X75607112Y6250000D03*
D31*
X52250000Y33500000D03*
D30*
X10000000Y3000000D03*
D31*
X55869557Y9328873D03*
D31*
X49000000Y35250000D03*
D30*
X23000000Y26500000D03*
D40*
X78000000Y27000000D03*
D30*
X46500000Y38250000D03*
D33*
X48421127Y19494557D03*
D32*
X28500000Y52250000D03*
D30*
X44750000Y22250000D03*
D31*
X75750000Y42500000D03*
D32*
X28250000Y32500000D03*
D34*
X50250000Y21500000D03*
D31*
X5000000Y27500000D03*
D31*
X29500000Y10000000D03*
D30*
X27750000Y29750000D03*
D31*
X48500000Y37250000D03*
D34*
X60000000Y28000000D03*
D30*
X70750000Y7625000D03*
D30*
X37000000Y21750000D03*
D31*
X72250000Y25750000D03*
D32*
X48500000Y39250000D03*
D31*
X64250000Y15500000D03*
D29*
X80425000Y28475000D03*
D32*
X56750000Y22250000D03*
D30*
X56250000Y16000000D03*
D33*
X23000000Y39750000D03*
D31*
X72350000Y12000000D03*
D31*
X76750000Y14250000D03*
D31*
X56250000Y14000000D03*
D33*
X40000000Y22500000D03*
D34*
X60000000Y31000000D03*
D30*
X11000000Y28750000D03*
D31*
X49500000Y38250000D03*
D31*
X57744557Y8578873D03*
D32*
X23000000Y36750000D03*
D32*
X20000000Y14000000D03*
D32*
X8250000Y35250000D03*
D32*
X6250000Y41238045D03*
D31*
X34000000Y17500000D03*
D33*
X52500000Y14250000D03*
D31*
X69250000Y24600000D03*
D31*
X1750000Y13500000D03*
D32*
X77780986Y23720777D03*
D32*
X72750000Y17500000D03*
D30*
X54000000Y37750000D03*
D31*
X70000008Y31250000D03*
D31*
X48500000Y40250000D03*
D31*
X36250000Y21250000D03*
D31*
X45988827Y28494557D03*
D31*
X28125000Y3875000D03*
D31*
X72782418Y20853148D03*
D31*
X56750000Y13250000D03*
D33*
X47671127Y21369557D03*
D31*
X60000000Y16000000D03*
D35*
X5250000Y26500000D03*
D40*
X81175000Y28475000D03*
D30*
X64500000Y18000000D03*
D31*
X73500000Y17000000D03*
D34*
X55000000Y12750000D03*
D30*
X11750000Y44250000D03*
D32*
X40000000Y24000000D03*
D31*
X28500000Y54000000D03*
D31*
X29000000Y51750000D03*
D33*
X55750000Y21250000D03*
D31*
X67679991Y16000000D03*
D34*
X60000000Y33000000D03*
D30*
X31500000Y52500000D03*
D31*
X20500000Y52500000D03*
D35*
X15000000Y41250000D03*
D33*
X66750000Y38000000D03*
D31*
X8500000Y30250000D03*
D31*
X77828873Y40255443D03*
D33*
X3500000Y42250000D03*
D31*
X6750000Y50000000D03*
D33*
X57383184Y45375000D03*
D31*
X85250000Y42250000D03*
D31*
X40000000Y19500000D03*
D30*
X32250000Y21000000D03*
D33*
X23500000Y27000000D03*
D31*
X51500000Y37500000D03*
D33*
X24500000Y39750000D03*
D30*
X48421127Y23994557D03*
D30*
X8500000Y29500000D03*
D33*
X1750000Y9000000D03*
D30*
X45500000Y37250000D03*
D31*
X52250000Y32750000D03*
D30*
X70750000Y9250000D03*
D30*
X46500000Y41250000D03*
D35*
X46500000Y39250000D03*
D31*
X22000000Y10250000D03*
D30*
X43500000Y38750000D03*
D30*
X51500000Y15000000D03*
D33*
X72250000Y15750000D03*
D33*
X57750000Y7000000D03*
D31*
X68750000Y9250000D03*
D31*
X53500000Y39750000D03*
D34*
X52750000Y23250000D03*
D32*
X47500000Y38250000D03*
D30*
X23000000Y25500000D03*
D30*
X46888827Y15994557D03*
D31*
X24500000Y41250000D03*
D33*
X39250000Y21375000D03*
D31*
X60250000Y5375000D03*
D30*
X80750000Y40250000D03*
D31*
X60000000Y30000000D03*
D30*
X73250000Y47500000D03*
D31*
X14500000Y29750000D03*
D31*
X19000000Y29750000D03*
D31*
X21500000Y38250000D03*
D34*
X32280001Y35000000D03*
D30*
X21250000Y15250000D03*
D33*
X13500000Y53750000D03*
D31*
X20875000Y3875000D03*
D33*
X50500000Y19700000D03*
D34*
X24500000Y51750000D03*
D31*
X66750000Y39500000D03*
D31*
X57500000Y38750000D03*
D30*
X56244557Y8578873D03*
D31*
X22500000Y14000000D03*
D30*
X1750000Y9750000D03*
D31*
X26000000Y38250000D03*
D31*
X34250000Y18250000D03*
D31*
X20875000Y6125000D03*
D33*
X74250000Y47500000D03*
D41*
X83425000Y28475000D03*
D31*
X32822488Y35750000D03*
D31*
X73000000Y27500000D03*
D31*
X6500000Y38738045D03*
D31*
X23500000Y51750000D03*
D30*
X2500000Y26500000D03*
D32*
X30750000Y39999989D03*
D31*
X11750000Y42250000D03*
D31*
X55500000Y28750000D03*
D31*
X3000000Y27000000D03*
D31*
X20125000Y6125000D03*
D30*
X17750000Y52500000D03*
D31*
X56250000Y20500000D03*
D31*
X52250000Y30500000D03*
D31*
X73500000Y15750000D03*
D31*
X70500000Y16250000D03*
D33*
X40000000Y23250000D03*
D33*
X48000000Y48500000D03*
D31*
X57250000Y44250000D03*
D31*
X60000000Y22500000D03*
D31*
X1750000Y18000000D03*
D31*
X22500000Y48000000D03*
D30*
X56250000Y26000000D03*
D30*
X-1000031Y19000000D03*
D31*
X25000000Y51250000D03*
D31*
X7250000Y30500000D03*
D32*
X22500000Y12750000D03*
D31*
X57500000Y20500000D03*
D31*
X9500000Y40750000D03*
D33*
X11250000Y46750000D03*
D30*
X35250000Y21250000D03*
D31*
X57250000Y43000000D03*
D34*
X11750000Y34500000D03*
D30*
X47500000Y39250000D03*
D32*
X6250000Y39738045D03*
D31*
X6250000Y26500000D03*
D31*
X19375000Y3875000D03*
D30*
X34869654Y52500000D03*
D32*
X80000000Y46000000D03*
D32*
X67750000Y9250000D03*
D31*
X26000000Y14750000D03*
D31*
X83250000Y41500000D03*
D31*
X60000000Y24500000D03*
D31*
X32822488Y46250000D03*
D31*
X28000000Y51750000D03*
D34*
X68750000Y21850000D03*
D32*
X43963343Y18268328D03*
D31*
X48421127Y23244557D03*
D31*
X55750000Y22250000D03*
D30*
X11000000Y42750000D03*
D30*
X57000000Y40000000D03*
D30*
X74000000Y27500000D03*
D34*
X72250000Y17000000D03*
D36*
X85175000Y27025000D03*
D31*
X69750000Y9250000D03*
D31*
X68469668Y24380332D03*
D31*
X18625000Y6125000D03*
D31*
X82500000Y40750000D03*
D34*
X79350000Y21150000D03*
D30*
X76250000Y15850000D03*
D31*
X32822488Y45250000D03*
D35*
X21500000Y36750000D03*
D31*
X69775000Y5875000D03*
D30*
X71000000Y18250000D03*
D30*
X74750000Y20750000D03*
D33*
X77235358Y24235358D03*
D30*
X56750000Y34750000D03*
D31*
X26000000Y22750000D03*
D31*
X64250000Y9250000D03*
D31*
X55869557Y18328873D03*
D30*
X47500000Y41250000D03*
D30*
X20750000Y14500000D03*
D30*
X23000000Y38250000D03*
D31*
X15000000Y47750000D03*
D33*
X68932925Y2570009D03*
D30*
X58750000Y4250000D03*
D31*
X78500000Y14750000D03*
D31*
X10500000Y31250000D03*
D30*
X40000000Y20250000D03*
D30*
X57000000Y31000000D03*
D31*
X83250000Y40250000D03*
D30*
X63250000Y20500000D03*
D31*
X20000000Y53000000D03*
M02*
