%FSLAX46Y46*%
%MOMM*%
%ADD16C,0.180000*%
%ADD14C,0.200000*%
%ADD13C,0.250000*%
%ADD18C,0.280000*%
%ADD17C,0.500000*%
%ADD15C,1.000000*%
%AMPS24*
1,1,1.250000,0.000000,0.000000*
%
%ADD24PS24*%
%AMPS28*
1,1,2.200000,0.000000,0.000000*
%
%ADD28PS28*%
%AMPS42*
1,1,1.700000,0.000000,0.000000*
%
%ADD42PS42*%
%AMPS40*
1,1,1.700000,0.000000,0.000000*
%
%ADD40PS40*%
%AMPS20*
1,1,2.200000,0.000000,0.000000*
%
%ADD20PS20*%
%AMPS41*
1,1,1.700000,0.000000,0.000000*
%
%ADD41PS41*%
%AMPS25*
1,1,1.250000,0.000000,0.000000*
%
%ADD25PS25*%
%AMPS38*
1,1,1.700000,0.000000,0.000000*
%
%ADD38PS38*%
%AMPS23*
1,1,1.250000,0.000000,0.000000*
%
%ADD23PS23*%
%AMPS39*
1,1,1.700000,0.000000,0.000000*
%
%ADD39PS39*%
%AMPS19*
21,1,0.800000,0.750000,0.000000,0.000000,0.000000*
%
%ADD19PS19*%
%AMPS30*
21,1,0.800000,0.750000,0.000000,0.000000,270.000000*
%
%ADD30PS30*%
%AMPS32*
21,1,0.800000,0.750000,0.000000,0.000000,180.000000*
%
%ADD32PS32*%
%AMPS29*
21,1,0.800000,0.750000,0.000000,0.000000,90.000000*
%
%ADD29PS29*%
%AMPS36*
21,1,0.500000,0.900000,0.000000,0.000000,0.000000*
%
%ADD36PS36*%
%AMPS31*
21,1,0.500000,0.900000,0.000000,0.000000,270.000000*
%
%ADD31PS31*%
%AMPS26*
21,1,0.500000,0.900000,0.000000,0.000000,180.000000*
%
%ADD26PS26*%
%AMPS21*
21,1,0.500000,0.900000,0.000000,0.000000,90.000000*
%
%ADD21PS21*%
%AMPS27*
21,1,0.600000,0.500000,0.000000,0.000000,0.000000*
%
%ADD27PS27*%
%AMPS22*
21,1,0.600000,0.500000,0.000000,0.000000,270.000000*
%
%ADD22PS22*%
%AMPS35*
21,1,0.600000,0.500000,0.000000,0.000000,180.000000*
%
%ADD35PS35*%
%AMPS37*
21,1,0.600000,0.500000,0.000000,0.000000,90.000000*
%
%ADD37PS37*%
%AMPS47*
1,1,0.550000,0.000000,0.000000*
%
%ADD47PS47*%
%AMPS55*
1,1,0.500000,0.000000,0.000000*
%
%ADD55PS55*%
%AMPS51*
1,1,0.500000,0.000000,0.000000*
%
%ADD51PS51*%
%AMPS46*
1,1,0.550000,0.000000,0.000000*
%
%ADD46PS46*%
%AMPS53*
1,1,0.500000,0.000000,0.000000*
%
%ADD53PS53*%
%AMPS52*
1,1,0.410000,0.000000,0.000000*
%
%ADD52PS52*%
%AMPS43*
1,1,0.500000,0.000000,0.000000*
%
%ADD43PS43*%
%AMPS48*
1,1,0.550000,0.000000,0.000000*
%
%ADD48PS48*%
%AMPS50*
1,1,0.500000,0.000000,0.000000*
%
%ADD50PS50*%
%AMPS44*
1,1,0.550000,0.000000,0.000000*
%
%ADD44PS44*%
%AMPS49*
1,1,0.550000,0.000000,0.000000*
%
%ADD49PS49*%
%AMPS54*
1,1,0.500000,0.000000,0.000000*
%
%ADD54PS54*%
%AMPS45*
1,1,0.550000,0.000000,0.000000*
%
%ADD45PS45*%
%AMPS33*
21,1,3.500000,5.537200,-0.020000,0.000000,270.000000*
%
%ADD33PS33*%
%AMPS12*
1,1,6.400000,0.000000,0.000000*
%
%ADD12PS12*%
%AMPS10*
1,1,6.400000,0.000000,0.000000*
%
%ADD10PS10*%
%AMPS11*
1,1,6.400000,0.000000,0.000000*
%
%ADD11PS11*%
%AMPS34*
21,1,3.500000,5.537200,0.020000,0.000000,270.000000*
%
%ADD34PS34*%
G01*
G01*
%LPD*%
D13*
X31500000Y50750000D02*
X31000000Y51250000D01*
D13*
X72750000Y39118328D02*
X72750000Y42500000D01*
D14*
X57927512Y45575000D02*
X58575000Y44927512D01*
D13*
X49250000Y45500000D02*
X49250000Y45750000D01*
D13*
X68469668Y25393922D02*
X68211999Y25651591D01*
D13*
X68211999Y25651591D02*
X68211999Y32461999D01*
D13*
X40500000Y49250000D02*
X39500000Y50250000D01*
D13*
X500000Y35500000D02*
X6750000Y35500000D01*
D13*
X25054985Y22750000D02*
X26000000Y22750000D01*
D13*
X54500000Y40000000D02*
X55000000Y40000000D01*
D13*
X7469668Y51969668D02*
X7469668Y50530332D01*
D13*
X72225000Y12125000D02*
X72350000Y12000000D01*
D14*
X57383184Y45375000D02*
X57583184Y45575000D01*
D14*
X57383184Y46125000D02*
X57583184Y45925000D01*
D15*
X33500000Y16000000D02*
X28750000Y20750000D01*
D13*
X79600000Y19650000D02*
X79750000Y19500000D01*
D13*
X44861998Y49750000D02*
X43861998Y48750000D01*
D13*
X72225000Y13000000D02*
X72225000Y12125000D01*
D13*
X44654868Y50249990D02*
X43654878Y49250000D01*
D13*
X77699989Y25050011D02*
X77269235Y25050011D01*
D13*
X69000000Y32250000D02*
X69000000Y44414240D01*
D13*
X76500000Y19500000D02*
X76500000Y18750000D01*
D13*
X63285600Y52250000D02*
X39500000Y52250000D01*
D13*
X-500000Y18500000D02*
X-500000Y18000000D01*
D15*
X45738827Y15994557D02*
X38500000Y16000000D01*
D13*
X26000000Y25250000D02*
X25679290Y25570710D01*
D13*
X78750000Y23750000D02*
X78500000Y24000000D01*
D13*
X68500000Y44207120D02*
X62457130Y50249990D01*
D13*
X69250000Y20000000D02*
X69524999Y20274999D01*
D13*
X70500000Y21000000D02*
X70500000Y21750000D01*
D13*
X47000000Y44000000D02*
X47000000Y43250000D01*
D13*
X71500000Y42750000D02*
X72500000Y43750000D01*
D13*
X75250000Y43750000D02*
X75750000Y43250000D01*
D13*
X22750000Y10250000D02*
X26000000Y13500000D01*
D13*
X6750000Y48750000D02*
X715484Y48750000D01*
D13*
X35750000Y18250000D02*
X37300000Y16700000D01*
D13*
X69000000Y44414240D02*
X62664240Y50750000D01*
D13*
X28500000Y53000000D02*
X28500000Y52250000D01*
D16*
X23000000Y26500000D02*
X23732602Y26500000D01*
D13*
X69500000Y31750000D02*
X69500000Y44621360D01*
D13*
X76800000Y26000000D02*
X77266360Y26000000D01*
D13*
X8250000Y51750000D02*
X11500000Y55000000D01*
D13*
X70000000Y26850000D02*
X70000000Y27500000D01*
D13*
X39750000Y52750000D02*
X38750000Y53750000D01*
D13*
X73500000Y18250000D02*
X72250000Y17000000D01*
D17*
X48000000Y46750000D02*
X46750000Y48000000D01*
D13*
X11000000Y28750000D02*
X11250000Y28750000D01*
D13*
X76300000Y21900000D02*
X76300000Y22250000D01*
D13*
X71650000Y25750000D02*
X72250000Y25750000D01*
D13*
X24750000Y27000000D02*
X23500000Y27000000D01*
D18*
X67475001Y17475001D02*
X67750000Y17750000D01*
D13*
X63492720Y52750000D02*
X39750000Y52750000D01*
D13*
X71100000Y32900000D02*
X71000000Y33000000D01*
D13*
X-500000Y9000000D02*
X-500000Y9550000D01*
D13*
X76250000Y3750000D02*
X77500000Y2500000D01*
D13*
X77400000Y22200000D02*
X77850000Y22650000D01*
D13*
X23500000Y21750000D02*
X26500000Y21750000D01*
D16*
X23732602Y26500000D02*
X24500000Y25732602D01*
D13*
X38500000Y53250000D02*
X30861092Y53250000D01*
D17*
X46750000Y48000000D02*
X45500000Y48000000D01*
D13*
X62250000Y49750000D02*
X44861998Y49750000D01*
D13*
X75750000Y43250000D02*
X75750000Y42500000D01*
D13*
X26000000Y14750000D02*
X24750000Y16000000D01*
D14*
X58072488Y45925000D02*
X58925000Y45072488D01*
D13*
X-250000Y32250000D02*
X-250000Y34750000D01*
D13*
X75000000Y19500000D02*
X75000000Y20500000D01*
D13*
X74250000Y47500000D02*
X74250000Y48500000D01*
D13*
X63078480Y51750000D02*
X70000008Y44828472D01*
D13*
X21250000Y51250000D02*
X20500000Y51250000D01*
D13*
X1750000Y12000000D02*
X1000000Y12000000D01*
D13*
X1000000Y16500000D02*
X1750000Y16500000D01*
D13*
X31000000Y51250000D02*
X31000000Y51750000D01*
D13*
X715484Y48750000D02*
X-250000Y47784516D01*
D18*
X76023907Y8384999D02*
X76250000Y8611092D01*
D13*
X33000000Y51750000D02*
X63078480Y51750000D01*
D13*
X49250000Y43638002D02*
X49250000Y44000000D01*
D13*
X77500000Y18500000D02*
X76750000Y18500000D01*
D13*
X-500000Y14000000D02*
X-250000Y14250000D01*
D13*
X76300000Y22250000D02*
X76000000Y22550000D01*
D16*
X24500000Y25732602D02*
X24500000Y25250000D01*
D13*
X-250000Y15750000D02*
X1750000Y15750000D01*
D13*
X26530000Y26970000D02*
X26500000Y27000000D01*
D13*
X21250000Y51250000D02*
X21250000Y50000000D01*
D13*
X27000000Y22250000D02*
X27000000Y23750000D01*
D13*
X74750000Y17000000D02*
X73500000Y18250000D01*
D13*
X54250000Y39750000D02*
X54500000Y40000000D01*
D13*
X7250000Y43238045D02*
X7250000Y43750000D01*
D13*
X18000000Y51000000D02*
X17250000Y51000000D01*
D13*
X68250000Y15000000D02*
X68250000Y14500000D01*
D13*
X23500000Y21750000D02*
X23000000Y22250000D01*
D13*
X28000000Y50500000D02*
X28000000Y51750000D01*
D13*
X11000000Y55500000D02*
X7469668Y51969668D01*
D14*
X68427512Y5175000D02*
X60450000Y5175000D01*
D13*
X30861092Y53250000D02*
X30500000Y52888908D01*
D13*
X70000000Y26750000D02*
X70000000Y26850000D01*
D13*
X-500000Y9550000D02*
X-300000Y9750000D01*
D15*
X45738827Y15994557D02*
X46313827Y15994557D01*
D13*
X5250000Y26500000D02*
X7250000Y28500000D01*
D13*
X72500000Y43750000D02*
X75250000Y43750000D01*
D13*
X22250000Y53000000D02*
X21500000Y52250000D01*
D13*
X31500000Y52500000D02*
X32250000Y52500000D01*
D13*
X1750000Y18750000D02*
X-250000Y18750000D01*
D13*
X34250000Y34750000D02*
X33500000Y34750000D01*
D13*
X71475001Y22163001D02*
X71475001Y21896349D01*
D14*
X68927512Y5675000D02*
X68427512Y5175000D01*
D13*
X33322488Y36250000D02*
X32822488Y35750000D01*
D13*
X-500000Y12500000D02*
X-250000Y12750000D01*
D13*
X7250000Y48250000D02*
X6750000Y48750000D01*
D13*
X70000000Y25690364D02*
X69250000Y26440364D01*
D13*
X19000000Y52000000D02*
X18500000Y52500000D01*
D18*
X72750000Y10250000D02*
X70750000Y10250000D01*
D14*
X60450000Y4825000D02*
X60250000Y4625000D01*
D13*
X73700000Y22550000D02*
X73750000Y22500000D01*
D13*
X81250000Y23000000D02*
X81500000Y23250000D01*
D13*
X32250000Y52500000D02*
X33000000Y51750000D01*
D15*
X37900000Y16000000D02*
X38500000Y16000000D01*
D13*
X53638908Y38250000D02*
X53250000Y38250000D01*
D13*
X26000000Y13500000D02*
X26000000Y14750000D01*
D13*
X21750000Y26750000D02*
X21750000Y24350030D01*
D13*
X70500000Y45035600D02*
X63285600Y52250000D01*
D13*
X24500000Y23750000D02*
X24500000Y23304985D01*
D13*
X73800000Y22550000D02*
X73750000Y22500000D01*
D13*
X24750000Y16000000D02*
X24750000Y16750000D01*
D13*
X79000000Y18500000D02*
X79750000Y18500000D01*
D13*
X28750000Y49750000D02*
X28000000Y50500000D01*
D13*
X40250000Y48750000D02*
X39250000Y49750000D01*
D13*
X-500000Y17000000D02*
X-250000Y17250000D01*
D13*
X68000000Y44000002D02*
X62250000Y49750000D01*
D13*
X23000000Y23250000D02*
X23000000Y22250000D01*
D13*
X29500000Y50250000D02*
X29000000Y50750000D01*
D13*
X78750000Y23000000D02*
X78750000Y23750000D01*
D13*
X-250000Y34750000D02*
X500000Y35500000D01*
D13*
X77400000Y21900000D02*
X77400000Y22200000D01*
D13*
X1750000Y15000000D02*
X1000000Y15000000D01*
D13*
X76250000Y14750000D02*
X76750000Y14250000D01*
D13*
X33500000Y34750000D02*
X33250000Y35000000D01*
D18*
X67064990Y17064990D02*
X67475001Y17475001D01*
D13*
X26500000Y21750000D02*
X27000000Y22250000D01*
D15*
X33500000Y16000000D02*
X37300000Y16000000D01*
D13*
X69250000Y31500000D02*
X69500000Y31750000D01*
D13*
X-250000Y47784516D02*
X-250000Y47000000D01*
D13*
X70450000Y26250000D02*
X70450000Y26300000D01*
D13*
X69524999Y20274999D02*
X69524999Y22163001D01*
D13*
X69250000Y26440364D02*
X69250000Y31500000D01*
D13*
X1750000Y18000000D02*
X1000000Y18000000D01*
D13*
X75000000Y12250000D02*
X74250000Y13000000D01*
D14*
X57583184Y45575000D02*
X57927512Y45575000D01*
D13*
X21500000Y52250000D02*
X21500000Y51500000D01*
D14*
X69575000Y5675000D02*
X68927512Y5675000D01*
D13*
X44250000Y25301469D02*
X44000000Y25551469D01*
D18*
X70750000Y10250000D02*
X67064990Y13935010D01*
D13*
X69250000Y25500000D02*
X68750000Y26000000D01*
D13*
X71100000Y32500000D02*
X71100000Y32900000D01*
D13*
X29000000Y50750000D02*
X29000000Y51750000D01*
D14*
X69575000Y5325000D02*
X69072488Y5325000D01*
D13*
X70000008Y44828472D02*
X70000008Y31250000D01*
D13*
X54250000Y39250000D02*
X54250000Y39750000D01*
D18*
X74615001Y8384999D02*
X76023907Y8384999D01*
D13*
X75750000Y25750000D02*
X74750000Y25750000D01*
D13*
X39500000Y52250000D02*
X38500000Y53250000D01*
D13*
X26530000Y26000000D02*
X26530000Y26970000D01*
D14*
X57583184Y45925000D02*
X58072488Y45925000D01*
D13*
X71250000Y23350000D02*
X72250000Y23350000D01*
D13*
X75000000Y23700000D02*
X75000000Y23600000D01*
D13*
X72000000Y30250000D02*
X71750000Y30500000D01*
D13*
X43654878Y49250000D02*
X40500000Y49250000D01*
D13*
X34250000Y36250000D02*
X33322488Y36250000D01*
D13*
X21500000Y51500000D02*
X21250000Y51250000D01*
D13*
X-250000Y14250000D02*
X1750000Y14250000D01*
D13*
X47250000Y44250000D02*
X47000000Y44000000D01*
D13*
X24500000Y23304985D02*
X25054985Y22750000D01*
D13*
X68750000Y26000000D02*
X68750000Y32000000D01*
D13*
X78050000Y24700000D02*
X77699989Y25050011D01*
D13*
X76250000Y24850000D02*
X76250000Y25250000D01*
D13*
X7250000Y28500000D02*
X7250000Y30500000D01*
D13*
X75000000Y20500000D02*
X74750000Y20750000D01*
D13*
X76250000Y23350000D02*
X75250000Y23350000D01*
D13*
X8250000Y50000000D02*
X8250000Y51750000D01*
D13*
X71250000Y25350000D02*
X71650000Y25750000D01*
D13*
X76500000Y35368328D02*
X72750000Y39118328D01*
D13*
X68250000Y16250000D02*
X67929991Y16250000D01*
D14*
X58575000Y44927512D02*
X58575000Y9177512D01*
D13*
X78500000Y24700000D02*
X78050000Y24700000D01*
D13*
X30500000Y52888908D02*
X30500000Y52500000D01*
D13*
X-500000Y13500000D02*
X-500000Y14000000D01*
D13*
X70500000Y32000000D02*
X70500000Y45035600D01*
D13*
X69961999Y22600001D02*
X71038001Y22600001D01*
D13*
X70000000Y24510022D02*
X70000000Y25690364D01*
D13*
X1000000Y10500000D02*
X1750000Y10500000D01*
D13*
X72000000Y30050000D02*
X72325000Y30050000D01*
D13*
X25679290Y26070710D02*
X24750000Y27000000D01*
D15*
X8500000Y29500000D02*
X8500000Y30250000D01*
D13*
X1000000Y13500000D02*
X1750000Y13500000D01*
D13*
X66750000Y56000000D02*
X10500000Y56000000D01*
D13*
X24500000Y52138908D02*
X24250000Y52388908D01*
D14*
X70550000Y8175000D02*
X70750000Y8375000D01*
D13*
X72250000Y49085760D02*
X72250000Y47500000D01*
D13*
X68000000Y33300001D02*
X68000000Y44000002D01*
D14*
X60450000Y5175000D02*
X60250000Y5375000D01*
D13*
X73250000Y48792880D02*
X66542880Y55500000D01*
D13*
X19000000Y51250000D02*
X19000000Y52000000D01*
D13*
X33250000Y35000000D02*
X32280001Y35000000D01*
D13*
X48000000Y46750000D02*
X48000000Y44250000D01*
D13*
X15810000Y10250000D02*
X22000000Y10250000D01*
D13*
X71750000Y30500000D02*
X71750000Y33000000D01*
D13*
X62664240Y50750000D02*
X31500000Y50750000D01*
D15*
X46313827Y15994557D02*
X46888827Y15994557D01*
D13*
X71000000Y45242720D02*
X63492720Y52750000D01*
D13*
X49000000Y42750000D02*
X49000000Y43388002D01*
D13*
X48000000Y44250000D02*
X47250000Y44250000D01*
D13*
X25679290Y25570710D02*
X25679290Y26070710D01*
D13*
X71500000Y33250000D02*
X71500000Y42750000D01*
D13*
X72500000Y23600000D02*
X72250000Y23350000D01*
D13*
X24250000Y52388908D02*
X24250000Y53000000D01*
D15*
X28750000Y20750000D02*
X13000000Y20750000D01*
D13*
X69250000Y24600000D02*
X69250000Y25500000D01*
D13*
X-500000Y15000000D02*
X-500000Y15500000D01*
D13*
X76250000Y15850000D02*
X76250000Y17000000D01*
D13*
X72000000Y30050000D02*
X72000000Y30250000D01*
D13*
X54000000Y39000000D02*
X54250000Y39250000D01*
D13*
X77266360Y26000000D02*
X77504056Y25762304D01*
D13*
X7250000Y35000000D02*
X7250000Y30500000D01*
D18*
X74615001Y8384999D02*
X72750000Y10250000D01*
D13*
X24500000Y51750000D02*
X24500000Y52138908D01*
D13*
X66335760Y55000000D02*
X72250000Y49085760D01*
D13*
X68469668Y24380332D02*
X68469668Y25393922D01*
D13*
X78500000Y24000000D02*
X78500000Y24700000D01*
D13*
X71250000Y24850000D02*
X71250000Y25350000D01*
D13*
X7250000Y43750000D02*
X7250000Y45238045D01*
D14*
X59927512Y7825000D02*
X70550000Y7825000D01*
D13*
X71750000Y33000000D02*
X71500000Y33250000D01*
D13*
X32500000Y51250000D02*
X32000000Y51750000D01*
D13*
X76250000Y25250000D02*
X75750000Y25750000D01*
D13*
X75500000Y12250000D02*
X75000000Y12250000D01*
D13*
X-500000Y11000000D02*
X-250000Y11250000D01*
D13*
X75750000Y30500000D02*
X76250000Y30500000D01*
D13*
X76500000Y32000000D02*
X76500000Y35368328D01*
D13*
X72500000Y23700000D02*
X72500000Y23600000D01*
D13*
X70975000Y12475000D02*
X70500000Y12000000D01*
D13*
X44000000Y33500000D02*
X44500000Y34000000D01*
D13*
X6750000Y52250000D02*
X6750000Y50000000D01*
D13*
X70500000Y21750000D02*
X70750000Y22000000D01*
D13*
X75000000Y23600000D02*
X75250000Y23350000D01*
D13*
X53500000Y39000000D02*
X54000000Y39000000D01*
D14*
X69775000Y5875000D02*
X69575000Y5675000D01*
D13*
X23000000Y24750000D02*
X23000000Y25500000D01*
D13*
X38750000Y53750000D02*
X29250000Y53750000D01*
D13*
X67750000Y33050001D02*
X68000000Y33300001D01*
D13*
X67250000Y2570011D02*
X68429989Y3750000D01*
D13*
X55000000Y38500000D02*
X53888908Y38500000D01*
D13*
X-250000Y18750000D02*
X-500000Y18500000D01*
D13*
X-500000Y15500000D02*
X-250000Y15750000D01*
D13*
X-500000Y12000000D02*
X-500000Y12500000D01*
D13*
X71038001Y22600001D02*
X71475001Y22163001D01*
D13*
X75250000Y22550000D02*
X73800000Y22550000D01*
D13*
X29250000Y53750000D02*
X28500000Y53000000D01*
D13*
X11750000Y49750000D02*
X11000000Y49750000D01*
D13*
X71750000Y21000000D02*
X71750000Y21621350D01*
D14*
X58925000Y9322488D02*
X60072488Y8175000D01*
D13*
X62871360Y51250000D02*
X32500000Y51250000D01*
D14*
X69072488Y5325000D02*
X68572488Y4825000D01*
D13*
X-250000Y12750000D02*
X1750000Y12750000D01*
D13*
X44500000Y34000000D02*
X44750000Y34000000D01*
D13*
X70450000Y26300000D02*
X70000000Y26750000D01*
D13*
X12020000Y14040000D02*
X15810000Y10250000D01*
D13*
X-500000Y10500000D02*
X-500000Y11000000D01*
D13*
X71000000Y31500000D02*
X70500000Y32000000D01*
D13*
X-250000Y11250000D02*
X1750000Y11250000D01*
D13*
X44000000Y25551469D02*
X44000000Y33500000D01*
D13*
X75750000Y30050000D02*
X75750000Y30500000D01*
D13*
X37300000Y16700000D02*
X37300000Y16000000D01*
D13*
X26000000Y23750000D02*
X27000000Y23750000D01*
D13*
X72325000Y30050000D02*
X72775000Y30500000D01*
D13*
X69524999Y22163001D02*
X69961999Y22600001D01*
D13*
X68429989Y3750000D02*
X76250000Y3750000D01*
D13*
X78050000Y19650000D02*
X78050000Y20350000D01*
D13*
X70975000Y13000000D02*
X70975000Y12475000D01*
D14*
X70550000Y7825000D02*
X70750000Y7625000D01*
D13*
X68500000Y32750000D02*
X68500000Y44207120D01*
D14*
X69775000Y5125000D02*
X69575000Y5325000D01*
D13*
X66542880Y55500000D02*
X11000000Y55500000D01*
D13*
X39250000Y49750000D02*
X28750000Y49750000D01*
D18*
X67064990Y13935010D02*
X67064990Y17064990D01*
D13*
X67750000Y25000000D02*
X67750000Y33050001D01*
D13*
X79750000Y19500000D02*
X79750000Y18500000D01*
D13*
X-300000Y9750000D02*
X1750000Y9750000D01*
D14*
X58925000Y45072488D02*
X58925000Y9322488D01*
D15*
X13000000Y20750000D02*
X8500000Y25250000D01*
D14*
X68572488Y4825000D02*
X60450000Y4825000D01*
D13*
X-500000Y16500000D02*
X-500000Y17000000D01*
D14*
X58575000Y9177512D02*
X59927512Y7825000D01*
D13*
X-250000Y17250000D02*
X1750000Y17250000D01*
D13*
X29500000Y10000000D02*
X26000000Y13500000D01*
D13*
X22000000Y10250000D02*
X22750000Y10250000D01*
D13*
X72775000Y30500000D02*
X73250000Y30500000D01*
D13*
X68750000Y32000000D02*
X69000000Y32250000D01*
D13*
X53888908Y38500000D02*
X53638908Y38250000D01*
D13*
X5250000Y41238045D02*
X7250000Y43238045D01*
D15*
X37300000Y16000000D02*
X37900000Y16000000D01*
D13*
X79150000Y19650000D02*
X79600000Y19650000D01*
D13*
X71475001Y21896349D02*
X71750000Y21621350D01*
D13*
X78850000Y21150000D02*
X79350000Y21150000D01*
D13*
X71000000Y33000000D02*
X71000000Y45242720D01*
D13*
X72250000Y22550000D02*
X73700000Y22550000D01*
D13*
X39500000Y50250000D02*
X29500000Y50250000D01*
D13*
X49250000Y45750000D02*
X48250000Y46750000D01*
D13*
X68211999Y32461999D02*
X68500000Y32750000D01*
D13*
X74250000Y48500000D02*
X66750000Y56000000D01*
D13*
X74500000Y30500000D02*
X75750000Y30500000D01*
D13*
X69500000Y44621360D02*
X62871360Y51250000D01*
D13*
X48250000Y46750000D02*
X48000000Y46750000D01*
D13*
X22750000Y53000000D02*
X22250000Y53000000D01*
D13*
X43861998Y48750000D02*
X40250000Y48750000D01*
D13*
X6750000Y35500000D02*
X7250000Y35000000D01*
D13*
X80250000Y23000000D02*
X81250000Y23000000D01*
D13*
X11250000Y28750000D02*
X11750000Y28250000D01*
D13*
X7250000Y45238045D02*
X7250000Y48250000D01*
D15*
X8500000Y25250000D02*
X8500000Y29500000D01*
D13*
X49000000Y43388002D02*
X49250000Y43638002D01*
D13*
X33250000Y49000000D02*
X34000000Y49000000D01*
D14*
X60072488Y8175000D02*
X70550000Y8175000D01*
D13*
X76500000Y18750000D02*
X76750000Y18500000D01*
D13*
X10500000Y56000000D02*
X6750000Y52250000D01*
D13*
X62457130Y50249990D02*
X44654868Y50249990D01*
D18*
X76250000Y8611092D02*
X76250000Y9000000D01*
D13*
X72250000Y16750000D02*
X72250000Y17000000D01*
D13*
X67929991Y16250000D02*
X67679991Y16000000D01*
D13*
X73250000Y47500000D02*
X73250000Y48792880D01*
D13*
X11500000Y55000000D02*
X66335760Y55000000D01*
D13*
X76000000Y22550000D02*
X75250000Y22550000D01*
D13*
X78050000Y20350000D02*
X78850000Y21150000D01*
D13*
X1750000Y9000000D02*
X1000000Y9000000D01*
D13*
X73475000Y13000000D02*
X74250000Y13000000D01*
D10*
X82000000Y53000000D03*
D11*
X82000000Y4000000D03*
D11*
X2000000Y4000000D03*
D12*
X2000000Y53000000D03*
D19*
X50800000Y36750000D03*
D19*
X52300000Y36750000D03*
D19*
X11750000Y36500000D03*
D19*
X13250000Y36500000D03*
D20*
X82750000Y11500000D03*
D21*
X24500000Y25250000D03*
D21*
X24500000Y23750000D03*
D22*
X47250000Y36300000D03*
D22*
X47250000Y35200000D03*
D23*
X84520000Y18230000D03*
D23*
X81980000Y18230000D03*
D24*
X81980000Y20770000D03*
D25*
X83250000Y19500000D03*
D24*
X84520000Y20770000D03*
D26*
X-500000Y10500000D03*
D26*
X1000000Y10500000D03*
D27*
X50700000Y43250000D03*
D27*
X51800000Y43250000D03*
D28*
X40000000Y2750000D03*
D29*
X14750000Y27000000D03*
D29*
X14750000Y28500000D03*
D22*
X48250000Y36300000D03*
D22*
X48250000Y35200000D03*
D30*
X72225000Y14500000D03*
D30*
X72225000Y13000000D03*
D19*
X50500000Y45500000D03*
D19*
X52000000Y45500000D03*
D30*
X73475000Y14500000D03*
D30*
X73475000Y13000000D03*
D19*
X11750000Y45500000D03*
D19*
X13250000Y45500000D03*
D30*
X34250000Y36250000D03*
D30*
X34250000Y34750000D03*
D31*
X26000000Y23750000D03*
D31*
X26000000Y25250000D03*
D32*
X35750000Y30000000D03*
D32*
X34250000Y30000000D03*
D29*
X70500000Y19500000D03*
D29*
X70500000Y21000000D03*
D33*
X83231000Y29860000D03*
D34*
X83231000Y25640000D03*
D22*
X72500000Y24800000D03*
D22*
X72500000Y23700000D03*
D35*
X44300000Y39500000D03*
D35*
X43200000Y39500000D03*
D19*
X11750000Y32750000D03*
D19*
X13250000Y32750000D03*
D19*
X11750000Y49750000D03*
D19*
X13250000Y49750000D03*
D20*
X33000000Y2750000D03*
D26*
X-500000Y13500000D03*
D26*
X1000000Y13500000D03*
D36*
X20500000Y51250000D03*
D36*
X19000000Y51250000D03*
D30*
X44500000Y36250000D03*
D30*
X44500000Y34750000D03*
D29*
X73750000Y21000000D03*
D29*
X73750000Y22500000D03*
D29*
X31500000Y32750000D03*
D29*
X31500000Y34250000D03*
D32*
X76500000Y19500000D03*
D32*
X75000000Y19500000D03*
D26*
X-500000Y16500000D03*
D26*
X1000000Y16500000D03*
D37*
X75750000Y28950000D03*
D37*
X75750000Y30050000D03*
D19*
X41500000Y35000000D03*
D19*
X43000000Y35000000D03*
D26*
X-500000Y18000000D03*
D26*
X1000000Y18000000D03*
D29*
X71750000Y19500000D03*
D29*
X71750000Y21000000D03*
D35*
X44300000Y38000000D03*
D35*
X43200000Y38000000D03*
D30*
X70975000Y14500000D03*
D30*
X70975000Y13000000D03*
D29*
X74500000Y29000000D03*
D29*
X74500000Y30500000D03*
D26*
X78750000Y23000000D03*
D26*
X80250000Y23000000D03*
D26*
X-500000Y9000000D03*
D26*
X1000000Y9000000D03*
D19*
X74750000Y14750000D03*
D19*
X76250000Y14750000D03*
D19*
X77500000Y18500000D03*
D19*
X79000000Y18500000D03*
D26*
X55000000Y40000000D03*
D26*
X56500000Y40000000D03*
D37*
X72000000Y28950000D03*
D37*
X72000000Y30050000D03*
D32*
X44500000Y40750000D03*
D32*
X43000000Y40750000D03*
D37*
X45250000Y42450000D03*
D37*
X45250000Y43550000D03*
D27*
X50700000Y35250000D03*
D27*
X51800000Y35250000D03*
D21*
X21750000Y28250000D03*
D21*
X21750000Y26750000D03*
D30*
X76250000Y24850000D03*
D30*
X76250000Y23350000D03*
D29*
X48000000Y42750000D03*
D29*
X48000000Y44250000D03*
D26*
X22750000Y53000000D03*
D26*
X24250000Y53000000D03*
D22*
X75000000Y24800000D03*
D22*
X75000000Y23700000D03*
D19*
X50800000Y40750000D03*
D19*
X52300000Y40750000D03*
D35*
X71550000Y26250000D03*
D35*
X70450000Y26250000D03*
D29*
X26500000Y27000000D03*
D29*
X26500000Y28500000D03*
D35*
X79150000Y19650000D03*
D35*
X78050000Y19650000D03*
D30*
X33250000Y49000000D03*
D30*
X33250000Y47500000D03*
D22*
X49650000Y36300000D03*
D22*
X49650000Y35200000D03*
D22*
X45750000Y36300000D03*
D22*
X45750000Y35200000D03*
D19*
X11750000Y28250000D03*
D19*
X13250000Y28250000D03*
D19*
X11750000Y29500000D03*
D19*
X13250000Y29500000D03*
D27*
X50700000Y44250000D03*
D27*
X51800000Y44250000D03*
D30*
X18000000Y51000000D03*
D30*
X18000000Y49500000D03*
D19*
X31000000Y44250000D03*
D19*
X32500000Y44250000D03*
D29*
X33250000Y27000000D03*
D29*
X33250000Y28500000D03*
D27*
X50700000Y38250000D03*
D27*
X51800000Y38250000D03*
D27*
X75700000Y26000000D03*
D27*
X76800000Y26000000D03*
D32*
X69750000Y15000000D03*
D32*
X68250000Y15000000D03*
D32*
X31500000Y31250000D03*
D32*
X30000000Y31250000D03*
D30*
X71250000Y24850000D03*
D30*
X71250000Y23350000D03*
D22*
X78500000Y25800000D03*
D22*
X78500000Y24700000D03*
D19*
X74750000Y17000000D03*
D19*
X76250000Y17000000D03*
D37*
X44250000Y42450000D03*
D37*
X44250000Y43550000D03*
D26*
X-500000Y12000000D03*
D26*
X1000000Y12000000D03*
D32*
X71500000Y27500000D03*
D32*
X70000000Y27500000D03*
D32*
X69750000Y16250000D03*
D32*
X68250000Y16250000D03*
D19*
X11750000Y40750000D03*
D19*
X13250000Y40750000D03*
D27*
X76300000Y21900000D03*
D27*
X77400000Y21900000D03*
D31*
X23000000Y23250000D03*
D31*
X23000000Y24750000D03*
D27*
X50700000Y39250000D03*
D27*
X51800000Y39250000D03*
D21*
X49250000Y45500000D03*
D21*
X49250000Y44000000D03*
D38*
X12020000Y14040000D03*
D39*
X9480000Y8960000D03*
D40*
X12020000Y6420000D03*
D40*
X9480000Y16580000D03*
D41*
X12020000Y16580000D03*
D39*
X9480000Y11500000D03*
D40*
X9480000Y6420000D03*
D42*
X12020000Y8960000D03*
D39*
X9480000Y14040000D03*
D41*
X12020000Y11500000D03*
D26*
X-500000Y15000000D03*
D26*
X1000000Y15000000D03*
D32*
X56500000Y38500000D03*
D32*
X55000000Y38500000D03*
D29*
X73250000Y29000000D03*
D29*
X73250000Y30500000D03*
D27*
X50700000Y42250000D03*
D27*
X51800000Y42250000D03*
D19*
X41500000Y43500000D03*
D19*
X43000000Y43500000D03*
D19*
X31000000Y37750000D03*
D19*
X32500000Y37750000D03*
D43*
X83425000Y27025000D03*
D44*
X70750000Y8375000D03*
D45*
X17000000Y48000000D03*
D45*
X53500000Y35750000D03*
D45*
X56750000Y7000000D03*
D45*
X74750000Y25750000D03*
D46*
X73000000Y26500000D03*
D46*
X63250000Y19750000D03*
D45*
X74000000Y15250000D03*
D47*
X46738827Y28494557D03*
D45*
X65250000Y9250000D03*
D48*
X1750000Y10500000D03*
D45*
X81500000Y40750000D03*
D44*
X54744557Y17578873D03*
D47*
X69750000Y12750000D03*
D44*
X22500000Y15250000D03*
D48*
X24000000Y51250000D03*
D44*
X9000000Y48000000D03*
D46*
X56750000Y12250000D03*
D45*
X47500000Y40250000D03*
D49*
X81500000Y39750000D03*
D45*
X71000000Y31500000D03*
D49*
X32822488Y39750000D03*
D44*
X50500000Y20275000D03*
D44*
X34500000Y23000000D03*
D46*
X75500000Y9000000D03*
D47*
X35750000Y18250000D03*
D47*
X70000000Y26850000D03*
D45*
X63500000Y41750000D03*
D46*
X27375000Y6125000D03*
D45*
X57500000Y23000000D03*
D47*
X71100000Y32500000D03*
D44*
X63250000Y19000000D03*
D44*
X43000000Y21750000D03*
D45*
X26530000Y26000000D03*
D45*
X60000000Y23500000D03*
D45*
X71750000Y30500000D03*
D49*
X77250000Y15500000D03*
D45*
X1750000Y14250000D03*
D45*
X71500000Y12000000D03*
D47*
X70500000Y18750000D03*
D45*
X36250000Y22250000D03*
D45*
X63000000Y11750000D03*
D49*
X55000000Y23000000D03*
D46*
X40750000Y53750000D03*
D45*
X37750000Y28250000D03*
D46*
X56250000Y11500000D03*
D47*
X21500000Y39750000D03*
D45*
X46750000Y33550000D03*
D45*
X34500000Y21750000D03*
D45*
X68500000Y6750000D03*
D45*
X73250000Y5500000D03*
D45*
X28250000Y35250000D03*
D45*
X32750000Y30000000D03*
D43*
X85175000Y28475000D03*
D45*
X60000000Y32000000D03*
D45*
X84500000Y22500000D03*
D46*
X46500000Y37250000D03*
D45*
X60000000Y15000000D03*
D44*
X48125000Y28494557D03*
D49*
X84250000Y45000000D03*
D45*
X72750000Y16500000D03*
D45*
X52536657Y12768328D03*
D45*
X58750000Y7000000D03*
D45*
X73750000Y6000000D03*
D49*
X49500000Y40250000D03*
D46*
X54250000Y34500000D03*
D47*
X77500000Y2500000D03*
D44*
X22500000Y51750000D03*
D45*
X30500000Y41250000D03*
D46*
X55000000Y11500000D03*
D46*
X28875000Y3875000D03*
D45*
X57500000Y12750000D03*
D45*
X29000000Y29750000D03*
D45*
X49500000Y41250000D03*
D44*
X71000000Y17000000D03*
D44*
X52500000Y44250000D03*
D47*
X68500000Y20250000D03*
D46*
X55494557Y8578873D03*
D48*
X32822488Y41250000D03*
D45*
X73000000Y15250000D03*
D45*
X55000000Y20500000D03*
D45*
X15250000Y33750000D03*
D44*
X53250000Y38250000D03*
D44*
X60000000Y14000000D03*
D47*
X52499129Y13517391D03*
D46*
X49500000Y37250000D03*
D45*
X21935000Y51000000D03*
D45*
X11000000Y43750000D03*
D47*
X34500000Y20500000D03*
D47*
X35250000Y22250000D03*
D47*
X35750000Y20500000D03*
D44*
X9109418Y3000000D03*
D46*
X70500000Y17750000D03*
D48*
X71750000Y17500000D03*
D45*
X26500000Y30000000D03*
D50*
X79750000Y27025000D03*
D46*
X52250000Y31250000D03*
D45*
X6250000Y25000000D03*
D45*
X76250000Y20500000D03*
D45*
X82049265Y43700735D03*
D45*
X25250000Y9750000D03*
D44*
X83250000Y39000000D03*
D45*
X77828873Y38005443D03*
D45*
X11000000Y46000000D03*
D44*
X67750000Y17750000D03*
D44*
X45500000Y40250000D03*
D45*
X29500000Y48000000D03*
D45*
X66750000Y13250000D03*
D45*
X75250000Y23350000D03*
D44*
X36750000Y28250000D03*
D44*
X43750000Y22250000D03*
D46*
X78578873Y39880443D03*
D44*
X57750000Y4250000D03*
D47*
X5000056Y42250056D03*
D45*
X56250000Y25250000D03*
D45*
X40000000Y21750000D03*
D45*
X56250000Y42250000D03*
D45*
X72250000Y28250000D03*
D51*
X78000000Y28500000D03*
D47*
X55750000Y12250000D03*
D45*
X71000000Y15750000D03*
D45*
X47500000Y37250000D03*
D45*
X3750000Y22024999D03*
D47*
X34000000Y49000000D03*
D47*
X26625000Y6125000D03*
D45*
X-250000Y47000000D03*
D46*
X24500000Y36750000D03*
D48*
X70500000Y12000000D03*
D44*
X43000000Y20500000D03*
D44*
X77504056Y25762304D03*
D47*
X48875000Y28494557D03*
D47*
X27000000Y23750000D03*
D45*
X48421127Y20244557D03*
D47*
X7250000Y45238045D03*
D45*
X1750000Y12000000D03*
D43*
X82925000Y27025000D03*
D45*
X74000000Y17750000D03*
D44*
X66750000Y44000000D03*
D45*
X73500000Y25750000D03*
D44*
X1750000Y15000000D03*
D46*
X72750000Y6000000D03*
D45*
X18625000Y3875000D03*
D45*
X56750000Y4250000D03*
D44*
X64500000Y20500000D03*
D44*
X76500000Y32000000D03*
D46*
X71500000Y15250000D03*
D45*
X37900000Y16000000D03*
D44*
X53500000Y39000000D03*
D47*
X37300000Y16000000D03*
D46*
X60500000Y6750000D03*
D45*
X37000000Y20500000D03*
D43*
X81175000Y27025000D03*
D44*
X46500000Y35250000D03*
D49*
X53250000Y17578873D03*
D45*
X48500000Y38250000D03*
D45*
X63198531Y17244041D03*
D48*
X21250000Y12750000D03*
D44*
X56619557Y9328873D03*
D45*
X43000000Y23000000D03*
D45*
X74000000Y16250000D03*
D47*
X63250000Y9250000D03*
D49*
X70750000Y6500000D03*
D46*
X47500000Y53750000D03*
D45*
X46313827Y15994557D03*
D45*
X56250000Y23000000D03*
D46*
X9750000Y48000000D03*
D46*
X54250000Y33500000D03*
D45*
X52750000Y22500000D03*
D46*
X3500000Y27500000D03*
D45*
X63000000Y26750000D03*
D45*
X50250000Y23000000D03*
D44*
X82000000Y39000000D03*
D44*
X35000000Y18250000D03*
D47*
X77828873Y37255443D03*
D44*
X82000000Y41500000D03*
D45*
X45500000Y38250000D03*
D45*
X26000000Y39750000D03*
D45*
X77850000Y22650000D03*
D47*
X54250000Y34000000D03*
D44*
X27375000Y3875000D03*
D45*
X76250000Y30500000D03*
D45*
X57500000Y11500000D03*
D49*
X72250000Y27000000D03*
D45*
X25500000Y11000000D03*
D45*
X71750000Y16500000D03*
D45*
X23500000Y26000000D03*
D44*
X51500000Y24000000D03*
D45*
X35750000Y25250000D03*
D45*
X53250000Y8578873D03*
D48*
X55000000Y21750000D03*
D45*
X29750000Y44000000D03*
D45*
X63198531Y17819041D03*
D45*
X56994557Y8578873D03*
D45*
X19500000Y52500000D03*
D46*
X60250000Y21500000D03*
D44*
X51750000Y46250000D03*
D48*
X60250000Y4625000D03*
D47*
X80750000Y41500000D03*
D45*
X26625000Y3875000D03*
D45*
X46500000Y40250000D03*
D45*
X67500000Y6750000D03*
D47*
X67250000Y6000000D03*
D45*
X78578873Y40630443D03*
D44*
X5250000Y41238045D03*
D47*
X51500000Y40000000D03*
D44*
X77828873Y38755443D03*
D45*
X85250000Y38250000D03*
D45*
X45500000Y21750000D03*
D45*
X51500000Y36000000D03*
D47*
X76250000Y9000000D03*
D48*
X3500000Y41250000D03*
D45*
X49000000Y42750000D03*
D46*
X21000000Y53000000D03*
D46*
X73500000Y18250000D03*
D45*
X1750000Y18750000D03*
D45*
X16500000Y52500000D03*
D45*
X45738827Y15994557D03*
D48*
X68250000Y14500000D03*
D45*
X1750000Y17250000D03*
D44*
X43750000Y21250000D03*
D46*
X35750000Y23000000D03*
D48*
X2500000Y41250000D03*
D45*
X80750000Y39000000D03*
D46*
X66750000Y33500000D03*
D47*
X49750000Y43250000D03*
D46*
X38500000Y16000000D03*
D48*
X72250000Y22550000D03*
D49*
X31000000Y51750000D03*
D46*
X55750000Y13250000D03*
D45*
X49500000Y39250000D03*
D44*
X51000000Y48000000D03*
D44*
X40000000Y18750000D03*
D47*
X64500000Y16750000D03*
D44*
X57500000Y21750000D03*
D46*
X73000000Y18750000D03*
D44*
X81500000Y23250000D03*
D46*
X9000000Y47000000D03*
D45*
X9500000Y40000000D03*
D45*
X50475000Y10700000D03*
D47*
X6500000Y24000000D03*
D44*
X26000000Y41250000D03*
D45*
X69775000Y5125000D03*
D46*
X73500000Y28250000D03*
D47*
X72125000Y40900000D03*
D49*
X28875000Y6125000D03*
D45*
X20000000Y15250000D03*
D46*
X48421127Y21744557D03*
D45*
X20750000Y13500000D03*
D47*
X8250000Y50000000D03*
D45*
X77269235Y25050011D03*
D45*
X63500000Y35750000D03*
D45*
X60000000Y45250000D03*
D45*
X7469668Y50530332D03*
D45*
X57383184Y46125000D03*
D45*
X74449990Y2750000D03*
D44*
X19000000Y53000000D03*
D45*
X13500000Y52750000D03*
D45*
X1750000Y15750000D03*
D47*
X72000000Y9250000D03*
D44*
X79750000Y18500000D03*
D45*
X63000000Y10250000D03*
D44*
X53994557Y8578873D03*
D44*
X73750000Y5000000D03*
D44*
X28125000Y6125000D03*
D44*
X48500000Y41250000D03*
D45*
X14750000Y45500000D03*
D47*
X53994557Y17578873D03*
D49*
X62480000Y6770000D03*
D45*
X2500000Y42250000D03*
D46*
X21750000Y24350030D03*
D45*
X54744557Y8578873D03*
D45*
X61051469Y12750000D03*
D44*
X77828873Y41755443D03*
D46*
X26000000Y36750000D03*
D45*
X52250000Y32000000D03*
D46*
X75500000Y12250000D03*
D48*
X45500000Y48000000D03*
D49*
X40000000Y21000000D03*
D48*
X21750000Y13500000D03*
D45*
X32500000Y47750000D03*
D48*
X18500000Y52500000D03*
D45*
X72250000Y18250000D03*
D44*
X55000000Y25500000D03*
D45*
X51500000Y41500000D03*
D47*
X56994557Y17578873D03*
D45*
X55494557Y17578873D03*
D44*
X69250000Y20000000D03*
D44*
X56250000Y31500000D03*
D45*
X37000000Y23000000D03*
D52*
X78025000Y27750000D03*
D45*
X11250000Y47750000D03*
D45*
X74750000Y28250000D03*
D49*
X56750000Y21250000D03*
D45*
X45238827Y28494557D03*
D45*
X56619557Y18328873D03*
D48*
X6250000Y40488045D03*
D48*
X70750000Y22000000D03*
D45*
X50475000Y10125000D03*
D45*
X61250000Y29250000D03*
D44*
X36500000Y52500000D03*
D45*
X45500000Y41250000D03*
D45*
X77050000Y22725000D03*
D49*
X44250000Y20500000D03*
D44*
X57000000Y26000000D03*
D47*
X23000000Y51250000D03*
D46*
X60000000Y38750000D03*
D48*
X21750000Y14500000D03*
D44*
X24500000Y38250000D03*
D47*
X44250000Y25301469D03*
D44*
X11000000Y44750000D03*
D45*
X57500000Y14000000D03*
D44*
X20125000Y3875000D03*
D45*
X80149999Y21000000D03*
D45*
X45500000Y39250000D03*
D47*
X52500000Y46250000D03*
D44*
X30000000Y29750000D03*
D45*
X32822488Y38750000D03*
D45*
X44250000Y23000000D03*
D46*
X50500000Y19125000D03*
D47*
X46000000Y43250000D03*
D44*
X82500000Y39750000D03*
D45*
X32500000Y33000000D03*
D44*
X12500000Y25750000D03*
D45*
X52750000Y21750000D03*
D45*
X-250000Y32250000D03*
D44*
X56250000Y35250000D03*
D45*
X9500000Y39250000D03*
D44*
X66750000Y28850000D03*
D45*
X72250000Y47500000D03*
D44*
X77828873Y41005443D03*
D48*
X39250000Y22125000D03*
D44*
X44750000Y21250000D03*
D45*
X24750000Y16750000D03*
D47*
X3500000Y26500000D03*
D50*
X82925000Y28475000D03*
D45*
X16250000Y27000000D03*
D48*
X32500000Y31250000D03*
D49*
X19375000Y6125000D03*
D45*
X72750000Y5000000D03*
D49*
X71500000Y18750000D03*
D48*
X77828873Y39505443D03*
D44*
X75750000Y46000000D03*
D44*
X71750000Y21621350D03*
D44*
X3750000Y36750000D03*
D47*
X72750000Y42500000D03*
D45*
X37500000Y49000000D03*
D44*
X39250000Y48500000D03*
D47*
X50250000Y22250000D03*
D45*
X1000000Y32250000D03*
D45*
X74000000Y18750000D03*
D44*
X59500000Y46500000D03*
D46*
X72250000Y23350000D03*
D45*
X55000000Y14000000D03*
D49*
X1750000Y11250000D03*
D47*
X56750000Y37500000D03*
D46*
X11000000Y3000000D03*
D45*
X1750000Y16500000D03*
D44*
X3000000Y41750000D03*
D49*
X28250000Y18500000D03*
D46*
X11000000Y49750000D03*
D45*
X48421127Y20994557D03*
D47*
X41500000Y50000000D03*
D45*
X47000000Y43250000D03*
D45*
X34000000Y26750000D03*
D45*
X42488827Y18244557D03*
D50*
X79750000Y28475000D03*
D45*
X12500000Y51250000D03*
D45*
X2500000Y27500000D03*
D45*
X45500000Y20500000D03*
D46*
X32822488Y34250000D03*
D45*
X66750000Y25850000D03*
D45*
X74000000Y26500000D03*
D49*
X11750000Y43250000D03*
D44*
X50475000Y11275000D03*
D45*
X75705546Y13668043D03*
D48*
X1750000Y12750000D03*
D44*
X28250000Y45500000D03*
D53*
X80425000Y27025000D03*
D45*
X15250000Y32750000D03*
D45*
X56244557Y17578873D03*
D47*
X45500000Y23000000D03*
D47*
X23000000Y41250000D03*
D45*
X32000000Y51750000D03*
D47*
X6250000Y25750000D03*
D45*
X70500000Y15250000D03*
D44*
X47671127Y22119557D03*
D45*
X20000000Y12750000D03*
D44*
X21500000Y41250000D03*
D45*
X74750000Y27000000D03*
D45*
X63000000Y11000000D03*
D48*
X17250000Y51000000D03*
D45*
X64500000Y19250000D03*
D45*
X11500000Y41500000D03*
D45*
X60900000Y25000000D03*
D45*
X44250000Y48250000D03*
D45*
X9750000Y47000000D03*
D49*
X67750000Y25000000D03*
D44*
X750000Y47500000D03*
D46*
X48421127Y22494557D03*
D45*
X9750000Y34250000D03*
D47*
X41750000Y38250000D03*
D45*
X29750000Y51250000D03*
D45*
X75250000Y22550000D03*
D46*
X30500000Y52500000D03*
D45*
X70000000Y24510022D03*
D45*
X67250000Y2570011D03*
D45*
X75607112Y6250000D03*
D45*
X52250000Y33500000D03*
D44*
X10000000Y3000000D03*
D45*
X55869557Y9328873D03*
D45*
X49000000Y35250000D03*
D44*
X23000000Y26500000D03*
D54*
X78000000Y27000000D03*
D44*
X46500000Y38250000D03*
D47*
X48421127Y19494557D03*
D46*
X28500000Y52250000D03*
D44*
X44750000Y22250000D03*
D45*
X75750000Y42500000D03*
D46*
X28250000Y32500000D03*
D48*
X50250000Y21500000D03*
D45*
X5000000Y27500000D03*
D45*
X29500000Y10000000D03*
D44*
X27750000Y29750000D03*
D45*
X48500000Y37250000D03*
D48*
X60000000Y28000000D03*
D44*
X70750000Y7625000D03*
D44*
X37000000Y21750000D03*
D45*
X72250000Y25750000D03*
D46*
X48500000Y39250000D03*
D45*
X64250000Y15500000D03*
D43*
X80425000Y28475000D03*
D46*
X56750000Y22250000D03*
D44*
X56250000Y16000000D03*
D47*
X23000000Y39750000D03*
D45*
X72350000Y12000000D03*
D45*
X76750000Y14250000D03*
D45*
X56250000Y14000000D03*
D47*
X40000000Y22500000D03*
D48*
X60000000Y31000000D03*
D44*
X11000000Y28750000D03*
D45*
X49500000Y38250000D03*
D45*
X57744557Y8578873D03*
D46*
X23000000Y36750000D03*
D46*
X20000000Y14000000D03*
D46*
X8250000Y35250000D03*
D46*
X6250000Y41238045D03*
D45*
X34000000Y17500000D03*
D47*
X52500000Y14250000D03*
D45*
X69250000Y24600000D03*
D45*
X1750000Y13500000D03*
D46*
X77780986Y23720777D03*
D46*
X72750000Y17500000D03*
D44*
X54000000Y37750000D03*
D45*
X70000008Y31250000D03*
D45*
X48500000Y40250000D03*
D45*
X36250000Y21250000D03*
D45*
X45988827Y28494557D03*
D45*
X28125000Y3875000D03*
D45*
X72782418Y20853148D03*
D45*
X56750000Y13250000D03*
D47*
X47671127Y21369557D03*
D45*
X60000000Y16000000D03*
D49*
X5250000Y26500000D03*
D54*
X81175000Y28475000D03*
D44*
X64500000Y18000000D03*
D45*
X73500000Y17000000D03*
D48*
X55000000Y12750000D03*
D44*
X11750000Y44250000D03*
D46*
X40000000Y24000000D03*
D45*
X28500000Y54000000D03*
D45*
X29000000Y51750000D03*
D47*
X55750000Y21250000D03*
D45*
X67679991Y16000000D03*
D48*
X60000000Y33000000D03*
D44*
X31500000Y52500000D03*
D45*
X20500000Y52500000D03*
D49*
X15000000Y41250000D03*
D47*
X66750000Y38000000D03*
D45*
X8500000Y30250000D03*
D45*
X77828873Y40255443D03*
D47*
X3500000Y42250000D03*
D45*
X6750000Y50000000D03*
D47*
X57383184Y45375000D03*
D45*
X85250000Y42250000D03*
D45*
X40000000Y19500000D03*
D44*
X32250000Y21000000D03*
D47*
X23500000Y27000000D03*
D45*
X51500000Y37500000D03*
D47*
X24500000Y39750000D03*
D44*
X48421127Y23994557D03*
D44*
X8500000Y29500000D03*
D47*
X1750000Y9000000D03*
D44*
X45500000Y37250000D03*
D45*
X52250000Y32750000D03*
D44*
X70750000Y9250000D03*
D44*
X46500000Y41250000D03*
D49*
X46500000Y39250000D03*
D45*
X22000000Y10250000D03*
D44*
X43500000Y38750000D03*
D44*
X51500000Y15000000D03*
D47*
X72250000Y15750000D03*
D47*
X57750000Y7000000D03*
D45*
X68750000Y9250000D03*
D45*
X53500000Y39750000D03*
D48*
X52750000Y23250000D03*
D46*
X47500000Y38250000D03*
D44*
X23000000Y25500000D03*
D44*
X46888827Y15994557D03*
D45*
X24500000Y41250000D03*
D47*
X39250000Y21375000D03*
D45*
X60250000Y5375000D03*
D44*
X80750000Y40250000D03*
D45*
X60000000Y30000000D03*
D44*
X73250000Y47500000D03*
D45*
X14500000Y29750000D03*
D45*
X19000000Y29750000D03*
D45*
X21500000Y38250000D03*
D48*
X32280001Y35000000D03*
D44*
X21250000Y15250000D03*
D47*
X13500000Y53750000D03*
D45*
X20875000Y3875000D03*
D47*
X50500000Y19700000D03*
D48*
X24500000Y51750000D03*
D45*
X66750000Y39500000D03*
D45*
X57500000Y38750000D03*
D44*
X56244557Y8578873D03*
D45*
X22500000Y14000000D03*
D44*
X1750000Y9750000D03*
D45*
X26000000Y38250000D03*
D45*
X34250000Y18250000D03*
D45*
X20875000Y6125000D03*
D47*
X74250000Y47500000D03*
D55*
X83425000Y28475000D03*
D45*
X32822488Y35750000D03*
D45*
X73000000Y27500000D03*
D45*
X6500000Y38738045D03*
D45*
X23500000Y51750000D03*
D44*
X2500000Y26500000D03*
D46*
X30750000Y39999989D03*
D45*
X11750000Y42250000D03*
D45*
X55500000Y28750000D03*
D45*
X3000000Y27000000D03*
D45*
X20125000Y6125000D03*
D44*
X17750000Y52500000D03*
D45*
X56250000Y20500000D03*
D45*
X52250000Y30500000D03*
D45*
X73500000Y15750000D03*
D45*
X70500000Y16250000D03*
D47*
X40000000Y23250000D03*
D47*
X48000000Y48500000D03*
D45*
X57250000Y44250000D03*
D45*
X60000000Y22500000D03*
D45*
X1750000Y18000000D03*
D45*
X22500000Y48000000D03*
D44*
X56250000Y26000000D03*
D44*
X-1000031Y19000000D03*
D45*
X25000000Y51250000D03*
D45*
X7250000Y30500000D03*
D46*
X22500000Y12750000D03*
D45*
X57500000Y20500000D03*
D45*
X9500000Y40750000D03*
D47*
X11250000Y46750000D03*
D44*
X35250000Y21250000D03*
D45*
X57250000Y43000000D03*
D48*
X11750000Y34500000D03*
D44*
X47500000Y39250000D03*
D46*
X6250000Y39738045D03*
D45*
X6250000Y26500000D03*
D45*
X19375000Y3875000D03*
D44*
X34869654Y52500000D03*
D46*
X80000000Y46000000D03*
D46*
X67750000Y9250000D03*
D45*
X26000000Y14750000D03*
D45*
X83250000Y41500000D03*
D45*
X60000000Y24500000D03*
D45*
X32822488Y46250000D03*
D45*
X28000000Y51750000D03*
D48*
X68750000Y21850000D03*
D46*
X43963343Y18268328D03*
D45*
X48421127Y23244557D03*
D45*
X55750000Y22250000D03*
D44*
X11000000Y42750000D03*
D44*
X57000000Y40000000D03*
D44*
X74000000Y27500000D03*
D48*
X72250000Y17000000D03*
D50*
X85175000Y27025000D03*
D45*
X69750000Y9250000D03*
D45*
X68469668Y24380332D03*
D45*
X18625000Y6125000D03*
D45*
X82500000Y40750000D03*
D48*
X79350000Y21150000D03*
D44*
X76250000Y15850000D03*
D45*
X32822488Y45250000D03*
D49*
X21500000Y36750000D03*
D45*
X69775000Y5875000D03*
D44*
X71000000Y18250000D03*
D44*
X74750000Y20750000D03*
D47*
X77235358Y24235358D03*
D44*
X56750000Y34750000D03*
D45*
X26000000Y22750000D03*
D45*
X64250000Y9250000D03*
D45*
X55869557Y18328873D03*
D44*
X47500000Y41250000D03*
D44*
X20750000Y14500000D03*
D44*
X23000000Y38250000D03*
D45*
X15000000Y47750000D03*
D47*
X68932925Y2570009D03*
D44*
X58750000Y4250000D03*
D45*
X78500000Y14750000D03*
D45*
X10500000Y31250000D03*
D44*
X40000000Y20250000D03*
D44*
X57000000Y31000000D03*
D45*
X83250000Y40250000D03*
D44*
X63250000Y20500000D03*
D45*
X20000000Y53000000D03*
M02*
