M48
FMAT,2
METRIC,TZ
T7C0.254
T9C0.260
T8C0.300
T3C0.787
T5C0.900
T6C1.000
T2C1.020
T4C1.143
T1C3.200
%
G90
G05
M71
T7
X83.425Y27.025
X85.175Y28.475
X79.750Y27.025
X78.000Y28.500
X82.925Y27.025
X81.175Y27.025
X82.925Y28.475
X79.750Y28.475
X80.425Y27.025
X78.000Y27.000
X80.425Y28.475
X81.175Y28.475
X83.425Y28.475
X85.175Y27.025
T9
X78.025Y27.750
T8
X70.750Y8.375
X17.000Y48.000
X53.500Y35.750
X56.750Y7.000
X74.750Y25.750
X73.000Y26.500
X63.250Y19.750
X74.000Y15.250
X46.739Y28.495
X65.250Y9.250
X1.750Y10.500
X81.500Y40.750
X54.745Y17.579
X69.750Y12.750
X22.500Y15.250
X24.000Y51.250
X9.000Y48.000
X56.750Y12.250
X47.500Y40.250
X81.500Y39.750
X71.000Y31.500
X32.822Y39.750
X50.500Y20.275
X34.500Y23.000
X75.500Y9.000
X35.750Y18.250
X70.000Y26.850
X63.500Y41.750
X27.375Y6.125
X57.500Y23.000
X71.100Y32.500
X63.250Y19.000
X43.000Y21.750
X26.530Y26.000
X60.000Y23.500
X71.750Y30.500
X77.250Y15.500
X1.750Y14.250
X71.500Y12.000
X70.500Y18.750
X36.250Y22.250
X63.000Y11.750
X55.000Y23.000
X40.750Y53.750
X37.750Y28.250
X56.250Y11.500
X21.500Y39.750
X46.750Y33.550
X34.500Y21.750
X68.500Y6.750
X73.250Y5.500
X28.250Y35.250
X32.750Y30.000
X60.000Y32.000
X84.500Y22.500
X46.500Y37.250
X60.000Y15.000
X48.125Y28.495
X84.250Y45.000
X72.750Y16.500
X52.537Y12.768
X58.750Y7.000
X73.750Y6.000
X49.500Y40.250
X54.250Y34.500
X77.500Y2.500
X22.500Y51.750
X30.500Y41.250
X55.000Y11.500
X28.875Y3.875
X57.500Y12.750
X29.000Y29.750
X49.500Y41.250
X71.000Y17.000
X52.500Y44.250
X68.500Y20.250
X55.495Y8.579
X32.822Y41.250
X73.000Y15.250
X55.000Y20.500
X15.250Y33.750
X53.250Y38.250
X60.000Y14.000
X52.499Y13.517
X49.500Y37.250
X21.935Y51.000
X11.000Y43.750
X34.500Y20.500
X35.250Y22.250
X35.750Y20.500
X9.109Y3.000
X70.500Y17.750
X71.750Y17.500
X26.500Y30.000
X52.250Y31.250
X6.250Y25.000
X76.250Y20.500
X82.049Y43.701
X25.250Y9.750
X83.250Y39.000
X77.829Y38.005
X11.000Y46.000
X67.750Y17.750
X45.500Y40.250
X29.500Y48.000
X66.750Y13.250
X75.250Y23.350
X36.750Y28.250
X43.750Y22.250
X78.579Y39.880
X57.750Y4.250
X5.000Y42.250
X56.250Y25.250
X40.000Y21.750
X56.250Y42.250
X72.250Y28.250
X55.750Y12.250
X71.000Y15.750
X47.500Y37.250
X3.750Y22.025
X34.000Y49.000
X26.625Y6.125
X-0.250Y47.000
X24.500Y36.750
X70.500Y12.000
X43.000Y20.500
X77.504Y25.762
X48.875Y28.495
X27.000Y23.750
X48.421Y20.245
X7.250Y45.238
X1.750Y12.000
X74.000Y17.750
X66.750Y44.000
X73.500Y25.750
X1.750Y15.000
X72.750Y6.000
X18.625Y3.875
X56.750Y4.250
X64.500Y20.500
X76.500Y32.000
X71.500Y15.250
X37.900Y16.000
X53.500Y39.000
X37.300Y16.000
X60.500Y6.750
X37.000Y20.500
X46.500Y35.250
X53.250Y17.579
X48.500Y38.250
X63.199Y17.244
X21.250Y12.750
X56.620Y9.329
X43.000Y23.000
X74.000Y16.250
X63.250Y9.250
X70.750Y6.500
X47.500Y53.750
X46.314Y15.995
X56.250Y23.000
X9.750Y48.000
X54.250Y33.500
X52.750Y22.500
X3.500Y27.500
X63.000Y26.750
X50.250Y23.000
X82.000Y39.000
X35.000Y18.250
X77.829Y37.255
X82.000Y41.500
X45.500Y38.250
X26.000Y39.750
X77.850Y22.650
X54.250Y34.000
X27.375Y3.875
X76.250Y30.500
X57.500Y11.500
X72.250Y27.000
X25.500Y11.000
X71.750Y16.500
X23.500Y26.000
X51.500Y24.000
X35.750Y25.250
X53.250Y8.579
X55.000Y21.750
X29.750Y44.000
X63.199Y17.819
X56.995Y8.579
X19.500Y52.500
X60.250Y21.500
X51.750Y46.250
X60.250Y4.625
X80.750Y41.500
X26.625Y3.875
X46.500Y40.250
X67.500Y6.750
X67.250Y6.000
X78.579Y40.630
X5.250Y41.238
X51.500Y40.000
X77.829Y38.755
X85.250Y38.250
X45.500Y21.750
X51.500Y36.000
X76.250Y9.000
X3.500Y41.250
X49.000Y42.750
X21.000Y53.000
X73.500Y18.250
X1.750Y18.750
X16.500Y52.500
X45.739Y15.995
X68.250Y14.500
X1.750Y17.250
X43.750Y21.250
X35.750Y23.000
X2.500Y41.250
X80.750Y39.000
X66.750Y33.500
X49.750Y43.250
X38.500Y16.000
X72.250Y22.550
X31.000Y51.750
X55.750Y13.250
X49.500Y39.250
X51.000Y48.000
X40.000Y18.750
X64.500Y16.750
X57.500Y21.750
X73.000Y18.750
X81.500Y23.250
X9.000Y47.000
X9.500Y40.000
X50.475Y10.700
X6.500Y24.000
X26.000Y41.250
X69.775Y5.125
X73.500Y28.250
X72.125Y40.900
X28.875Y6.125
X20.000Y15.250
X48.421Y21.745
X20.750Y13.500
X8.250Y50.000
X77.269Y25.050
X63.500Y35.750
X60.000Y45.250
X7.470Y50.530
X57.383Y46.125
X74.450Y2.750
X19.000Y53.000
X13.500Y52.750
X1.750Y15.750
X72.000Y9.250
X79.750Y18.500
X63.000Y10.250
X53.995Y8.579
X73.750Y5.000
X28.125Y6.125
X48.500Y41.250
X14.750Y45.500
X53.995Y17.579
X62.480Y6.770
X2.500Y42.250
X21.750Y24.350
X54.745Y8.579
X61.051Y12.750
X77.829Y41.755
X26.000Y36.750
X52.250Y32.000
X75.500Y12.250
X45.500Y48.000
X40.000Y21.000
X21.750Y13.500
X32.500Y47.750
X18.500Y52.500
X72.250Y18.250
X55.000Y25.500
X51.500Y41.500
X56.995Y17.579
X55.495Y17.579
X69.250Y20.000
X56.250Y31.500
X37.000Y23.000
X11.250Y47.750
X74.750Y28.250
X56.750Y21.250
X45.239Y28.495
X56.620Y18.329
X6.250Y40.488
X70.750Y22.000
X50.475Y10.125
X61.250Y29.250
X36.500Y52.500
X45.500Y41.250
X77.050Y22.725
X44.250Y20.500
X57.000Y26.000
X23.000Y51.250
X60.000Y38.750
X21.750Y14.500
X24.500Y38.250
X44.250Y25.301
X11.000Y44.750
X57.500Y14.000
X20.125Y3.875
X80.150Y21.000
X45.500Y39.250
X52.500Y46.250
X30.000Y29.750
X32.822Y38.750
X44.250Y23.000
X50.500Y19.125
X46.000Y43.250
X82.500Y39.750
X32.500Y33.000
X12.500Y25.750
X52.750Y21.750
X-0.250Y32.250
X56.250Y35.250
X9.500Y39.250
X66.750Y28.850
X72.250Y47.500
X77.829Y41.005
X39.250Y22.125
X44.750Y21.250
X24.750Y16.750
X3.500Y26.500
X16.250Y27.000
X32.500Y31.250
X19.375Y6.125
X72.750Y5.000
X71.500Y18.750
X77.829Y39.505
X75.750Y46.000
X71.750Y21.621
X3.750Y36.750
X72.750Y42.500
X37.500Y49.000
X39.250Y48.500
X50.250Y22.250
X1.000Y32.250
X74.000Y18.750
X59.500Y46.500
X72.250Y23.350
X55.000Y14.000
X1.750Y11.250
X56.750Y37.500
X11.000Y3.000
X1.750Y16.500
X3.000Y41.750
X28.250Y18.500
X11.000Y49.750
X48.421Y20.995
X41.500Y50.000
X47.000Y43.250
X34.000Y26.750
X42.489Y18.245
X12.500Y51.250
X2.500Y27.500
X45.500Y20.500
X32.822Y34.250
X66.750Y25.850
X74.000Y26.500
X11.750Y43.250
X50.475Y11.275
X75.706Y13.668
X1.750Y12.750
X28.250Y45.500
X15.250Y32.750
X56.245Y17.579
X45.500Y23.000
X23.000Y41.250
X32.000Y51.750
X6.250Y25.750
X70.500Y15.250
X47.671Y22.120
X20.000Y12.750
X21.500Y41.250
X74.750Y27.000
X63.000Y11.000
X17.250Y51.000
X64.500Y19.250
X11.500Y41.500
X60.900Y25.000
X44.250Y48.250
X9.750Y47.000
X67.750Y25.000
X0.750Y47.500
X48.421Y22.495
X9.750Y34.250
X41.750Y38.250
X29.750Y51.250
X75.250Y22.550
X30.500Y52.500
X70.000Y24.510
X67.250Y2.570
X75.607Y6.250
X52.250Y33.500
X10.000Y3.000
X55.870Y9.329
X49.000Y35.250
X23.000Y26.500
X46.500Y38.250
X48.421Y19.495
X28.500Y52.250
X44.750Y22.250
X75.750Y42.500
X28.250Y32.500
X50.250Y21.500
X5.000Y27.500
X29.500Y10.000
X27.750Y29.750
X48.500Y37.250
X60.000Y28.000
X70.750Y7.625
X37.000Y21.750
X72.250Y25.750
X48.500Y39.250
X64.250Y15.500
X56.750Y22.250
X56.250Y16.000
X23.000Y39.750
X72.350Y12.000
X76.750Y14.250
X56.250Y14.000
X40.000Y22.500
X60.000Y31.000
X11.000Y28.750
X49.500Y38.250
X57.745Y8.579
X23.000Y36.750
X20.000Y14.000
X8.250Y35.250
X6.250Y41.238
X34.000Y17.500
X52.500Y14.250
X69.250Y24.600
X1.750Y13.500
X77.781Y23.721
X72.750Y17.500
X54.000Y37.750
X70.000Y31.250
X48.500Y40.250
X36.250Y21.250
X45.989Y28.495
X28.125Y3.875
X72.782Y20.853
X56.750Y13.250
X47.671Y21.370
X60.000Y16.000
X5.250Y26.500
X64.500Y18.000
X73.500Y17.000
X55.000Y12.750
X11.750Y44.250
X40.000Y24.000
X28.500Y54.000
X29.000Y51.750
X55.750Y21.250
X67.680Y16.000
X60.000Y33.000
X31.500Y52.500
X20.500Y52.500
X15.000Y41.250
X66.750Y38.000
X8.500Y30.250
X77.829Y40.255
X3.500Y42.250
X6.750Y50.000
X57.383Y45.375
X85.250Y42.250
X40.000Y19.500
X32.250Y21.000
X23.500Y27.000
X51.500Y37.500
X24.500Y39.750
X48.421Y23.995
X8.500Y29.500
X1.750Y9.000
X45.500Y37.250
X52.250Y32.750
X70.750Y9.250
X46.500Y41.250
X46.500Y39.250
X22.000Y10.250
X43.500Y38.750
X51.500Y15.000
X72.250Y15.750
X57.750Y7.000
X68.750Y9.250
X53.500Y39.750
X52.750Y23.250
X47.500Y38.250
X23.000Y25.500
X46.889Y15.995
X24.500Y41.250
X39.250Y21.375
X60.250Y5.375
X80.750Y40.250
X60.000Y30.000
X73.250Y47.500
X14.500Y29.750
X19.000Y29.750
X21.500Y38.250
X32.280Y35.000
X21.250Y15.250
X13.500Y53.750
X20.875Y3.875
X50.500Y19.700
X24.500Y51.750
X66.750Y39.500
X57.500Y38.750
X56.245Y8.579
X22.500Y14.000
X1.750Y9.750
X26.000Y38.250
X34.250Y18.250
X20.875Y6.125
X74.250Y47.500
X32.822Y35.750
X73.000Y27.500
X6.500Y38.738
X23.500Y51.750
X2.500Y26.500
X30.750Y40.000
X11.750Y42.250
X55.500Y28.750
X3.000Y27.000
X20.125Y6.125
X17.750Y52.500
X56.250Y20.500
X52.250Y30.500
X73.500Y15.750
X70.500Y16.250
X40.000Y23.250
X48.000Y48.500
X57.250Y44.250
X60.000Y22.500
X1.750Y18.000
X22.500Y48.000
X56.250Y26.000
X-1.000Y19.000
X25.000Y51.250
X7.250Y30.500
X22.500Y12.750
X57.500Y20.500
X9.500Y40.750
X11.250Y46.750
X35.250Y21.250
X57.250Y43.000
X11.750Y34.500
X47.500Y39.250
X6.250Y39.738
X6.250Y26.500
X19.375Y3.875
X34.870Y52.500
X80.000Y46.000
X67.750Y9.250
X26.000Y14.750
X83.250Y41.500
X60.000Y24.500
X32.822Y46.250
X28.000Y51.750
X68.750Y21.850
X43.963Y18.268
X48.421Y23.245
X55.750Y22.250
X11.000Y42.750
X57.000Y40.000
X74.000Y27.500
X72.250Y17.000
X69.750Y9.250
X68.470Y24.380
X18.625Y6.125
X82.500Y40.750
X79.350Y21.150
X76.250Y15.850
X32.822Y45.250
X21.500Y36.750
X69.775Y5.875
X71.000Y18.250
X74.750Y20.750
X77.235Y24.235
X56.750Y34.750
X26.000Y22.750
X64.250Y9.250
X55.870Y18.329
X47.500Y41.250
X20.750Y14.500
X23.000Y38.250
X15.000Y47.750
X68.933Y2.570
X58.750Y4.250
X78.500Y14.750
X10.500Y31.250
X40.000Y20.250
X57.000Y31.000
X83.250Y40.250
X63.250Y20.500
X20.000Y53.000
T3
X84.520Y18.230
X81.980Y18.230
X81.980Y20.770
X83.250Y19.500
X84.520Y20.770
T5
X25.950Y5.250
X21.550Y5.250
T6
X12.020Y14.040
X9.480Y8.960
X12.020Y6.420
X9.480Y16.580
X12.020Y16.580
X9.480Y11.500
X9.480Y6.420
X12.020Y8.960
X9.480Y14.040
X12.020Y11.500
T2
X82.750Y11.500
X40.000Y2.750
X33.000Y2.750
T4
X84.247Y28.868
X82.038Y28.868
X84.247Y26.632
X82.038Y26.632
T1
X82.000Y53.000
X82.000Y4.000
X2.000Y4.000
X2.000Y53.000
M30
