%FSLAX46Y46*%
%MOMM*%
%AMPS15*
1,1,1.250000,0.000000,0.000000*
%
%ADD15PS15*%
%AMPS17*
1,1,2.200000,0.000000,0.000000*
%
%ADD17PS17*%
%AMPS24*
1,1,1.700000,0.000000,0.000000*
%
%ADD24PS24*%
%AMPS22*
1,1,1.700000,0.000000,0.000000*
%
%ADD22PS22*%
%AMPS13*
1,1,2.200000,0.000000,0.000000*
%
%ADD13PS13*%
%AMPS23*
1,1,1.700000,0.000000,0.000000*
%
%ADD23PS23*%
%AMPS16*
1,1,1.250000,0.000000,0.000000*
%
%ADD16PS16*%
%AMPS20*
1,1,1.700000,0.000000,0.000000*
%
%ADD20PS20*%
%AMPS14*
1,1,1.250000,0.000000,0.000000*
%
%ADD14PS14*%
%AMPS21*
1,1,1.700000,0.000000,0.000000*
%
%ADD21PS21*%
%AMPS29*
1,1,0.550000,0.000000,0.000000*
%
%ADD29PS29*%
%AMPS37*
1,1,0.500000,0.000000,0.000000*
%
%ADD37PS37*%
%AMPS33*
1,1,0.500000,0.000000,0.000000*
%
%ADD33PS33*%
%AMPS28*
1,1,0.550000,0.000000,0.000000*
%
%ADD28PS28*%
%AMPS35*
1,1,0.500000,0.000000,0.000000*
%
%ADD35PS35*%
%AMPS34*
1,1,0.410000,0.000000,0.000000*
%
%ADD34PS34*%
%AMPS25*
1,1,0.500000,0.000000,0.000000*
%
%ADD25PS25*%
%AMPS30*
1,1,0.550000,0.000000,0.000000*
%
%ADD30PS30*%
%AMPS32*
1,1,0.500000,0.000000,0.000000*
%
%ADD32PS32*%
%AMPS26*
1,1,0.550000,0.000000,0.000000*
%
%ADD26PS26*%
%AMPS31*
1,1,0.550000,0.000000,0.000000*
%
%ADD31PS31*%
%AMPS36*
1,1,0.500000,0.000000,0.000000*
%
%ADD36PS36*%
%AMPS27*
1,1,0.550000,0.000000,0.000000*
%
%ADD27PS27*%
%AMPS18*
21,1,3.500000,5.537200,-0.020000,0.000000,270.000000*
%
%ADD18PS18*%
%AMPS12*
1,1,6.400000,0.000000,0.000000*
%
%ADD12PS12*%
%AMPS10*
1,1,6.400000,0.000000,0.000000*
%
%ADD10PS10*%
%AMPS11*
1,1,6.400000,0.000000,0.000000*
%
%ADD11PS11*%
%AMPS19*
21,1,3.500000,5.537200,0.020000,0.000000,270.000000*
%
%ADD19PS19*%
G01*
G01*
%LPD*%
D10*
X82000000Y53000000D03*
D11*
X82000000Y4000000D03*
D11*
X2000000Y4000000D03*
D12*
X2000000Y53000000D03*
D13*
X82750000Y11500000D03*
D14*
X84520000Y18230000D03*
D14*
X81980000Y18230000D03*
D15*
X81980000Y20770000D03*
D16*
X83250000Y19500000D03*
D15*
X84520000Y20770000D03*
D17*
X40000000Y2750000D03*
D18*
X83231000Y29860000D03*
D19*
X83231000Y25640000D03*
D13*
X33000000Y2750000D03*
D20*
X12020000Y14040000D03*
D21*
X9480000Y8960000D03*
D22*
X12020000Y6420000D03*
D22*
X9480000Y16580000D03*
D23*
X12020000Y16580000D03*
D21*
X9480000Y11500000D03*
D22*
X9480000Y6420000D03*
D24*
X12020000Y8960000D03*
D21*
X9480000Y14040000D03*
D23*
X12020000Y11500000D03*
D25*
X83425000Y27025000D03*
D26*
X70750000Y8375000D03*
D27*
X17000000Y48000000D03*
D27*
X53500000Y35750000D03*
D27*
X56750000Y7000000D03*
D27*
X74750000Y25750000D03*
D28*
X73000000Y26500000D03*
D28*
X63250000Y19750000D03*
D27*
X74000000Y15250000D03*
D29*
X46738827Y28494557D03*
D27*
X65250000Y9250000D03*
D30*
X1750000Y10500000D03*
D27*
X81500000Y40750000D03*
D26*
X54744557Y17578873D03*
D29*
X69750000Y12750000D03*
D26*
X22500000Y15250000D03*
D30*
X24000000Y51250000D03*
D26*
X9000000Y48000000D03*
D28*
X56750000Y12250000D03*
D27*
X47500000Y40250000D03*
D31*
X81500000Y39750000D03*
D27*
X71000000Y31500000D03*
D31*
X32822488Y39750000D03*
D26*
X50500000Y20275000D03*
D26*
X34500000Y23000000D03*
D28*
X75500000Y9000000D03*
D29*
X35750000Y18250000D03*
D29*
X70000000Y26850000D03*
D27*
X63500000Y41750000D03*
D28*
X27375000Y6125000D03*
D27*
X57500000Y23000000D03*
D29*
X71100000Y32500000D03*
D26*
X63250000Y19000000D03*
D26*
X43000000Y21750000D03*
D27*
X26530000Y26000000D03*
D27*
X60000000Y23500000D03*
D27*
X71750000Y30500000D03*
D31*
X77250000Y15500000D03*
D27*
X1750000Y14250000D03*
D27*
X71500000Y12000000D03*
D29*
X70500000Y18750000D03*
D27*
X36250000Y22250000D03*
D27*
X63000000Y11750000D03*
D31*
X55000000Y23000000D03*
D28*
X40750000Y53750000D03*
D27*
X37750000Y28250000D03*
D28*
X56250000Y11500000D03*
D29*
X21500000Y39750000D03*
D27*
X46750000Y33550000D03*
D27*
X34500000Y21750000D03*
D27*
X68500000Y6750000D03*
D27*
X73250000Y5500000D03*
D27*
X28250000Y35250000D03*
D27*
X32750000Y30000000D03*
D25*
X85175000Y28475000D03*
D27*
X60000000Y32000000D03*
D27*
X84500000Y22500000D03*
D28*
X46500000Y37250000D03*
D27*
X60000000Y15000000D03*
D26*
X48125000Y28494557D03*
D31*
X84250000Y45000000D03*
D27*
X72750000Y16500000D03*
D27*
X52536657Y12768328D03*
D27*
X58750000Y7000000D03*
D27*
X73750000Y6000000D03*
D31*
X49500000Y40250000D03*
D28*
X54250000Y34500000D03*
D29*
X77500000Y2500000D03*
D26*
X22500000Y51750000D03*
D27*
X30500000Y41250000D03*
D28*
X55000000Y11500000D03*
D28*
X28875000Y3875000D03*
D27*
X57500000Y12750000D03*
D27*
X29000000Y29750000D03*
D27*
X49500000Y41250000D03*
D26*
X71000000Y17000000D03*
D26*
X52500000Y44250000D03*
D29*
X68500000Y20250000D03*
D28*
X55494557Y8578873D03*
D30*
X32822488Y41250000D03*
D27*
X73000000Y15250000D03*
D27*
X55000000Y20500000D03*
D27*
X15250000Y33750000D03*
D26*
X53250000Y38250000D03*
D26*
X60000000Y14000000D03*
D29*
X52499129Y13517391D03*
D28*
X49500000Y37250000D03*
D27*
X21935000Y51000000D03*
D27*
X11000000Y43750000D03*
D29*
X34500000Y20500000D03*
D29*
X35250000Y22250000D03*
D29*
X35750000Y20500000D03*
D26*
X9109418Y3000000D03*
D28*
X70500000Y17750000D03*
D30*
X71750000Y17500000D03*
D27*
X26500000Y30000000D03*
D32*
X79750000Y27025000D03*
D28*
X52250000Y31250000D03*
D27*
X6250000Y25000000D03*
D27*
X76250000Y20500000D03*
D27*
X82049265Y43700735D03*
D27*
X25250000Y9750000D03*
D26*
X83250000Y39000000D03*
D27*
X77828873Y38005443D03*
D27*
X11000000Y46000000D03*
D26*
X67750000Y17750000D03*
D26*
X45500000Y40250000D03*
D27*
X29500000Y48000000D03*
D27*
X66750000Y13250000D03*
D27*
X75250000Y23350000D03*
D26*
X36750000Y28250000D03*
D26*
X43750000Y22250000D03*
D28*
X78578873Y39880443D03*
D26*
X57750000Y4250000D03*
D29*
X5000056Y42250056D03*
D27*
X56250000Y25250000D03*
D27*
X40000000Y21750000D03*
D27*
X56250000Y42250000D03*
D27*
X72250000Y28250000D03*
D33*
X78000000Y28500000D03*
D29*
X55750000Y12250000D03*
D27*
X71000000Y15750000D03*
D27*
X47500000Y37250000D03*
D27*
X3750000Y22024999D03*
D29*
X34000000Y49000000D03*
D29*
X26625000Y6125000D03*
D27*
X-250000Y47000000D03*
D28*
X24500000Y36750000D03*
D30*
X70500000Y12000000D03*
D26*
X43000000Y20500000D03*
D26*
X77504056Y25762304D03*
D29*
X48875000Y28494557D03*
D29*
X27000000Y23750000D03*
D27*
X48421127Y20244557D03*
D29*
X7250000Y45238045D03*
D27*
X1750000Y12000000D03*
D25*
X82925000Y27025000D03*
D27*
X74000000Y17750000D03*
D26*
X66750000Y44000000D03*
D27*
X73500000Y25750000D03*
D26*
X1750000Y15000000D03*
D28*
X72750000Y6000000D03*
D27*
X18625000Y3875000D03*
D27*
X56750000Y4250000D03*
D26*
X64500000Y20500000D03*
D26*
X76500000Y32000000D03*
D28*
X71500000Y15250000D03*
D27*
X37900000Y16000000D03*
D26*
X53500000Y39000000D03*
D29*
X37300000Y16000000D03*
D28*
X60500000Y6750000D03*
D27*
X37000000Y20500000D03*
D25*
X81175000Y27025000D03*
D26*
X46500000Y35250000D03*
D31*
X53250000Y17578873D03*
D27*
X48500000Y38250000D03*
D27*
X63198531Y17244041D03*
D30*
X21250000Y12750000D03*
D26*
X56619557Y9328873D03*
D27*
X43000000Y23000000D03*
D27*
X74000000Y16250000D03*
D29*
X63250000Y9250000D03*
D31*
X70750000Y6500000D03*
D28*
X47500000Y53750000D03*
D27*
X46313827Y15994557D03*
D27*
X56250000Y23000000D03*
D28*
X9750000Y48000000D03*
D28*
X54250000Y33500000D03*
D27*
X52750000Y22500000D03*
D28*
X3500000Y27500000D03*
D27*
X63000000Y26750000D03*
D27*
X50250000Y23000000D03*
D26*
X82000000Y39000000D03*
D26*
X35000000Y18250000D03*
D29*
X77828873Y37255443D03*
D26*
X82000000Y41500000D03*
D27*
X45500000Y38250000D03*
D27*
X26000000Y39750000D03*
D27*
X77850000Y22650000D03*
D29*
X54250000Y34000000D03*
D26*
X27375000Y3875000D03*
D27*
X76250000Y30500000D03*
D27*
X57500000Y11500000D03*
D31*
X72250000Y27000000D03*
D27*
X25500000Y11000000D03*
D27*
X71750000Y16500000D03*
D27*
X23500000Y26000000D03*
D26*
X51500000Y24000000D03*
D27*
X35750000Y25250000D03*
D27*
X53250000Y8578873D03*
D30*
X55000000Y21750000D03*
D27*
X29750000Y44000000D03*
D27*
X63198531Y17819041D03*
D27*
X56994557Y8578873D03*
D27*
X19500000Y52500000D03*
D28*
X60250000Y21500000D03*
D26*
X51750000Y46250000D03*
D30*
X60250000Y4625000D03*
D29*
X80750000Y41500000D03*
D27*
X26625000Y3875000D03*
D27*
X46500000Y40250000D03*
D27*
X67500000Y6750000D03*
D29*
X67250000Y6000000D03*
D27*
X78578873Y40630443D03*
D26*
X5250000Y41238045D03*
D29*
X51500000Y40000000D03*
D26*
X77828873Y38755443D03*
D27*
X85250000Y38250000D03*
D27*
X45500000Y21750000D03*
D27*
X51500000Y36000000D03*
D29*
X76250000Y9000000D03*
D30*
X3500000Y41250000D03*
D27*
X49000000Y42750000D03*
D28*
X21000000Y53000000D03*
D28*
X73500000Y18250000D03*
D27*
X1750000Y18750000D03*
D27*
X16500000Y52500000D03*
D27*
X45738827Y15994557D03*
D30*
X68250000Y14500000D03*
D27*
X1750000Y17250000D03*
D26*
X43750000Y21250000D03*
D28*
X35750000Y23000000D03*
D30*
X2500000Y41250000D03*
D27*
X80750000Y39000000D03*
D28*
X66750000Y33500000D03*
D29*
X49750000Y43250000D03*
D28*
X38500000Y16000000D03*
D30*
X72250000Y22550000D03*
D31*
X31000000Y51750000D03*
D28*
X55750000Y13250000D03*
D27*
X49500000Y39250000D03*
D26*
X51000000Y48000000D03*
D26*
X40000000Y18750000D03*
D29*
X64500000Y16750000D03*
D26*
X57500000Y21750000D03*
D28*
X73000000Y18750000D03*
D26*
X81500000Y23250000D03*
D28*
X9000000Y47000000D03*
D27*
X9500000Y40000000D03*
D27*
X50475000Y10700000D03*
D29*
X6500000Y24000000D03*
D26*
X26000000Y41250000D03*
D27*
X69775000Y5125000D03*
D28*
X73500000Y28250000D03*
D29*
X72125000Y40900000D03*
D31*
X28875000Y6125000D03*
D27*
X20000000Y15250000D03*
D28*
X48421127Y21744557D03*
D27*
X20750000Y13500000D03*
D29*
X8250000Y50000000D03*
D27*
X77269235Y25050011D03*
D27*
X63500000Y35750000D03*
D27*
X60000000Y45250000D03*
D27*
X7469668Y50530332D03*
D27*
X57383184Y46125000D03*
D27*
X74449990Y2750000D03*
D26*
X19000000Y53000000D03*
D27*
X13500000Y52750000D03*
D27*
X1750000Y15750000D03*
D29*
X72000000Y9250000D03*
D26*
X79750000Y18500000D03*
D27*
X63000000Y10250000D03*
D26*
X53994557Y8578873D03*
D26*
X73750000Y5000000D03*
D26*
X28125000Y6125000D03*
D26*
X48500000Y41250000D03*
D27*
X14750000Y45500000D03*
D29*
X53994557Y17578873D03*
D31*
X62480000Y6770000D03*
D27*
X2500000Y42250000D03*
D28*
X21750000Y24350030D03*
D27*
X54744557Y8578873D03*
D27*
X61051469Y12750000D03*
D26*
X77828873Y41755443D03*
D28*
X26000000Y36750000D03*
D27*
X52250000Y32000000D03*
D28*
X75500000Y12250000D03*
D30*
X45500000Y48000000D03*
D31*
X40000000Y21000000D03*
D30*
X21750000Y13500000D03*
D27*
X32500000Y47750000D03*
D30*
X18500000Y52500000D03*
D27*
X72250000Y18250000D03*
D26*
X55000000Y25500000D03*
D27*
X51500000Y41500000D03*
D29*
X56994557Y17578873D03*
D27*
X55494557Y17578873D03*
D26*
X69250000Y20000000D03*
D26*
X56250000Y31500000D03*
D27*
X37000000Y23000000D03*
D34*
X78025000Y27750000D03*
D27*
X11250000Y47750000D03*
D27*
X74750000Y28250000D03*
D31*
X56750000Y21250000D03*
D27*
X45238827Y28494557D03*
D27*
X56619557Y18328873D03*
D30*
X6250000Y40488045D03*
D30*
X70750000Y22000000D03*
D27*
X50475000Y10125000D03*
D27*
X61250000Y29250000D03*
D26*
X36500000Y52500000D03*
D27*
X45500000Y41250000D03*
D27*
X77050000Y22725000D03*
D31*
X44250000Y20500000D03*
D26*
X57000000Y26000000D03*
D29*
X23000000Y51250000D03*
D28*
X60000000Y38750000D03*
D30*
X21750000Y14500000D03*
D26*
X24500000Y38250000D03*
D29*
X44250000Y25301469D03*
D26*
X11000000Y44750000D03*
D27*
X57500000Y14000000D03*
D26*
X20125000Y3875000D03*
D27*
X80149999Y21000000D03*
D27*
X45500000Y39250000D03*
D29*
X52500000Y46250000D03*
D26*
X30000000Y29750000D03*
D27*
X32822488Y38750000D03*
D27*
X44250000Y23000000D03*
D28*
X50500000Y19125000D03*
D29*
X46000000Y43250000D03*
D26*
X82500000Y39750000D03*
D27*
X32500000Y33000000D03*
D26*
X12500000Y25750000D03*
D27*
X52750000Y21750000D03*
D27*
X-250000Y32250000D03*
D26*
X56250000Y35250000D03*
D27*
X9500000Y39250000D03*
D26*
X66750000Y28850000D03*
D27*
X72250000Y47500000D03*
D26*
X77828873Y41005443D03*
D30*
X39250000Y22125000D03*
D26*
X44750000Y21250000D03*
D27*
X24750000Y16750000D03*
D29*
X3500000Y26500000D03*
D32*
X82925000Y28475000D03*
D27*
X16250000Y27000000D03*
D30*
X32500000Y31250000D03*
D31*
X19375000Y6125000D03*
D27*
X72750000Y5000000D03*
D31*
X71500000Y18750000D03*
D30*
X77828873Y39505443D03*
D26*
X75750000Y46000000D03*
D26*
X71750000Y21621350D03*
D26*
X3750000Y36750000D03*
D29*
X72750000Y42500000D03*
D27*
X37500000Y49000000D03*
D26*
X39250000Y48500000D03*
D29*
X50250000Y22250000D03*
D27*
X1000000Y32250000D03*
D27*
X74000000Y18750000D03*
D26*
X59500000Y46500000D03*
D28*
X72250000Y23350000D03*
D27*
X55000000Y14000000D03*
D31*
X1750000Y11250000D03*
D29*
X56750000Y37500000D03*
D28*
X11000000Y3000000D03*
D27*
X1750000Y16500000D03*
D26*
X3000000Y41750000D03*
D31*
X28250000Y18500000D03*
D28*
X11000000Y49750000D03*
D27*
X48421127Y20994557D03*
D29*
X41500000Y50000000D03*
D27*
X47000000Y43250000D03*
D27*
X34000000Y26750000D03*
D27*
X42488827Y18244557D03*
D32*
X79750000Y28475000D03*
D27*
X12500000Y51250000D03*
D27*
X2500000Y27500000D03*
D27*
X45500000Y20500000D03*
D28*
X32822488Y34250000D03*
D27*
X66750000Y25850000D03*
D27*
X74000000Y26500000D03*
D31*
X11750000Y43250000D03*
D26*
X50475000Y11275000D03*
D27*
X75705546Y13668043D03*
D30*
X1750000Y12750000D03*
D26*
X28250000Y45500000D03*
D35*
X80425000Y27025000D03*
D27*
X15250000Y32750000D03*
D27*
X56244557Y17578873D03*
D29*
X45500000Y23000000D03*
D29*
X23000000Y41250000D03*
D27*
X32000000Y51750000D03*
D29*
X6250000Y25750000D03*
D27*
X70500000Y15250000D03*
D26*
X47671127Y22119557D03*
D27*
X20000000Y12750000D03*
D26*
X21500000Y41250000D03*
D27*
X74750000Y27000000D03*
D27*
X63000000Y11000000D03*
D30*
X17250000Y51000000D03*
D27*
X64500000Y19250000D03*
D27*
X11500000Y41500000D03*
D27*
X60900000Y25000000D03*
D27*
X44250000Y48250000D03*
D27*
X9750000Y47000000D03*
D31*
X67750000Y25000000D03*
D26*
X750000Y47500000D03*
D28*
X48421127Y22494557D03*
D27*
X9750000Y34250000D03*
D29*
X41750000Y38250000D03*
D27*
X29750000Y51250000D03*
D27*
X75250000Y22550000D03*
D28*
X30500000Y52500000D03*
D27*
X70000000Y24510022D03*
D27*
X67250000Y2570011D03*
D27*
X75607112Y6250000D03*
D27*
X52250000Y33500000D03*
D26*
X10000000Y3000000D03*
D27*
X55869557Y9328873D03*
D27*
X49000000Y35250000D03*
D26*
X23000000Y26500000D03*
D36*
X78000000Y27000000D03*
D26*
X46500000Y38250000D03*
D29*
X48421127Y19494557D03*
D28*
X28500000Y52250000D03*
D26*
X44750000Y22250000D03*
D27*
X75750000Y42500000D03*
D28*
X28250000Y32500000D03*
D30*
X50250000Y21500000D03*
D27*
X5000000Y27500000D03*
D27*
X29500000Y10000000D03*
D26*
X27750000Y29750000D03*
D27*
X48500000Y37250000D03*
D30*
X60000000Y28000000D03*
D26*
X70750000Y7625000D03*
D26*
X37000000Y21750000D03*
D27*
X72250000Y25750000D03*
D28*
X48500000Y39250000D03*
D27*
X64250000Y15500000D03*
D25*
X80425000Y28475000D03*
D28*
X56750000Y22250000D03*
D26*
X56250000Y16000000D03*
D29*
X23000000Y39750000D03*
D27*
X72350000Y12000000D03*
D27*
X76750000Y14250000D03*
D27*
X56250000Y14000000D03*
D29*
X40000000Y22500000D03*
D30*
X60000000Y31000000D03*
D26*
X11000000Y28750000D03*
D27*
X49500000Y38250000D03*
D27*
X57744557Y8578873D03*
D28*
X23000000Y36750000D03*
D28*
X20000000Y14000000D03*
D28*
X8250000Y35250000D03*
D28*
X6250000Y41238045D03*
D27*
X34000000Y17500000D03*
D29*
X52500000Y14250000D03*
D27*
X69250000Y24600000D03*
D27*
X1750000Y13500000D03*
D28*
X77780986Y23720777D03*
D28*
X72750000Y17500000D03*
D26*
X54000000Y37750000D03*
D27*
X70000008Y31250000D03*
D27*
X48500000Y40250000D03*
D27*
X36250000Y21250000D03*
D27*
X45988827Y28494557D03*
D27*
X28125000Y3875000D03*
D27*
X72782418Y20853148D03*
D27*
X56750000Y13250000D03*
D29*
X47671127Y21369557D03*
D27*
X60000000Y16000000D03*
D31*
X5250000Y26500000D03*
D36*
X81175000Y28475000D03*
D26*
X64500000Y18000000D03*
D27*
X73500000Y17000000D03*
D30*
X55000000Y12750000D03*
D26*
X11750000Y44250000D03*
D28*
X40000000Y24000000D03*
D27*
X28500000Y54000000D03*
D27*
X29000000Y51750000D03*
D29*
X55750000Y21250000D03*
D27*
X67679991Y16000000D03*
D30*
X60000000Y33000000D03*
D26*
X31500000Y52500000D03*
D27*
X20500000Y52500000D03*
D31*
X15000000Y41250000D03*
D29*
X66750000Y38000000D03*
D27*
X8500000Y30250000D03*
D27*
X77828873Y40255443D03*
D29*
X3500000Y42250000D03*
D27*
X6750000Y50000000D03*
D29*
X57383184Y45375000D03*
D27*
X85250000Y42250000D03*
D27*
X40000000Y19500000D03*
D26*
X32250000Y21000000D03*
D29*
X23500000Y27000000D03*
D27*
X51500000Y37500000D03*
D29*
X24500000Y39750000D03*
D26*
X48421127Y23994557D03*
D26*
X8500000Y29500000D03*
D29*
X1750000Y9000000D03*
D26*
X45500000Y37250000D03*
D27*
X52250000Y32750000D03*
D26*
X70750000Y9250000D03*
D26*
X46500000Y41250000D03*
D31*
X46500000Y39250000D03*
D27*
X22000000Y10250000D03*
D26*
X43500000Y38750000D03*
D26*
X51500000Y15000000D03*
D29*
X72250000Y15750000D03*
D29*
X57750000Y7000000D03*
D27*
X68750000Y9250000D03*
D27*
X53500000Y39750000D03*
D30*
X52750000Y23250000D03*
D28*
X47500000Y38250000D03*
D26*
X23000000Y25500000D03*
D26*
X46888827Y15994557D03*
D27*
X24500000Y41250000D03*
D29*
X39250000Y21375000D03*
D27*
X60250000Y5375000D03*
D26*
X80750000Y40250000D03*
D27*
X60000000Y30000000D03*
D26*
X73250000Y47500000D03*
D27*
X14500000Y29750000D03*
D27*
X19000000Y29750000D03*
D27*
X21500000Y38250000D03*
D30*
X32280001Y35000000D03*
D26*
X21250000Y15250000D03*
D29*
X13500000Y53750000D03*
D27*
X20875000Y3875000D03*
D29*
X50500000Y19700000D03*
D30*
X24500000Y51750000D03*
D27*
X66750000Y39500000D03*
D27*
X57500000Y38750000D03*
D26*
X56244557Y8578873D03*
D27*
X22500000Y14000000D03*
D26*
X1750000Y9750000D03*
D27*
X26000000Y38250000D03*
D27*
X34250000Y18250000D03*
D27*
X20875000Y6125000D03*
D29*
X74250000Y47500000D03*
D37*
X83425000Y28475000D03*
D27*
X32822488Y35750000D03*
D27*
X73000000Y27500000D03*
D27*
X6500000Y38738045D03*
D27*
X23500000Y51750000D03*
D26*
X2500000Y26500000D03*
D28*
X30750000Y39999989D03*
D27*
X11750000Y42250000D03*
D27*
X55500000Y28750000D03*
D27*
X3000000Y27000000D03*
D27*
X20125000Y6125000D03*
D26*
X17750000Y52500000D03*
D27*
X56250000Y20500000D03*
D27*
X52250000Y30500000D03*
D27*
X73500000Y15750000D03*
D27*
X70500000Y16250000D03*
D29*
X40000000Y23250000D03*
D29*
X48000000Y48500000D03*
D27*
X57250000Y44250000D03*
D27*
X60000000Y22500000D03*
D27*
X1750000Y18000000D03*
D27*
X22500000Y48000000D03*
D26*
X56250000Y26000000D03*
D26*
X-1000031Y19000000D03*
D27*
X25000000Y51250000D03*
D27*
X7250000Y30500000D03*
D28*
X22500000Y12750000D03*
D27*
X57500000Y20500000D03*
D27*
X9500000Y40750000D03*
D29*
X11250000Y46750000D03*
D26*
X35250000Y21250000D03*
D27*
X57250000Y43000000D03*
D30*
X11750000Y34500000D03*
D26*
X47500000Y39250000D03*
D28*
X6250000Y39738045D03*
D27*
X6250000Y26500000D03*
D27*
X19375000Y3875000D03*
D26*
X34869654Y52500000D03*
D28*
X80000000Y46000000D03*
D28*
X67750000Y9250000D03*
D27*
X26000000Y14750000D03*
D27*
X83250000Y41500000D03*
D27*
X60000000Y24500000D03*
D27*
X32822488Y46250000D03*
D27*
X28000000Y51750000D03*
D30*
X68750000Y21850000D03*
D28*
X43963343Y18268328D03*
D27*
X48421127Y23244557D03*
D27*
X55750000Y22250000D03*
D26*
X11000000Y42750000D03*
D26*
X57000000Y40000000D03*
D26*
X74000000Y27500000D03*
D30*
X72250000Y17000000D03*
D32*
X85175000Y27025000D03*
D27*
X69750000Y9250000D03*
D27*
X68469668Y24380332D03*
D27*
X18625000Y6125000D03*
D27*
X82500000Y40750000D03*
D30*
X79350000Y21150000D03*
D26*
X76250000Y15850000D03*
D27*
X32822488Y45250000D03*
D31*
X21500000Y36750000D03*
D27*
X69775000Y5875000D03*
D26*
X71000000Y18250000D03*
D26*
X74750000Y20750000D03*
D29*
X77235358Y24235358D03*
D26*
X56750000Y34750000D03*
D27*
X26000000Y22750000D03*
D27*
X64250000Y9250000D03*
D27*
X55869557Y18328873D03*
D26*
X47500000Y41250000D03*
D26*
X20750000Y14500000D03*
D26*
X23000000Y38250000D03*
D27*
X15000000Y47750000D03*
D29*
X68932925Y2570009D03*
D26*
X58750000Y4250000D03*
D27*
X78500000Y14750000D03*
D27*
X10500000Y31250000D03*
D26*
X40000000Y20250000D03*
D26*
X57000000Y31000000D03*
D27*
X83250000Y40250000D03*
D26*
X63250000Y20500000D03*
D27*
X20000000Y53000000D03*
M02*
