%FSLAX46Y46*%
%MOMM*%
%AMPS10*
21,1,0.800000,0.750000,0.000000,0.000000,0.000000*
%
%ADD10PS10*%
%AMPS16*
21,1,0.800000,0.750000,0.000000,0.000000,270.000000*
%
%ADD16PS16*%
%AMPS18*
21,1,0.800000,0.750000,0.000000,0.000000,180.000000*
%
%ADD18PS18*%
%AMPS15*
21,1,0.800000,0.750000,0.000000,0.000000,90.000000*
%
%ADD15PS15*%
%AMPS20*
21,1,0.500000,0.900000,0.000000,0.000000,0.000000*
%
%ADD20PS20*%
%AMPS17*
21,1,0.500000,0.900000,0.000000,0.000000,270.000000*
%
%ADD17PS17*%
%AMPS13*
21,1,0.500000,0.900000,0.000000,0.000000,180.000000*
%
%ADD13PS13*%
%AMPS11*
21,1,0.500000,0.900000,0.000000,0.000000,90.000000*
%
%ADD11PS11*%
%AMPS14*
21,1,0.600000,0.500000,0.000000,0.000000,0.000000*
%
%ADD14PS14*%
%AMPS12*
21,1,0.600000,0.500000,0.000000,0.000000,270.000000*
%
%ADD12PS12*%
%AMPS19*
21,1,0.600000,0.500000,0.000000,0.000000,180.000000*
%
%ADD19PS19*%
%AMPS21*
21,1,0.600000,0.500000,0.000000,0.000000,90.000000*
%
%ADD21PS21*%
G01*
G01*
%LPD*%
D10*
X50800000Y36750000D03*
D10*
X52300000Y36750000D03*
D10*
X11750000Y36500000D03*
D10*
X13250000Y36500000D03*
D11*
X24500000Y25250000D03*
D11*
X24500000Y23750000D03*
D12*
X47250000Y36300000D03*
D12*
X47250000Y35200000D03*
D13*
X-500000Y10500000D03*
D13*
X1000000Y10500000D03*
D14*
X50700000Y43250000D03*
D14*
X51800000Y43250000D03*
D15*
X14750000Y27000000D03*
D15*
X14750000Y28500000D03*
D12*
X48250000Y36300000D03*
D12*
X48250000Y35200000D03*
D16*
X72225000Y14500000D03*
D16*
X72225000Y13000000D03*
D10*
X50500000Y45500000D03*
D10*
X52000000Y45500000D03*
D16*
X73475000Y14500000D03*
D16*
X73475000Y13000000D03*
D10*
X11750000Y45500000D03*
D10*
X13250000Y45500000D03*
D16*
X34250000Y36250000D03*
D16*
X34250000Y34750000D03*
D17*
X26000000Y23750000D03*
D17*
X26000000Y25250000D03*
D18*
X35750000Y30000000D03*
D18*
X34250000Y30000000D03*
D15*
X70500000Y19500000D03*
D15*
X70500000Y21000000D03*
D12*
X72500000Y24800000D03*
D12*
X72500000Y23700000D03*
D19*
X44300000Y39500000D03*
D19*
X43200000Y39500000D03*
D10*
X11750000Y32750000D03*
D10*
X13250000Y32750000D03*
D10*
X11750000Y49750000D03*
D10*
X13250000Y49750000D03*
D13*
X-500000Y13500000D03*
D13*
X1000000Y13500000D03*
D20*
X20500000Y51250000D03*
D20*
X19000000Y51250000D03*
D16*
X44500000Y36250000D03*
D16*
X44500000Y34750000D03*
D15*
X73750000Y21000000D03*
D15*
X73750000Y22500000D03*
D15*
X31500000Y32750000D03*
D15*
X31500000Y34250000D03*
D18*
X76500000Y19500000D03*
D18*
X75000000Y19500000D03*
D13*
X-500000Y16500000D03*
D13*
X1000000Y16500000D03*
D21*
X75750000Y28950000D03*
D21*
X75750000Y30050000D03*
D10*
X41500000Y35000000D03*
D10*
X43000000Y35000000D03*
D13*
X-500000Y18000000D03*
D13*
X1000000Y18000000D03*
D15*
X71750000Y19500000D03*
D15*
X71750000Y21000000D03*
D19*
X44300000Y38000000D03*
D19*
X43200000Y38000000D03*
D16*
X70975000Y14500000D03*
D16*
X70975000Y13000000D03*
D15*
X74500000Y29000000D03*
D15*
X74500000Y30500000D03*
D13*
X78750000Y23000000D03*
D13*
X80250000Y23000000D03*
D13*
X-500000Y9000000D03*
D13*
X1000000Y9000000D03*
D10*
X74750000Y14750000D03*
D10*
X76250000Y14750000D03*
D10*
X77500000Y18500000D03*
D10*
X79000000Y18500000D03*
D13*
X55000000Y40000000D03*
D13*
X56500000Y40000000D03*
D21*
X72000000Y28950000D03*
D21*
X72000000Y30050000D03*
D18*
X44500000Y40750000D03*
D18*
X43000000Y40750000D03*
D21*
X45250000Y42450000D03*
D21*
X45250000Y43550000D03*
D14*
X50700000Y35250000D03*
D14*
X51800000Y35250000D03*
D11*
X21750000Y28250000D03*
D11*
X21750000Y26750000D03*
D16*
X76250000Y24850000D03*
D16*
X76250000Y23350000D03*
D15*
X48000000Y42750000D03*
D15*
X48000000Y44250000D03*
D13*
X22750000Y53000000D03*
D13*
X24250000Y53000000D03*
D12*
X75000000Y24800000D03*
D12*
X75000000Y23700000D03*
D10*
X50800000Y40750000D03*
D10*
X52300000Y40750000D03*
D19*
X71550000Y26250000D03*
D19*
X70450000Y26250000D03*
D15*
X26500000Y27000000D03*
D15*
X26500000Y28500000D03*
D19*
X79150000Y19650000D03*
D19*
X78050000Y19650000D03*
D16*
X33250000Y49000000D03*
D16*
X33250000Y47500000D03*
D12*
X49650000Y36300000D03*
D12*
X49650000Y35200000D03*
D12*
X45750000Y36300000D03*
D12*
X45750000Y35200000D03*
D10*
X11750000Y28250000D03*
D10*
X13250000Y28250000D03*
D10*
X11750000Y29500000D03*
D10*
X13250000Y29500000D03*
D14*
X50700000Y44250000D03*
D14*
X51800000Y44250000D03*
D16*
X18000000Y51000000D03*
D16*
X18000000Y49500000D03*
D10*
X31000000Y44250000D03*
D10*
X32500000Y44250000D03*
D15*
X33250000Y27000000D03*
D15*
X33250000Y28500000D03*
D14*
X50700000Y38250000D03*
D14*
X51800000Y38250000D03*
D14*
X75700000Y26000000D03*
D14*
X76800000Y26000000D03*
D18*
X69750000Y15000000D03*
D18*
X68250000Y15000000D03*
D18*
X31500000Y31250000D03*
D18*
X30000000Y31250000D03*
D16*
X71250000Y24850000D03*
D16*
X71250000Y23350000D03*
D12*
X78500000Y25800000D03*
D12*
X78500000Y24700000D03*
D10*
X74750000Y17000000D03*
D10*
X76250000Y17000000D03*
D21*
X44250000Y42450000D03*
D21*
X44250000Y43550000D03*
D13*
X-500000Y12000000D03*
D13*
X1000000Y12000000D03*
D18*
X71500000Y27500000D03*
D18*
X70000000Y27500000D03*
D18*
X69750000Y16250000D03*
D18*
X68250000Y16250000D03*
D10*
X11750000Y40750000D03*
D10*
X13250000Y40750000D03*
D14*
X76300000Y21900000D03*
D14*
X77400000Y21900000D03*
D17*
X23000000Y23250000D03*
D17*
X23000000Y24750000D03*
D14*
X50700000Y39250000D03*
D14*
X51800000Y39250000D03*
D11*
X49250000Y45500000D03*
D11*
X49250000Y44000000D03*
D13*
X-500000Y15000000D03*
D13*
X1000000Y15000000D03*
D18*
X56500000Y38500000D03*
D18*
X55000000Y38500000D03*
D15*
X73250000Y29000000D03*
D15*
X73250000Y30500000D03*
D14*
X50700000Y42250000D03*
D14*
X51800000Y42250000D03*
D10*
X41500000Y43500000D03*
D10*
X43000000Y43500000D03*
D10*
X31000000Y37750000D03*
D10*
X32500000Y37750000D03*
M02*
